<svg width="1785" height="470" viewBox="0 0 1785 470" fill="none" xmlns="http://www.w3.org/2000/svg">
<g filter="url(#filter0_d_930_8903)">
<path d="M775.207 399.462C742.039 382.821 702.601 367.474 659.12 355.013C643.71 350.56 631.694 367.125 640.684 380.717C640.796 380.879 640.908 381.04 641.02 381.201C656.032 402.82 650.032 431.757 627.154 443C609.936 451.589 587.486 446.352 574.121 430.814C556.599 410.256 560.051 380.875 580.654 367.485C580.654 367.485 580.808 367.384 580.962 367.283C593.624 358.746 587.577 337.942 571.874 335.325C527.73 327.876 486.345 324.723 450.482 325.814C453.967 361.799 453.85 403.079 449.486 446.792C447.967 462.344 427.375 467.041 418.077 453.65C418.077 453.65 417.965 453.489 417.853 453.328C402.975 431.739 373.267 426.212 353.883 442.325C339.109 454.595 335.591 476.623 345.394 494.612C358.279 518.329 387.742 526.247 408.345 512.856C408.499 512.755 408.653 512.654 408.807 512.554C421.805 504.501 439.262 517.707 435.881 532.837C426.444 575.532 413.961 614.003 399.474 646.04C432.642 662.68 472.079 678.027 515.56 690.489C530.971 694.941 542.986 678.377 533.996 664.784C533.884 664.623 533.772 664.462 533.66 664.3C518.649 642.682 524.649 613.744 547.527 602.501C564.744 593.912 587.194 599.149 600.559 614.687C618.082 635.246 614.629 664.626 594.027 678.017C594.027 678.017 593.873 678.118 593.719 678.219C581.057 686.755 587.103 707.56 602.807 710.177C646.951 717.625 688.336 720.778 724.198 719.687C720.713 683.703 720.831 642.422 725.194 598.71C726.714 583.157 747.306 578.461 756.604 591.851C756.604 591.851 756.716 592.013 756.828 592.174C771.706 613.762 801.413 619.289 820.797 603.176C835.571 590.907 839.09 568.879 829.286 550.889C816.402 527.172 786.939 519.255 766.336 532.645C766.182 532.746 766.028 532.847 765.874 532.948C752.876 541.001 735.418 527.794 738.799 512.665C748.237 469.969 760.72 431.498 775.207 399.462Z" fill="url(#paint0_linear_930_8903)"/>
<path d="M775.207 399.462C742.039 382.821 702.601 367.474 659.12 355.013C643.71 350.56 631.694 367.125 640.684 380.717C640.796 380.879 640.908 381.04 641.02 381.201C656.032 402.82 650.032 431.757 627.154 443C609.936 451.589 587.486 446.352 574.121 430.814C556.599 410.256 560.051 380.875 580.654 367.485C580.654 367.485 580.808 367.384 580.962 367.283C593.624 358.746 587.577 337.942 571.874 335.325C527.73 327.876 486.345 324.723 450.482 325.814C453.967 361.799 453.85 403.079 449.486 446.792C447.967 462.344 427.375 467.041 418.077 453.65C418.077 453.65 417.965 453.489 417.853 453.328C402.975 431.739 373.267 426.212 353.883 442.325C339.109 454.595 335.591 476.623 345.394 494.612C358.279 518.329 387.742 526.247 408.345 512.856C408.499 512.755 408.653 512.654 408.807 512.554C421.805 504.501 439.262 517.707 435.881 532.837C426.444 575.532 413.961 614.003 399.474 646.04C432.642 662.68 472.079 678.027 515.56 690.489C530.971 694.941 542.986 678.377 533.996 664.784C533.884 664.623 533.772 664.462 533.66 664.3C518.649 642.682 524.649 613.744 547.527 602.501C564.744 593.912 587.194 599.149 600.559 614.687C618.082 635.246 614.629 664.626 594.027 678.017C594.027 678.017 593.873 678.118 593.719 678.219C581.057 686.755 587.103 707.56 602.807 710.177C646.951 717.625 688.336 720.778 724.198 719.687C720.713 683.703 720.831 642.422 725.194 598.71C726.714 583.157 747.306 578.461 756.604 591.851C756.604 591.851 756.716 592.013 756.828 592.174C771.706 613.762 801.413 619.289 820.797 603.176C835.571 590.907 839.09 568.879 829.286 550.889C816.402 527.172 786.939 519.255 766.336 532.645C766.182 532.746 766.028 532.847 765.874 532.948C752.876 541.001 735.418 527.794 738.799 512.665C748.237 469.969 760.72 431.498 775.207 399.462Z" stroke="white" stroke-width="5" stroke-miterlimit="10"/>
</g>
<g filter="url(#filter1_d_930_8903)">
<path d="M1137.21 191.462C1104.04 174.821 1064.6 159.474 1021.12 147.013C1005.71 142.56 993.694 159.125 1002.68 172.717C1002.8 172.879 1002.91 173.04 1003.02 173.201C1018.03 194.82 1012.03 223.757 989.154 235C971.936 243.589 949.486 238.352 936.121 222.814C918.599 202.256 922.051 172.875 942.654 159.485C942.654 159.485 942.808 159.384 942.962 159.283C955.624 150.746 949.577 129.942 933.874 127.325C889.73 119.876 848.345 116.723 812.482 117.814C815.967 153.799 815.85 195.079 811.486 238.792C809.967 254.344 789.375 259.041 780.077 245.65C780.077 245.65 779.965 245.489 779.853 245.328C764.975 223.739 735.267 218.212 715.883 234.325C701.109 246.595 697.591 268.623 707.394 286.612C720.279 310.329 749.742 318.247 770.345 304.856C770.499 304.755 770.653 304.654 770.807 304.554C783.805 296.501 801.262 309.707 797.881 324.837C788.444 367.532 775.961 406.003 761.474 438.04C794.642 454.68 834.079 470.027 877.56 482.489C892.971 486.941 904.986 470.377 895.996 456.784C895.884 456.623 895.772 456.462 895.66 456.3C880.649 434.682 886.649 405.744 909.527 394.501C926.744 385.912 949.194 391.149 962.559 406.687C980.082 427.246 976.629 456.626 956.027 470.017C956.027 470.017 955.873 470.118 955.719 470.219C943.057 478.755 949.103 499.56 964.807 502.177C1008.95 509.625 1050.34 512.778 1086.2 511.687C1082.71 475.703 1082.83 434.422 1087.19 390.71C1088.71 375.157 1109.31 370.461 1118.6 383.851C1118.6 383.851 1118.72 384.013 1118.83 384.174C1133.71 405.762 1163.41 411.289 1182.8 395.176C1197.57 382.907 1201.09 360.879 1191.29 342.889C1178.4 319.172 1148.94 311.255 1128.34 324.645C1128.18 324.746 1128.03 324.847 1127.87 324.948C1114.88 333.001 1097.42 319.794 1100.8 304.665C1110.24 261.969 1122.72 223.498 1137.21 191.462Z" fill="url(#paint1_linear_930_8903)"/>
<path d="M1137.21 191.462C1104.04 174.821 1064.6 159.474 1021.12 147.013C1005.71 142.56 993.694 159.125 1002.68 172.717C1002.8 172.879 1002.91 173.04 1003.02 173.201C1018.03 194.82 1012.03 223.757 989.154 235C971.936 243.589 949.486 238.352 936.121 222.814C918.599 202.256 922.051 172.875 942.654 159.485C942.654 159.485 942.808 159.384 942.962 159.283C955.624 150.746 949.577 129.942 933.874 127.325C889.73 119.876 848.345 116.723 812.482 117.814C815.967 153.799 815.85 195.079 811.486 238.792C809.967 254.344 789.375 259.041 780.077 245.65C780.077 245.65 779.965 245.489 779.853 245.328C764.975 223.739 735.267 218.212 715.883 234.325C701.109 246.595 697.591 268.623 707.394 286.612C720.279 310.329 749.742 318.247 770.345 304.856C770.499 304.755 770.653 304.654 770.807 304.554C783.805 296.501 801.262 309.707 797.881 324.837C788.444 367.532 775.961 406.003 761.474 438.04C794.642 454.68 834.079 470.027 877.56 482.489C892.971 486.941 904.986 470.377 895.996 456.784C895.884 456.623 895.772 456.462 895.66 456.3C880.649 434.682 886.649 405.744 909.527 394.501C926.744 385.912 949.194 391.149 962.559 406.687C980.082 427.246 976.629 456.626 956.027 470.017C956.027 470.017 955.873 470.118 955.719 470.219C943.057 478.755 949.103 499.56 964.807 502.177C1008.95 509.625 1050.34 512.778 1086.2 511.687C1082.71 475.703 1082.83 434.422 1087.19 390.71C1088.71 375.157 1109.31 370.461 1118.6 383.851C1118.6 383.851 1118.72 384.013 1118.83 384.174C1133.71 405.762 1163.41 411.289 1182.8 395.176C1197.57 382.907 1201.09 360.879 1191.29 342.889C1178.4 319.172 1148.94 311.255 1128.34 324.645C1128.18 324.746 1128.03 324.847 1127.87 324.948C1114.88 333.001 1097.42 319.794 1100.8 304.665C1110.24 261.969 1122.72 223.498 1137.21 191.462Z" stroke="white" stroke-width="5" stroke-miterlimit="10"/>
</g>
<g filter="url(#filter2_d_930_8903)">
<path d="M1591.21 336.462C1558.04 319.821 1518.6 304.474 1475.12 292.013C1459.71 287.56 1447.69 304.125 1456.68 317.717C1456.8 317.879 1456.91 318.04 1457.02 318.201C1472.03 339.82 1466.03 368.757 1443.15 380C1425.94 388.589 1403.49 383.352 1390.12 367.814C1372.6 347.256 1376.05 317.875 1396.65 304.485C1396.65 304.485 1396.81 304.384 1396.96 304.283C1409.62 295.746 1403.58 274.942 1387.87 272.325C1343.73 264.876 1302.34 261.723 1266.48 262.814C1269.97 298.799 1269.85 340.079 1265.49 383.792C1263.97 399.344 1243.37 404.041 1234.08 390.65C1234.08 390.65 1233.96 390.489 1233.85 390.328C1218.97 368.739 1189.27 363.212 1169.88 379.325C1155.11 391.595 1151.59 413.623 1161.39 431.612C1174.28 455.329 1203.74 463.247 1224.34 449.856C1224.5 449.755 1224.65 449.654 1224.81 449.554C1237.81 441.501 1255.26 454.707 1251.88 469.837C1242.44 512.532 1229.96 551.003 1215.47 583.04C1248.64 599.68 1288.08 615.027 1331.56 627.489C1346.97 631.941 1358.99 615.377 1350 601.784C1349.88 601.623 1349.77 601.462 1349.66 601.3C1334.65 579.682 1340.65 550.744 1363.53 539.501C1380.74 530.912 1403.19 536.149 1416.56 551.687C1434.08 572.246 1430.63 601.626 1410.03 615.017C1410.03 615.017 1409.87 615.118 1409.72 615.219C1397.06 623.755 1403.1 644.56 1418.81 647.177C1462.95 654.625 1504.34 657.778 1540.2 656.687C1536.71 620.703 1536.83 579.422 1541.19 535.71C1542.71 520.157 1563.31 515.461 1572.6 528.851C1572.6 528.851 1572.72 529.013 1572.83 529.174C1587.71 550.762 1617.41 556.289 1636.8 540.176C1651.57 527.907 1655.09 505.879 1645.29 487.889C1632.4 464.172 1602.94 456.255 1582.34 469.645C1582.18 469.746 1582.03 469.847 1581.87 469.948C1568.88 478.001 1551.42 464.794 1554.8 449.665C1564.24 406.969 1576.72 368.498 1591.21 336.462Z" fill="url(#paint2_linear_930_8903)"/>
<path d="M1591.21 336.462C1558.04 319.821 1518.6 304.474 1475.12 292.013C1459.71 287.56 1447.69 304.125 1456.68 317.717C1456.8 317.879 1456.91 318.04 1457.02 318.201C1472.03 339.82 1466.03 368.757 1443.15 380C1425.94 388.589 1403.49 383.352 1390.12 367.814C1372.6 347.256 1376.05 317.875 1396.65 304.485C1396.65 304.485 1396.81 304.384 1396.96 304.283C1409.62 295.746 1403.58 274.942 1387.87 272.325C1343.73 264.876 1302.34 261.723 1266.48 262.814C1269.97 298.799 1269.85 340.079 1265.49 383.792C1263.97 399.344 1243.37 404.041 1234.08 390.65C1234.08 390.65 1233.96 390.489 1233.85 390.328C1218.97 368.739 1189.27 363.212 1169.88 379.325C1155.11 391.595 1151.59 413.623 1161.39 431.612C1174.28 455.329 1203.74 463.247 1224.34 449.856C1224.5 449.755 1224.65 449.654 1224.81 449.554C1237.81 441.501 1255.26 454.707 1251.88 469.837C1242.44 512.532 1229.96 551.003 1215.47 583.04C1248.64 599.68 1288.08 615.027 1331.56 627.489C1346.97 631.941 1358.99 615.377 1350 601.784C1349.88 601.623 1349.77 601.462 1349.66 601.3C1334.65 579.682 1340.65 550.744 1363.53 539.501C1380.74 530.912 1403.19 536.149 1416.56 551.687C1434.08 572.246 1430.63 601.626 1410.03 615.017C1410.03 615.017 1409.87 615.118 1409.72 615.219C1397.06 623.755 1403.1 644.56 1418.81 647.177C1462.95 654.625 1504.34 657.778 1540.2 656.687C1536.71 620.703 1536.83 579.422 1541.19 535.71C1542.71 520.157 1563.31 515.461 1572.6 528.851C1572.6 528.851 1572.72 529.013 1572.83 529.174C1587.71 550.762 1617.41 556.289 1636.8 540.176C1651.57 527.907 1655.09 505.879 1645.29 487.889C1632.4 464.172 1602.94 456.255 1582.34 469.645C1582.18 469.746 1582.03 469.847 1581.87 469.948C1568.88 478.001 1551.42 464.794 1554.8 449.665C1564.24 406.969 1576.72 368.498 1591.21 336.462Z" stroke="white" stroke-width="5" stroke-miterlimit="10"/>
</g>
<g filter="url(#filter3_d_930_8903)">
<path d="M367.761 49.0098C351.561 56.3279 333.949 66.3687 316.191 78.7848C309.884 83.1744 312.421 92.6437 320.191 93.401C320.284 93.408 320.378 93.415 320.472 93.4221C333.045 94.3614 342.001 105.327 339.279 117.231C337.279 126.229 328.555 133.001 318.741 133.284C305.804 133.599 295.915 123.448 297.151 111.742C297.151 111.742 297.16 111.654 297.169 111.566C297.814 104.279 288.249 100.25 282.536 105.303C266.443 119.478 252.781 133.924 242.364 147.595C256.803 157.159 272.126 169.66 287.072 184.475C292.4 189.734 287.933 198.813 280.145 198.231C280.145 198.231 280.051 198.224 279.957 198.217C267.435 197.237 256.414 206.621 256.559 218.696C256.665 227.895 263.799 235.852 273.45 237.634C286.162 239.997 297.999 231.425 299.235 219.719C299.244 219.631 299.253 219.544 299.262 219.456C300.189 212.19 310.37 209.681 314.979 215.504C328.015 231.9 338.561 248.154 346.108 263.212C362.309 255.894 379.92 245.853 397.678 233.437C403.985 229.048 401.449 219.579 393.679 218.821C393.585 218.814 393.491 218.807 393.397 218.8C380.824 217.861 371.869 206.896 374.59 194.991C376.591 185.993 385.314 179.221 395.128 178.938C408.065 178.623 417.954 188.774 416.718 200.481C416.718 200.481 416.709 200.568 416.7 200.656C416.055 207.943 425.62 211.972 431.333 206.919C447.426 192.744 461.088 178.299 471.505 164.627C457.066 155.064 441.743 142.562 426.797 127.747C421.47 122.488 425.936 113.41 433.724 113.991C433.724 113.991 433.818 113.998 433.912 114.005C446.434 114.985 457.455 105.601 457.31 93.5264C457.205 84.3271 450.071 76.3703 440.419 74.5887C427.707 72.2248 415.87 80.797 414.634 92.5032C414.625 92.5909 414.617 92.6786 414.608 92.7663C413.681 100.032 403.499 102.542 398.891 96.718C385.854 80.3219 375.308 64.0677 367.761 49.0098Z" fill="url(#paint3_linear_930_8903)"/>
<path d="M367.761 49.0098C351.561 56.3279 333.949 66.3687 316.191 78.7848C309.884 83.1744 312.421 92.6437 320.191 93.401C320.284 93.408 320.378 93.415 320.472 93.4221C333.045 94.3614 342.001 105.327 339.279 117.231C337.279 126.229 328.555 133.001 318.741 133.284C305.804 133.599 295.915 123.448 297.151 111.742C297.151 111.742 297.16 111.654 297.169 111.566C297.814 104.279 288.249 100.25 282.536 105.303C266.443 119.478 252.781 133.924 242.364 147.595C256.803 157.159 272.126 169.66 287.072 184.475C292.4 189.734 287.933 198.813 280.145 198.231C280.145 198.231 280.051 198.224 279.957 198.217C267.435 197.237 256.414 206.621 256.559 218.696C256.665 227.895 263.799 235.852 273.45 237.634C286.162 239.997 297.999 231.425 299.235 219.719C299.244 219.631 299.253 219.544 299.262 219.456C300.189 212.19 310.37 209.681 314.979 215.504C328.015 231.9 338.561 248.154 346.108 263.212C362.309 255.894 379.92 245.853 397.678 233.437C403.985 229.048 401.449 219.579 393.679 218.821C393.585 218.814 393.491 218.807 393.397 218.8C380.824 217.861 371.869 206.896 374.59 194.991C376.591 185.993 385.314 179.221 395.128 178.938C408.065 178.623 417.954 188.774 416.718 200.481C416.718 200.481 416.709 200.568 416.7 200.656C416.055 207.943 425.62 211.972 431.333 206.919C447.426 192.744 461.088 178.299 471.505 164.627C457.066 155.064 441.743 142.562 426.797 127.747C421.47 122.488 425.936 113.41 433.724 113.991C433.724 113.991 433.818 113.998 433.912 114.005C446.434 114.985 457.455 105.601 457.31 93.5264C457.205 84.3271 450.071 76.3703 440.419 74.5887C427.707 72.2248 415.87 80.797 414.634 92.5032C414.625 92.5909 414.617 92.6786 414.608 92.7663C413.681 100.032 403.499 102.542 398.891 96.718C385.854 80.3219 375.308 64.0677 367.761 49.0098Z" stroke="white" stroke-width="5" stroke-miterlimit="10"/>
</g>
<g filter="url(#filter4_d_930_8903)">
<path d="M4.07543 306.656C40.1061 297.778 81.9637 291.551 127.125 289.033C143.139 288.106 151.186 306.921 139.407 318.183C139.262 318.316 139.117 318.448 138.972 318.581C119.544 336.336 118.983 365.884 138.801 381.916C153.688 394.107 176.741 393.974 193.216 381.784C214.858 365.619 218.002 336.204 200.878 318.581C200.878 318.581 200.75 318.448 200.622 318.316C190.166 307.186 200.672 288.238 216.565 289.166C261.262 291.683 302.317 297.778 337.047 306.788C325.675 341.106 316.643 381.387 311.213 424.979C309.248 440.482 328.288 449.625 340.322 438.627C340.322 438.627 340.467 438.495 340.612 438.362C359.904 420.607 390.097 421.799 405.429 441.807C417.118 457.045 415.668 479.305 402.122 494.675C384.302 514.948 353.817 516.14 336.694 498.518C336.566 498.385 336.438 498.253 336.31 498.12C325.419 487.388 305.47 496.398 305.415 511.9C305.158 555.626 308.806 595.906 315.834 630.357C279.804 639.234 237.946 645.462 192.785 647.979C176.771 648.907 168.725 630.092 180.503 618.829C180.648 618.696 180.793 618.564 180.938 618.431C200.366 600.676 200.927 571.128 181.109 555.096C166.222 542.906 143.169 543.038 126.695 555.228C105.052 571.393 101.909 600.809 119.032 618.431C119.032 618.431 119.16 618.564 119.288 618.696C129.744 629.826 119.238 648.774 103.344 647.847C58.6475 645.329 17.5928 639.234 -17.1364 630.224C-5.76526 595.906 3.26692 555.626 8.69713 512.033C10.6614 496.53 -8.37802 487.387 -20.4118 498.385C-20.4118 498.385 -20.5571 498.518 -20.7021 498.65C-39.9938 516.405 -70.1869 515.213 -85.5191 495.205C-97.2076 479.968 -95.7578 457.707 -82.212 442.337C-64.3925 422.064 -33.9076 420.872 -16.7838 438.495C-16.6561 438.627 -16.5284 438.76 -16.4007 438.892C-5.50954 449.625 14.44 440.615 14.4952 425.112C14.7526 381.386 11.1036 341.106 4.07543 306.656Z" fill="url(#paint4_linear_930_8903)"/>
<path d="M4.07543 306.656C40.1061 297.778 81.9637 291.551 127.125 289.033C143.139 288.106 151.186 306.921 139.407 318.183C139.262 318.316 139.117 318.448 138.972 318.581C119.544 336.336 118.983 365.884 138.801 381.916C153.688 394.107 176.741 393.974 193.216 381.784C214.858 365.619 218.002 336.204 200.878 318.581C200.878 318.581 200.75 318.448 200.622 318.316C190.166 307.186 200.672 288.238 216.565 289.166C261.262 291.683 302.317 297.778 337.047 306.788C325.675 341.106 316.643 381.387 311.213 424.979C309.248 440.482 328.288 449.625 340.322 438.627C340.322 438.627 340.467 438.495 340.612 438.362C359.904 420.607 390.097 421.799 405.429 441.807C417.118 457.045 415.668 479.305 402.122 494.675C384.302 514.948 353.817 516.14 336.694 498.518C336.566 498.385 336.438 498.253 336.31 498.12C325.419 487.388 305.47 496.398 305.415 511.9C305.158 555.626 308.806 595.906 315.834 630.357C279.804 639.234 237.946 645.462 192.785 647.979C176.771 648.907 168.725 630.092 180.503 618.829C180.648 618.696 180.793 618.564 180.938 618.431C200.366 600.676 200.927 571.128 181.109 555.096C166.222 542.906 143.169 543.038 126.695 555.228C105.052 571.393 101.909 600.809 119.032 618.431C119.032 618.431 119.16 618.564 119.288 618.696C129.744 629.826 119.238 648.774 103.344 647.847C58.6475 645.329 17.5928 639.234 -17.1364 630.224C-5.76526 595.906 3.26692 555.626 8.69713 512.033C10.6614 496.53 -8.37802 487.387 -20.4118 498.385C-20.4118 498.385 -20.5571 498.518 -20.7021 498.65C-39.9938 516.405 -70.1869 515.213 -85.5191 495.205C-97.2076 479.968 -95.7578 457.707 -82.212 442.337C-64.3925 422.064 -33.9076 420.872 -16.7838 438.495C-16.6561 438.627 -16.5284 438.76 -16.4007 438.892C-5.50954 449.625 14.44 440.615 14.4952 425.112C14.7526 381.386 11.1036 341.106 4.07543 306.656Z" stroke="white" stroke-width="5" stroke-miterlimit="10"/>
</g>
<g filter="url(#filter5_d_930_8903)">
<path d="M1471.02 436.993C1490.79 411.42 1515.97 384.499 1545.42 358.32C1555.84 349.013 1571.52 357.49 1569.59 371.553C1569.56 371.722 1569.53 371.891 1569.5 372.06C1565.87 394.696 1581.49 415.157 1603.69 415.359C1620.45 415.612 1636.11 403.035 1640.74 385.795C1646.75 363.044 1632.96 341.275 1611.74 338.528C1611.74 338.528 1611.58 338.507 1611.42 338.486C1598.26 336.557 1595.16 317.94 1606.5 309.964C1638.36 287.471 1669.67 269.392 1698.24 256.727C1709.07 286.297 1724.73 318.669 1744.64 351.348C1751.69 362.988 1769.63 358.912 1771.89 344.891C1771.89 344.891 1771.91 344.722 1771.94 344.553C1775.48 321.992 1796.73 306.451 1818.02 311.795C1834.25 315.859 1845.32 331.83 1844.4 349.652C1843.23 373.134 1823.08 390.46 1801.85 387.713C1801.69 387.692 1801.53 387.671 1801.37 387.65C1788.13 386.227 1779.4 403.179 1787.76 413.785C1811.27 443.753 1835.58 469.256 1859.03 488.95C1839.26 514.523 1814.08 541.444 1784.64 567.623C1774.21 576.93 1758.53 568.453 1760.47 554.39C1760.5 554.221 1760.52 554.052 1760.55 553.883C1764.19 531.247 1748.56 510.786 1726.36 510.584C1709.6 510.331 1693.95 522.908 1689.31 540.148C1683.3 562.898 1697.09 584.668 1718.32 587.414C1718.32 587.414 1718.48 587.436 1718.64 587.457C1731.8 589.386 1734.89 608.003 1723.55 615.979C1691.69 638.471 1660.39 656.551 1631.81 669.216C1620.98 639.645 1605.33 607.274 1585.42 574.595C1578.36 562.955 1560.42 567.031 1558.17 581.051C1558.17 581.051 1558.14 581.221 1558.11 581.39C1554.57 603.951 1533.33 619.492 1512.03 614.148C1495.8 610.084 1484.73 594.113 1485.65 576.291C1486.82 552.809 1506.98 535.483 1528.2 538.23C1528.36 538.251 1528.52 538.272 1528.68 538.294C1541.92 539.716 1550.65 522.763 1542.29 512.158C1518.78 482.19 1494.48 456.687 1471.02 436.993Z" fill="#9AE2FF"/>
<path d="M1471.02 436.993C1490.79 411.42 1515.97 384.499 1545.42 358.32C1555.84 349.013 1571.52 357.49 1569.59 371.553C1569.56 371.722 1569.53 371.891 1569.5 372.06C1565.87 394.696 1581.49 415.157 1603.69 415.359C1620.45 415.612 1636.11 403.035 1640.74 385.795C1646.75 363.044 1632.96 341.275 1611.74 338.528C1611.74 338.528 1611.58 338.507 1611.42 338.486C1598.26 336.557 1595.16 317.94 1606.5 309.964C1638.36 287.471 1669.67 269.392 1698.24 256.727C1709.07 286.297 1724.73 318.669 1744.64 351.348C1751.69 362.988 1769.63 358.912 1771.89 344.891C1771.89 344.891 1771.91 344.722 1771.94 344.553C1775.48 321.992 1796.73 306.451 1818.02 311.795C1834.25 315.859 1845.32 331.83 1844.4 349.652C1843.23 373.134 1823.08 390.46 1801.85 387.713C1801.69 387.692 1801.53 387.671 1801.37 387.65C1788.13 386.227 1779.4 403.179 1787.76 413.785C1811.27 443.753 1835.58 469.256 1859.03 488.95C1839.26 514.523 1814.08 541.444 1784.64 567.623C1774.21 576.93 1758.53 568.453 1760.47 554.39C1760.5 554.221 1760.52 554.052 1760.55 553.883C1764.19 531.247 1748.56 510.786 1726.36 510.584C1709.6 510.331 1693.95 522.908 1689.31 540.148C1683.3 562.898 1697.09 584.668 1718.32 587.414C1718.32 587.414 1718.48 587.436 1718.64 587.457C1731.8 589.386 1734.89 608.003 1723.55 615.979C1691.69 638.471 1660.39 656.551 1631.81 669.216C1620.98 639.645 1605.33 607.274 1585.42 574.595C1578.36 562.955 1560.42 567.031 1558.17 581.051C1558.17 581.051 1558.14 581.221 1558.11 581.39C1554.57 603.951 1533.33 619.492 1512.03 614.148C1495.8 610.084 1484.73 594.113 1485.65 576.291C1486.82 552.809 1506.98 535.483 1528.2 538.23C1528.36 538.251 1528.52 538.272 1528.68 538.294C1541.92 539.716 1550.65 522.763 1542.29 512.158C1518.78 482.19 1494.48 456.687 1471.02 436.993Z" stroke="white" stroke-width="5" stroke-miterlimit="10"/>
</g>
<g filter="url(#filter6_d_930_8903)">
<path d="M1385.55 54.5939C1402.21 59.6185 1420.59 67.1043 1439.42 76.8763C1446.1 80.3273 1444.85 89.8417 1437.41 91.5729C1437.32 91.5917 1437.23 91.6105 1437.14 91.6293C1425.06 94.153 1417.77 105.942 1421.94 117.145C1425.04 125.62 1434.37 131.074 1443.93 130.09C1456.52 128.737 1464.82 117.618 1462.12 106.417C1462.12 106.417 1462.1 106.333 1462.08 106.249C1460.52 99.26 1469.28 94.124 1475.48 98.2947C1492.91 109.988 1508.02 122.254 1519.88 134.186C1507.1 145.317 1493.83 159.413 1481.23 175.707C1476.73 181.493 1482.23 189.73 1489.71 188.167C1489.71 188.167 1489.8 188.148 1489.89 188.129C1501.92 185.573 1513.82 193.267 1515.22 205.003C1516.3 213.944 1510.4 222.579 1501.26 225.546C1489.23 229.47 1476.64 222.669 1473.94 211.467C1473.92 211.383 1473.9 211.299 1473.88 211.215C1472.05 204.283 1461.85 203.153 1458.12 209.396C1447.57 226.978 1439.42 244.104 1434.03 259.684C1417.37 254.659 1398.99 247.173 1380.17 237.401C1373.49 233.95 1374.73 224.436 1382.18 222.705C1382.27 222.686 1382.36 222.667 1382.45 222.648C1394.53 220.125 1401.81 208.336 1397.64 197.132C1394.55 188.657 1385.22 183.204 1375.66 184.188C1363.06 185.541 1354.77 196.659 1357.47 207.861C1357.47 207.861 1357.49 207.945 1357.51 208.029C1359.07 215.018 1350.3 220.154 1344.11 215.983C1326.68 204.29 1311.56 192.024 1299.7 180.092C1312.49 168.961 1325.76 154.864 1338.36 138.571C1342.86 132.785 1337.36 124.547 1329.87 126.111C1329.87 126.111 1329.78 126.129 1329.69 126.148C1317.67 128.704 1305.77 121.011 1304.36 109.275C1303.29 100.334 1309.19 91.6982 1318.33 88.7318C1330.36 84.8081 1342.94 91.609 1345.64 102.81C1345.66 102.894 1345.68 102.978 1345.7 103.062C1347.54 109.995 1357.74 111.124 1361.46 104.882C1372.01 87.2995 1380.16 70.1741 1385.55 54.5939Z" fill="#9AE2FF"/>
<path d="M1385.55 54.5939C1402.21 59.6185 1420.59 67.1043 1439.42 76.8763C1446.1 80.3273 1444.85 89.8417 1437.41 91.5729C1437.32 91.5917 1437.23 91.6105 1437.14 91.6293C1425.06 94.153 1417.77 105.942 1421.94 117.145C1425.04 125.62 1434.37 131.074 1443.93 130.09C1456.52 128.737 1464.82 117.618 1462.12 106.417C1462.12 106.417 1462.1 106.333 1462.08 106.249C1460.52 99.26 1469.28 94.124 1475.48 98.2947C1492.91 109.988 1508.02 122.254 1519.88 134.186C1507.1 145.317 1493.83 159.413 1481.23 175.707C1476.73 181.493 1482.23 189.73 1489.71 188.167C1489.71 188.167 1489.8 188.148 1489.89 188.129C1501.92 185.573 1513.82 193.267 1515.22 205.003C1516.3 213.944 1510.4 222.579 1501.26 225.546C1489.23 229.47 1476.64 222.669 1473.94 211.467C1473.92 211.383 1473.9 211.299 1473.88 211.215C1472.05 204.283 1461.85 203.153 1458.12 209.396C1447.57 226.978 1439.42 244.104 1434.03 259.684C1417.37 254.659 1398.99 247.173 1380.17 237.401C1373.49 233.95 1374.73 224.436 1382.18 222.705C1382.27 222.686 1382.36 222.667 1382.45 222.648C1394.53 220.125 1401.81 208.336 1397.64 197.132C1394.55 188.657 1385.22 183.204 1375.66 184.188C1363.06 185.541 1354.77 196.659 1357.47 207.861C1357.47 207.861 1357.49 207.945 1357.51 208.029C1359.07 215.018 1350.3 220.154 1344.11 215.983C1326.68 204.29 1311.56 192.024 1299.7 180.092C1312.49 168.961 1325.76 154.864 1338.36 138.571C1342.86 132.785 1337.36 124.547 1329.87 126.111C1329.87 126.111 1329.78 126.129 1329.69 126.148C1317.67 128.704 1305.77 121.011 1304.36 109.275C1303.29 100.334 1309.19 91.6982 1318.33 88.7318C1330.36 84.8081 1342.94 91.609 1345.64 102.81C1345.66 102.894 1345.68 102.978 1345.7 103.062C1347.54 109.995 1357.74 111.124 1361.46 104.882C1372.01 87.2995 1380.16 70.1741 1385.55 54.5939Z" stroke="white" stroke-width="5" stroke-miterlimit="10"/>
</g>
<g filter="url(#filter7_d_930_8903)">
<path d="M-55.3403 336.647C-52.7848 305.87 -46.593 271.2 -36.5984 234.908C-33.0818 222.03 -16.1052 220.674 -10.3456 232.953C-10.2796 233.102 -10.2135 233.252 -10.1475 233.401C-1.29577 253.437 21.8633 261.718 39.7677 250.338C53.3327 241.829 59.3435 223.609 54.0982 207.38C47.0882 186.019 24.7188 175.736 6.27501 184.569C6.27501 184.569 6.13649 184.635 5.99809 184.7C-5.55543 189.996 -17.7146 176.682 -12.7668 164.391C1.07646 129.801 16.7757 99.0324 33.0961 74.0276C57.1501 92.1013 86.528 109.912 119.474 125.76C131.182 131.422 143.445 118.828 137.962 106.418C137.962 106.418 137.896 106.269 137.83 106.12C128.942 86.1916 137.893 62.6908 157.743 55.9042C172.863 50.7263 190.038 57.7755 198.569 72.5382C209.833 91.9726 202.686 116.336 184.243 125.169C184.104 125.234 183.966 125.3 183.827 125.365C172.472 131.109 174.287 149.236 186.501 153.392C220.925 165.195 253.667 173.002 282.706 176.598C280.151 207.374 273.959 242.045 263.964 278.337C260.448 291.215 243.471 292.571 237.712 280.292C237.646 280.142 237.58 279.993 237.514 279.843C228.662 259.808 205.503 251.527 187.598 262.906C174.033 271.416 168.023 289.635 173.268 305.865C180.278 327.225 202.647 337.508 221.091 328.675C221.091 328.675 221.229 328.61 221.368 328.544C232.921 323.249 245.081 336.563 240.133 348.854C226.29 383.444 210.59 414.212 194.27 439.217C170.216 421.143 140.838 403.332 107.892 387.485C96.1838 381.822 83.9211 394.416 89.4039 406.826C89.4039 406.826 89.4699 406.976 89.536 407.125C98.4239 427.053 89.4735 450.554 69.6237 457.34C54.5031 462.518 37.3283 455.469 28.7975 440.706C17.5332 421.272 24.6797 396.909 43.1235 388.076C43.2619 388.01 43.4003 387.945 43.5387 387.879C54.894 382.135 53.0788 364.008 40.8647 359.852C6.4414 348.05 -26.3006 340.242 -55.3403 336.647Z" fill="#52A8F2"/>
<path d="M-55.3403 336.647C-52.7848 305.87 -46.593 271.2 -36.5984 234.908C-33.0818 222.03 -16.1052 220.674 -10.3456 232.953C-10.2796 233.102 -10.2135 233.252 -10.1475 233.401C-1.29577 253.437 21.8633 261.718 39.7677 250.338C53.3327 241.829 59.3435 223.609 54.0982 207.38C47.0882 186.019 24.7188 175.736 6.27501 184.569C6.27501 184.569 6.13649 184.635 5.99809 184.7C-5.55543 189.996 -17.7146 176.682 -12.7668 164.391C1.07646 129.801 16.7757 99.0324 33.0961 74.0276C57.1501 92.1013 86.528 109.912 119.474 125.76C131.182 131.422 143.445 118.828 137.962 106.418C137.962 106.418 137.896 106.269 137.83 106.12C128.942 86.1916 137.893 62.6908 157.743 55.9042C172.863 50.7263 190.038 57.7755 198.569 72.5382C209.833 91.9726 202.686 116.336 184.243 125.169C184.104 125.234 183.966 125.3 183.827 125.365C172.472 131.109 174.287 149.236 186.501 153.392C220.925 165.195 253.667 173.002 282.706 176.598C280.151 207.374 273.959 242.045 263.964 278.337C260.448 291.215 243.471 292.571 237.712 280.292C237.646 280.142 237.58 279.993 237.514 279.843C228.662 259.808 205.503 251.527 187.598 262.906C174.033 271.416 168.023 289.635 173.268 305.865C180.278 327.225 202.647 337.508 221.091 328.675C221.091 328.675 221.229 328.61 221.368 328.544C232.921 323.249 245.081 336.563 240.133 348.854C226.29 383.444 210.59 414.212 194.27 439.217C170.216 421.143 140.838 403.332 107.892 387.485C96.1838 381.822 83.9211 394.416 89.4039 406.826C89.4039 406.826 89.4699 406.976 89.536 407.125C98.4239 427.053 89.4735 450.554 69.6237 457.34C54.5031 462.518 37.3283 455.469 28.7975 440.706C17.5332 421.272 24.6797 396.909 43.1235 388.076C43.2619 388.01 43.4003 387.945 43.5387 387.879C54.894 382.135 53.0788 364.008 40.8647 359.852C6.4414 348.05 -26.3006 340.242 -55.3403 336.647Z" stroke="white" stroke-width="5" stroke-miterlimit="10"/>
</g>
<g filter="url(#filter8_d_930_8903)">
<path d="M320.66 453.647C323.215 422.87 329.407 388.2 339.402 351.908C342.918 339.03 359.895 337.674 365.654 349.953C365.72 350.102 365.786 350.252 365.853 350.401C374.704 370.437 397.863 378.718 415.768 367.338C429.333 358.829 435.344 340.609 430.098 324.38C423.088 303.019 400.719 292.736 382.275 301.569C382.275 301.569 382.136 301.635 381.998 301.7C370.445 306.996 358.285 293.682 363.233 281.391C377.076 246.801 392.776 216.032 409.096 191.028C433.15 209.101 462.528 226.912 495.474 242.76C507.182 248.422 519.445 235.828 513.962 223.418C513.962 223.418 513.896 223.269 513.83 223.12C504.942 203.192 513.893 179.691 533.743 172.904C548.863 167.726 566.038 174.775 574.569 189.538C585.833 208.973 578.686 233.336 560.243 242.169C560.104 242.234 559.966 242.3 559.827 242.365C548.472 248.109 550.287 266.236 562.501 270.392C596.925 282.195 629.667 290.002 658.706 293.598C656.151 324.374 649.959 359.045 639.964 395.337C636.448 408.215 619.471 409.571 613.712 397.292C613.646 397.142 613.58 396.993 613.514 396.843C604.662 376.808 581.503 368.527 563.598 379.906C550.033 388.416 544.023 406.635 549.268 422.865C556.278 444.225 578.647 454.508 597.091 445.675C597.091 445.675 597.229 445.61 597.368 445.544C608.921 440.249 621.081 453.563 616.133 465.854C602.29 500.444 586.59 531.212 570.27 556.217C546.216 538.143 516.838 520.332 483.892 504.485C472.184 498.822 459.921 511.416 465.404 523.826C465.404 523.826 465.47 523.976 465.536 524.125C474.424 544.053 465.474 567.554 445.624 574.34C430.503 579.518 413.328 572.469 404.798 557.706C393.533 538.272 400.68 513.909 419.123 505.076C419.262 505.01 419.4 504.945 419.539 504.879C430.894 499.135 429.079 481.008 416.865 476.852C382.441 465.05 349.699 457.242 320.66 453.647Z" fill="#52A8F2"/>
<path d="M320.66 453.647C323.215 422.87 329.407 388.2 339.402 351.908C342.918 339.03 359.895 337.674 365.654 349.953C365.72 350.102 365.786 350.252 365.853 350.401C374.704 370.437 397.863 378.718 415.768 367.338C429.333 358.829 435.344 340.609 430.098 324.38C423.088 303.019 400.719 292.736 382.275 301.569C382.275 301.569 382.136 301.635 381.998 301.7C370.445 306.996 358.285 293.682 363.233 281.391C377.076 246.801 392.776 216.032 409.096 191.028C433.15 209.101 462.528 226.912 495.474 242.76C507.182 248.422 519.445 235.828 513.962 223.418C513.962 223.418 513.896 223.269 513.83 223.12C504.942 203.192 513.893 179.691 533.743 172.904C548.863 167.726 566.038 174.775 574.569 189.538C585.833 208.973 578.686 233.336 560.243 242.169C560.104 242.234 559.966 242.3 559.827 242.365C548.472 248.109 550.287 266.236 562.501 270.392C596.925 282.195 629.667 290.002 658.706 293.598C656.151 324.374 649.959 359.045 639.964 395.337C636.448 408.215 619.471 409.571 613.712 397.292C613.646 397.142 613.58 396.993 613.514 396.843C604.662 376.808 581.503 368.527 563.598 379.906C550.033 388.416 544.023 406.635 549.268 422.865C556.278 444.225 578.647 454.508 597.091 445.675C597.091 445.675 597.229 445.61 597.368 445.544C608.921 440.249 621.081 453.563 616.133 465.854C602.29 500.444 586.59 531.212 570.27 556.217C546.216 538.143 516.838 520.332 483.892 504.485C472.184 498.822 459.921 511.416 465.404 523.826C465.404 523.826 465.47 523.976 465.536 524.125C474.424 544.053 465.474 567.554 445.624 574.34C430.503 579.518 413.328 572.469 404.798 557.706C393.533 538.272 400.68 513.909 419.123 505.076C419.262 505.01 419.4 504.945 419.539 504.879C430.894 499.135 429.079 481.008 416.865 476.852C382.441 465.05 349.699 457.242 320.66 453.647Z" stroke="white" stroke-width="5" stroke-miterlimit="10"/>
</g>
<g filter="url(#filter9_d_930_8903)">
<path d="M678.114 446.402C703.6 422.872 735.053 398.882 770.884 376.437C783.574 368.449 798.653 380.219 794.096 394.755C794.037 394.928 793.978 395.102 793.919 395.276C786.03 418.579 798.907 443.019 822.366 447.198C840.055 450.457 858.865 439.943 866.848 422.529C877.268 399.528 866.564 374.031 844.593 367.334C844.593 367.334 844.428 367.284 844.264 367.233C830.681 362.842 830.729 342.589 844.157 336.175C881.881 318.061 918.239 304.52 950.734 296.219C956.915 329.443 967.703 366.493 982.934 404.628C988.324 418.204 1008.04 417.094 1012.92 402.66C1012.92 402.66 1012.98 402.486 1013.04 402.312C1020.82 379.071 1046.07 366.419 1067.65 375.876C1084.1 383.073 1092.96 401.949 1088.81 420.645C1083.37 445.283 1058.96 460.019 1036.98 453.323C1036.82 453.272 1036.66 453.221 1036.49 453.17C1022.73 449.301 1010.47 465.68 1017.42 478.395C1036.95 514.304 1058.11 545.629 1079.42 570.657C1053.93 594.187 1022.48 618.177 986.647 640.622C973.957 648.61 958.878 636.84 963.436 622.305C963.495 622.131 963.554 621.957 963.613 621.783C971.502 598.48 958.624 574.04 935.165 569.861C917.477 566.602 898.667 577.116 890.683 594.53C880.263 617.531 890.967 643.028 912.939 649.725C912.939 649.725 913.103 649.776 913.267 649.826C926.85 654.218 926.802 674.47 913.374 680.884C875.65 698.998 839.293 712.539 806.798 720.839C800.616 687.615 789.828 650.566 774.597 612.432C769.208 598.855 749.496 599.965 744.609 614.399C744.609 614.399 744.55 614.573 744.491 614.747C736.714 637.988 711.46 650.64 689.879 641.183C673.434 633.986 664.573 615.11 668.723 596.414C674.16 571.776 698.575 557.04 720.547 563.737C720.711 563.788 720.875 563.838 721.04 563.889C734.799 567.759 747.062 551.379 740.11 538.664C720.585 502.755 699.417 471.43 678.114 446.402Z" fill="#6393F2"/>
<path d="M678.114 446.402C703.6 422.872 735.053 398.882 770.884 376.437C783.574 368.449 798.653 380.219 794.096 394.755C794.037 394.928 793.978 395.102 793.919 395.276C786.03 418.579 798.907 443.019 822.366 447.198C840.055 450.457 858.865 439.943 866.848 422.529C877.268 399.528 866.564 374.031 844.593 367.334C844.593 367.334 844.428 367.284 844.264 367.233C830.681 362.842 830.729 342.589 844.157 336.175C881.881 318.061 918.239 304.52 950.734 296.219C956.915 329.443 967.703 366.493 982.934 404.628C988.324 418.204 1008.04 417.094 1012.92 402.66C1012.92 402.66 1012.98 402.486 1013.04 402.312C1020.82 379.071 1046.07 366.419 1067.65 375.876C1084.1 383.073 1092.96 401.949 1088.81 420.645C1083.37 445.283 1058.96 460.019 1036.98 453.323C1036.82 453.272 1036.66 453.221 1036.49 453.17C1022.73 449.301 1010.47 465.68 1017.42 478.395C1036.95 514.304 1058.11 545.629 1079.42 570.657C1053.93 594.187 1022.48 618.177 986.647 640.622C973.957 648.61 958.878 636.84 963.436 622.305C963.495 622.131 963.554 621.957 963.613 621.783C971.502 598.48 958.624 574.04 935.165 569.861C917.477 566.602 898.667 577.116 890.683 594.53C880.263 617.531 890.967 643.028 912.939 649.725C912.939 649.725 913.103 649.776 913.267 649.826C926.85 654.218 926.802 674.47 913.374 680.884C875.65 698.998 839.293 712.539 806.798 720.839C800.616 687.615 789.828 650.566 774.597 612.432C769.208 598.855 749.496 599.965 744.609 614.399C744.609 614.399 744.55 614.573 744.491 614.747C736.714 637.988 711.46 650.64 689.879 641.183C673.434 633.986 664.573 615.11 668.723 596.414C674.16 571.776 698.575 557.04 720.547 563.737C720.711 563.788 720.875 563.838 721.04 563.889C734.799 567.759 747.062 551.379 740.11 538.664C720.585 502.755 699.417 471.43 678.114 446.402Z" stroke="white" stroke-width="5" stroke-miterlimit="10"/>
</g>
<g filter="url(#filter10_d_930_8903)">
<path d="M1374.77 324.411C1409.4 322.332 1448.93 323.672 1490.88 328.98C1505.76 330.831 1509.98 349.488 1497.25 357.854C1497.09 357.952 1496.94 358.049 1496.78 358.146C1475.92 371.191 1470.42 398.262 1485.93 416.348C1497.56 430.069 1518.78 433.838 1535.98 425.411C1558.61 414.203 1566.47 387.689 1553.7 368.596C1553.7 368.596 1553.6 368.453 1553.51 368.309C1545.77 356.311 1558.63 340.664 1573.09 344.2C1613.76 354.059 1650.47 366.594 1680.88 380.74C1664.63 410.372 1649.53 445.881 1637.18 485.044C1632.76 498.965 1648.72 510.585 1661.64 502.505C1661.64 502.505 1661.79 502.407 1661.95 502.31C1682.68 489.242 1710.24 495.436 1720.96 516.419C1729.14 532.401 1724.04 552.622 1709 564.467C1689.19 580.098 1660.96 576.048 1648.19 556.956C1648.1 556.812 1648 556.669 1647.91 556.526C1639.71 544.82 1619.84 549.736 1617.18 563.98C1609.56 604.137 1606.11 641.787 1606.76 674.647C1572.14 676.727 1532.6 675.387 1490.65 670.078C1475.77 668.228 1471.55 649.571 1484.28 641.204C1484.44 641.107 1484.59 641.009 1484.75 640.912C1505.61 627.867 1511.11 600.796 1495.6 582.71C1483.97 568.99 1462.75 565.22 1445.55 573.647C1422.92 584.856 1415.07 611.369 1427.83 630.462C1427.83 630.462 1427.93 630.606 1428.02 630.749C1435.76 642.747 1422.9 658.394 1408.45 654.858C1367.78 644.999 1331.06 632.465 1300.65 618.319C1316.9 588.686 1332 553.177 1344.35 514.015C1348.78 500.093 1332.81 488.474 1319.89 496.554C1319.89 496.554 1319.74 496.651 1319.58 496.748C1298.85 509.816 1271.29 503.623 1260.57 482.64C1252.4 466.657 1257.49 446.436 1272.54 434.591C1292.34 418.96 1320.57 423.01 1333.34 442.103C1333.43 442.246 1333.53 442.39 1333.62 442.533C1341.83 454.239 1361.69 449.322 1364.36 435.079C1371.97 394.921 1375.42 357.271 1374.77 324.411Z" fill="#6393F2"/>
<path d="M1374.77 324.411C1409.4 322.332 1448.93 323.672 1490.88 328.98C1505.76 330.831 1509.98 349.488 1497.25 357.854C1497.09 357.952 1496.94 358.049 1496.78 358.146C1475.92 371.191 1470.42 398.262 1485.93 416.348C1497.56 430.069 1518.78 433.838 1535.98 425.411C1558.61 414.203 1566.47 387.689 1553.7 368.596C1553.7 368.596 1553.6 368.453 1553.51 368.309C1545.77 356.311 1558.63 340.664 1573.09 344.2C1613.76 354.059 1650.47 366.594 1680.88 380.74C1664.63 410.372 1649.53 445.881 1637.18 485.044C1632.76 498.965 1648.72 510.585 1661.64 502.505C1661.64 502.505 1661.79 502.407 1661.95 502.31C1682.68 489.242 1710.24 495.436 1720.96 516.419C1729.14 532.401 1724.04 552.622 1709 564.467C1689.19 580.098 1660.96 576.048 1648.19 556.956C1648.1 556.812 1648 556.669 1647.91 556.526C1639.71 544.82 1619.84 549.736 1617.18 563.98C1609.56 604.137 1606.11 641.787 1606.76 674.647C1572.14 676.727 1532.6 675.387 1490.65 670.078C1475.77 668.228 1471.55 649.571 1484.28 641.204C1484.44 641.107 1484.59 641.009 1484.75 640.912C1505.61 627.867 1511.11 600.796 1495.6 582.71C1483.97 568.99 1462.75 565.22 1445.55 573.647C1422.92 584.856 1415.07 611.369 1427.83 630.462C1427.83 630.462 1427.93 630.606 1428.02 630.749C1435.76 642.747 1422.9 658.394 1408.45 654.858C1367.78 644.999 1331.06 632.465 1300.65 618.319C1316.9 588.686 1332 553.177 1344.35 514.015C1348.78 500.093 1332.81 488.474 1319.89 496.554C1319.89 496.554 1319.74 496.651 1319.58 496.748C1298.85 509.816 1271.29 503.623 1260.57 482.64C1252.4 466.657 1257.49 446.436 1272.54 434.591C1292.34 418.96 1320.57 423.01 1333.34 442.103C1333.43 442.246 1333.53 442.39 1333.62 442.533C1341.83 454.239 1361.69 449.322 1364.36 435.079C1371.97 394.921 1375.42 357.271 1374.77 324.411Z" stroke="white" stroke-width="5" stroke-miterlimit="10"/>
</g>
<g filter="url(#filter11_d_930_8903)">
<path d="M1554.21 152.091C1572.55 135.159 1595.19 117.895 1620.97 101.743C1630.1 95.995 1640.95 104.465 1637.67 114.925C1637.63 115.05 1637.59 115.175 1637.55 115.3C1631.87 132.069 1641.14 149.657 1658.02 152.664C1670.75 155.009 1684.28 147.443 1690.03 134.911C1697.53 118.359 1689.82 100.011 1674.01 95.1925C1674.01 95.1925 1673.89 95.156 1673.78 95.1194C1664 91.9594 1664.04 77.3857 1673.7 72.7698C1700.85 59.7348 1727.01 49.9901 1750.39 44.0171C1754.84 67.9257 1762.6 94.5869 1773.56 122.029C1777.44 131.799 1791.63 131 1795.14 120.614C1795.14 120.614 1795.19 120.488 1795.23 120.363C1800.83 103.638 1819 94.5338 1834.53 101.339C1846.36 106.519 1852.74 120.102 1849.75 133.556C1845.84 151.285 1828.27 161.89 1812.46 157.071C1812.34 157.034 1812.22 156.998 1812.11 156.961C1802.2 154.177 1793.38 165.964 1798.38 175.114C1812.43 200.954 1827.67 223.496 1843 241.507C1824.65 258.439 1802.02 275.703 1776.24 291.855C1767.1 297.603 1756.25 289.133 1759.53 278.673C1759.58 278.548 1759.62 278.423 1759.66 278.298C1765.34 261.528 1756.07 243.941 1739.19 240.934C1726.46 238.589 1712.92 246.154 1707.18 258.686C1699.68 275.238 1707.38 293.586 1723.19 298.405C1723.19 298.405 1723.31 298.442 1723.43 298.478C1733.21 301.638 1733.17 316.212 1723.51 320.828C1696.36 333.863 1670.2 343.607 1646.81 349.58C1642.37 325.672 1634.6 299.011 1623.64 271.568C1619.76 261.798 1605.58 262.597 1602.06 272.984C1602.06 272.984 1602.02 273.109 1601.98 273.234C1596.38 289.959 1578.21 299.064 1562.68 292.258C1550.84 287.079 1544.47 273.496 1547.45 260.042C1551.37 242.312 1568.94 231.708 1584.75 236.527C1584.86 236.563 1584.98 236.6 1585.1 236.636C1595 239.421 1603.83 227.634 1598.82 218.484C1584.77 192.644 1569.54 170.101 1554.21 152.091Z" fill="#6393F2"/>
<path d="M1554.21 152.091C1572.55 135.159 1595.19 117.895 1620.97 101.743C1630.1 95.995 1640.95 104.465 1637.67 114.925C1637.63 115.05 1637.59 115.175 1637.55 115.3C1631.87 132.069 1641.14 149.657 1658.02 152.664C1670.75 155.009 1684.28 147.443 1690.03 134.911C1697.53 118.359 1689.82 100.011 1674.01 95.1925C1674.01 95.1925 1673.89 95.156 1673.78 95.1194C1664 91.9594 1664.04 77.3857 1673.7 72.7698C1700.85 59.7348 1727.01 49.9901 1750.39 44.0171C1754.84 67.9257 1762.6 94.5869 1773.56 122.029C1777.44 131.799 1791.63 131 1795.14 120.614C1795.14 120.614 1795.19 120.488 1795.23 120.363C1800.83 103.638 1819 94.5338 1834.53 101.339C1846.36 106.519 1852.74 120.102 1849.75 133.556C1845.84 151.285 1828.27 161.89 1812.46 157.071C1812.34 157.034 1812.22 156.998 1812.11 156.961C1802.2 154.177 1793.38 165.964 1798.38 175.114C1812.43 200.954 1827.67 223.496 1843 241.507C1824.65 258.439 1802.02 275.703 1776.24 291.855C1767.1 297.603 1756.25 289.133 1759.53 278.673C1759.58 278.548 1759.62 278.423 1759.66 278.298C1765.34 261.528 1756.07 243.941 1739.19 240.934C1726.46 238.589 1712.92 246.154 1707.18 258.686C1699.68 275.238 1707.38 293.586 1723.19 298.405C1723.19 298.405 1723.31 298.442 1723.43 298.478C1733.21 301.638 1733.17 316.212 1723.51 320.828C1696.36 333.863 1670.2 343.607 1646.81 349.58C1642.37 325.672 1634.6 299.011 1623.64 271.568C1619.76 261.798 1605.58 262.597 1602.06 272.984C1602.06 272.984 1602.02 273.109 1601.98 273.234C1596.38 289.959 1578.21 299.064 1562.68 292.258C1550.84 287.079 1544.47 273.496 1547.45 260.042C1551.37 242.312 1568.94 231.708 1584.75 236.527C1584.86 236.563 1584.98 236.6 1585.1 236.636C1595 239.421 1603.83 227.634 1598.82 218.484C1584.77 192.644 1569.54 170.101 1554.21 152.091Z" stroke="white" stroke-width="5" stroke-miterlimit="10"/>
</g>
<g filter="url(#filter12_d_930_8903)">
<path d="M1076.98 247.246C1082.65 232.389 1090.68 216.126 1100.82 199.606C1104.41 193.74 1113 195.501 1114.09 202.4C1114.1 202.484 1114.11 202.567 1114.12 202.651C1115.63 213.829 1125.9 221.244 1136.39 218.18C1144.32 215.915 1149.9 207.764 1149.63 198.984C1149.23 187.414 1139.63 179.122 1129.25 180.848C1129.25 180.848 1129.17 180.861 1129.09 180.874C1122.62 181.838 1118.51 173.51 1122.72 168.139C1134.52 153.012 1146.7 140.042 1158.35 130.012C1167.66 142.398 1179.64 155.418 1193.67 167.978C1198.65 172.456 1206.52 167.984 1205.58 161.06C1205.58 161.06 1205.57 160.976 1205.56 160.893C1204.02 149.762 1211.81 139.419 1222.6 138.907C1230.83 138.512 1238.31 144.46 1240.42 152.984C1243.2 164.212 1236.18 175.239 1225.79 176.966C1225.71 176.978 1225.63 176.991 1225.56 177.004C1219.12 178.218 1217.42 187.444 1222.86 191.25C1238.2 202.021 1253.28 210.574 1267.13 216.514C1261.45 231.371 1253.42 247.634 1243.28 264.154C1239.69 270.02 1231.1 268.259 1230.01 261.36C1230 261.276 1229.99 261.193 1229.98 261.109C1228.47 249.93 1218.2 242.516 1207.71 245.579C1199.78 247.845 1194.2 255.996 1194.47 264.776C1194.88 276.346 1204.47 284.638 1214.86 282.911C1214.86 282.911 1214.93 282.899 1215.01 282.886C1221.49 281.922 1225.59 290.25 1221.38 295.621C1209.58 310.748 1197.41 323.718 1185.75 333.748C1176.44 321.361 1164.46 308.342 1150.44 295.782C1145.46 291.304 1137.59 295.776 1138.52 302.7C1138.52 302.7 1138.53 302.784 1138.54 302.867C1140.08 313.998 1132.29 324.34 1121.5 324.853C1113.28 325.248 1105.79 319.3 1103.69 310.775C1100.9 299.548 1107.92 288.521 1118.31 286.794C1118.39 286.782 1118.47 286.769 1118.55 286.756C1124.99 285.542 1126.69 276.315 1121.24 272.509C1105.9 261.739 1090.83 253.186 1076.98 247.246Z" fill="#44D2F2"/>
<path d="M1076.98 247.246C1082.65 232.389 1090.68 216.126 1100.82 199.606C1104.41 193.74 1113 195.501 1114.09 202.4C1114.1 202.484 1114.11 202.567 1114.12 202.651C1115.63 213.829 1125.9 221.244 1136.39 218.18C1144.32 215.915 1149.9 207.764 1149.63 198.984C1149.23 187.414 1139.63 179.122 1129.25 180.848C1129.25 180.848 1129.17 180.861 1129.09 180.874C1122.62 181.838 1118.51 173.51 1122.72 168.139C1134.52 153.012 1146.7 140.042 1158.35 130.012C1167.66 142.398 1179.64 155.418 1193.67 167.978C1198.65 172.456 1206.52 167.984 1205.58 161.06C1205.58 161.06 1205.57 160.976 1205.56 160.893C1204.02 149.762 1211.81 139.419 1222.6 138.907C1230.83 138.512 1238.31 144.46 1240.42 152.984C1243.2 164.212 1236.18 175.239 1225.79 176.966C1225.71 176.978 1225.63 176.991 1225.56 177.004C1219.12 178.218 1217.42 187.444 1222.86 191.25C1238.2 202.021 1253.28 210.574 1267.13 216.514C1261.45 231.371 1253.42 247.634 1243.28 264.154C1239.69 270.02 1231.1 268.259 1230.01 261.36C1230 261.276 1229.99 261.193 1229.98 261.109C1228.47 249.93 1218.2 242.516 1207.71 245.579C1199.78 247.845 1194.2 255.996 1194.47 264.776C1194.88 276.346 1204.47 284.638 1214.86 282.911C1214.86 282.911 1214.93 282.899 1215.01 282.886C1221.49 281.922 1225.59 290.25 1221.38 295.621C1209.58 310.748 1197.41 323.718 1185.75 333.748C1176.44 321.361 1164.46 308.342 1150.44 295.782C1145.46 291.304 1137.59 295.776 1138.52 302.7C1138.52 302.7 1138.53 302.784 1138.54 302.867C1140.08 313.998 1132.29 324.34 1121.5 324.853C1113.28 325.248 1105.79 319.3 1103.69 310.775C1100.9 299.548 1107.92 288.521 1118.31 286.794C1118.39 286.782 1118.47 286.769 1118.55 286.756C1124.99 285.542 1126.69 276.315 1121.24 272.509C1105.9 261.739 1090.83 253.186 1076.98 247.246Z" stroke="white" stroke-width="5" stroke-miterlimit="10"/>
</g>
<g filter="url(#filter13_d_930_8903)">
<path d="M830.152 357.047C813.636 364.594 794.078 371.396 772.593 376.716C764.978 378.619 759.397 370.305 764.036 363.818C764.093 363.741 764.151 363.664 764.209 363.587C771.934 353.283 769.516 339.025 758.528 333.12C750.262 328.613 739.19 330.775 732.378 338.135C723.443 347.876 724.608 362.305 734.445 369.22C734.445 369.22 734.518 369.272 734.592 369.324C740.632 373.724 737.304 383.79 729.579 384.79C707.859 387.646 687.565 388.451 670.048 387.278C672.393 369.744 673.071 349.555 671.715 328.102C671.249 320.47 661.263 317.806 656.478 324.189C656.478 324.189 656.42 324.266 656.363 324.343C648.703 334.634 634.077 336.808 624.885 328.583C617.879 322.321 616.551 311.486 621.665 302.864C628.389 291.495 642.937 288.148 652.774 295.063C652.847 295.115 652.92 295.167 652.994 295.22C659.207 299.389 667.979 293.242 666.595 285.783C662.74 264.737 657.321 245.702 650.807 229.778C667.323 222.231 686.882 215.429 708.366 210.109C715.981 208.206 721.562 216.52 716.923 223.007C716.866 223.084 716.808 223.161 716.75 223.238C709.025 233.542 711.443 247.8 722.431 253.705C730.697 258.212 741.769 256.05 748.581 248.691C757.516 238.949 756.351 224.521 746.514 217.606C746.514 217.606 746.441 217.553 746.367 217.501C740.328 213.101 743.655 203.035 751.381 202.035C773.1 199.179 793.394 198.374 810.911 199.547C808.566 217.081 807.888 237.27 809.244 258.723C809.71 266.355 819.696 269.019 824.481 262.636C824.481 262.636 824.539 262.559 824.596 262.482C832.256 252.191 846.882 250.017 856.074 258.242C863.08 264.504 864.408 275.339 859.294 283.961C852.571 295.33 838.022 298.677 828.186 291.762C828.112 291.71 828.039 291.657 827.965 291.605C821.752 287.436 812.981 293.583 814.364 301.042C818.219 322.088 823.638 341.123 830.152 357.047Z" fill="#44D2F2"/>
<path d="M830.152 357.047C813.636 364.594 794.078 371.396 772.593 376.716C764.978 378.619 759.397 370.305 764.036 363.818C764.093 363.741 764.151 363.664 764.209 363.587C771.934 353.283 769.516 339.025 758.528 333.12C750.262 328.613 739.19 330.775 732.378 338.135C723.443 347.876 724.608 362.305 734.445 369.22C734.445 369.22 734.518 369.272 734.592 369.324C740.632 373.724 737.304 383.79 729.579 384.79C707.859 387.646 687.565 388.451 670.048 387.278C672.393 369.744 673.071 349.555 671.715 328.102C671.249 320.47 661.263 317.806 656.478 324.189C656.478 324.189 656.42 324.266 656.363 324.343C648.703 334.634 634.077 336.808 624.885 328.583C617.879 322.321 616.551 311.486 621.665 302.864C628.389 291.495 642.937 288.148 652.774 295.063C652.847 295.115 652.92 295.167 652.994 295.22C659.207 299.389 667.979 293.242 666.595 285.783C662.74 264.737 657.321 245.702 650.807 229.778C667.323 222.231 686.882 215.429 708.366 210.109C715.981 208.206 721.562 216.52 716.923 223.007C716.866 223.084 716.808 223.161 716.75 223.238C709.025 233.542 711.443 247.8 722.431 253.705C730.697 258.212 741.769 256.05 748.581 248.691C757.516 238.949 756.351 224.521 746.514 217.606C746.514 217.606 746.441 217.553 746.367 217.501C740.328 213.101 743.655 203.035 751.381 202.035C773.1 199.179 793.394 198.374 810.911 199.547C808.566 217.081 807.888 237.27 809.244 258.723C809.71 266.355 819.696 269.019 824.481 262.636C824.481 262.636 824.539 262.559 824.596 262.482C832.256 252.191 846.882 250.017 856.074 258.242C863.08 264.504 864.408 275.339 859.294 283.961C852.571 295.33 838.022 298.677 828.186 291.762C828.112 291.71 828.039 291.657 827.965 291.605C821.752 287.436 812.981 293.583 814.364 301.042C818.219 322.088 823.638 341.123 830.152 357.047Z" stroke="white" stroke-width="5" stroke-miterlimit="10"/>
</g>
<defs>
<filter id="filter0_d_930_8903" x="331.5" y="304.587" width="520.842" height="420.328" filterUnits="userSpaceOnUse" color-interpolation-filters="sRGB">
<feFlood flood-opacity="0" result="BackgroundImageFix"/>
<feColorMatrix in="SourceAlpha" type="matrix" values="0 0 0 0 0 0 0 0 0 0 0 0 0 0 0 0 0 0 127 0" result="hardAlpha"/>
<feOffset dx="4.58118" dy="-8"/>
<feGaussianBlur stdDeviation="5.2436"/>
<feComposite in2="hardAlpha" operator="out"/>
<feColorMatrix type="matrix" values="0 0 0 0 0 0 0 0 0 0 0 0 0 0 0 0 0 0 0.6 0"/>
<feBlend mode="normal" in2="BackgroundImageFix" result="effect1_dropShadow_930_8903"/>
<feBlend mode="normal" in="SourceGraphic" in2="effect1_dropShadow_930_8903" result="shape"/>
</filter>
<filter id="filter1_d_930_8903" x="693.5" y="96.5865" width="520.842" height="420.328" filterUnits="userSpaceOnUse" color-interpolation-filters="sRGB">
<feFlood flood-opacity="0" result="BackgroundImageFix"/>
<feColorMatrix in="SourceAlpha" type="matrix" values="0 0 0 0 0 0 0 0 0 0 0 0 0 0 0 0 0 0 127 0" result="hardAlpha"/>
<feOffset dx="4.58118" dy="-8"/>
<feGaussianBlur stdDeviation="5.2436"/>
<feComposite in2="hardAlpha" operator="out"/>
<feColorMatrix type="matrix" values="0 0 0 0 0 0 0 0 0 0 0 0 0 0 0 0 0 0 0.6 0"/>
<feBlend mode="normal" in2="BackgroundImageFix" result="effect1_dropShadow_930_8903"/>
<feBlend mode="normal" in="SourceGraphic" in2="effect1_dropShadow_930_8903" result="shape"/>
</filter>
<filter id="filter2_d_930_8903" x="1147.5" y="241.587" width="520.842" height="420.328" filterUnits="userSpaceOnUse" color-interpolation-filters="sRGB">
<feFlood flood-opacity="0" result="BackgroundImageFix"/>
<feColorMatrix in="SourceAlpha" type="matrix" values="0 0 0 0 0 0 0 0 0 0 0 0 0 0 0 0 0 0 127 0" result="hardAlpha"/>
<feOffset dx="4.58118" dy="-8"/>
<feGaussianBlur stdDeviation="5.2436"/>
<feComposite in2="hardAlpha" operator="out"/>
<feColorMatrix type="matrix" values="0 0 0 0 0 0 0 0 0 0 0 0 0 0 0 0 0 0 0.6 0"/>
<feBlend mode="normal" in2="BackgroundImageFix" result="effect1_dropShadow_930_8903"/>
<feBlend mode="normal" in="SourceGraphic" in2="effect1_dropShadow_930_8903" result="shape"/>
</filter>
<filter id="filter3_d_930_8903" x="232.848" y="27.2789" width="257.336" height="241.664" filterUnits="userSpaceOnUse" color-interpolation-filters="sRGB">
<feFlood flood-opacity="0" result="BackgroundImageFix"/>
<feColorMatrix in="SourceAlpha" type="matrix" values="0 0 0 0 0 0 0 0 0 0 0 0 0 0 0 0 0 0 127 0" result="hardAlpha"/>
<feOffset dx="4.58118" dy="-8"/>
<feGaussianBlur stdDeviation="5.2436"/>
<feComposite in2="hardAlpha" operator="out"/>
<feColorMatrix type="matrix" values="0 0 0 0 0 0 0 0 0 0 0 0 0 0 0 0 0 0 0.6 0"/>
<feBlend mode="normal" in2="BackgroundImageFix" result="effect1_dropShadow_930_8903"/>
<feBlend mode="normal" in="SourceGraphic" in2="effect1_dropShadow_930_8903" result="shape"/>
</filter>
<filter id="filter4_d_930_8903" x="-101.824" y="268.018" width="532.72" height="384.976" filterUnits="userSpaceOnUse" color-interpolation-filters="sRGB">
<feFlood flood-opacity="0" result="BackgroundImageFix"/>
<feColorMatrix in="SourceAlpha" type="matrix" values="0 0 0 0 0 0 0 0 0 0 0 0 0 0 0 0 0 0 127 0" result="hardAlpha"/>
<feOffset dx="4.58118" dy="-8"/>
<feGaussianBlur stdDeviation="5.2436"/>
<feComposite in2="hardAlpha" operator="out"/>
<feColorMatrix type="matrix" values="0 0 0 0 0 0 0 0 0 0 0 0 0 0 0 0 0 0 0.6 0"/>
<feBlend mode="normal" in2="BackgroundImageFix" result="effect1_dropShadow_930_8903"/>
<feBlend mode="normal" in="SourceGraphic" in2="effect1_dropShadow_930_8903" result="shape"/>
</filter>
<filter id="filter5_d_930_8903" x="1461.68" y="234.857" width="415.859" height="440.228" filterUnits="userSpaceOnUse" color-interpolation-filters="sRGB">
<feFlood flood-opacity="0" result="BackgroundImageFix"/>
<feColorMatrix in="SourceAlpha" type="matrix" values="0 0 0 0 0 0 0 0 0 0 0 0 0 0 0 0 0 0 127 0" result="hardAlpha"/>
<feOffset dx="4.58118" dy="-8"/>
<feGaussianBlur stdDeviation="5.2436"/>
<feComposite in2="hardAlpha" operator="out"/>
<feColorMatrix type="matrix" values="0 0 0 0 0 0 0 0 0 0 0 0 0 0 0 0 0 0 0.6 0"/>
<feBlend mode="normal" in2="BackgroundImageFix" result="effect1_dropShadow_930_8903"/>
<feBlend mode="normal" in="SourceGraphic" in2="effect1_dropShadow_930_8903" result="shape"/>
</filter>
<filter id="filter6_d_930_8903" x="1290.15" y="33.0498" width="248.455" height="232.178" filterUnits="userSpaceOnUse" color-interpolation-filters="sRGB">
<feFlood flood-opacity="0" result="BackgroundImageFix"/>
<feColorMatrix in="SourceAlpha" type="matrix" values="0 0 0 0 0 0 0 0 0 0 0 0 0 0 0 0 0 0 127 0" result="hardAlpha"/>
<feOffset dx="4.58118" dy="-8"/>
<feGaussianBlur stdDeviation="5.2436"/>
<feComposite in2="hardAlpha" operator="out"/>
<feColorMatrix type="matrix" values="0 0 0 0 0 0 0 0 0 0 0 0 0 0 0 0 0 0 0.6 0"/>
<feBlend mode="normal" in2="BackgroundImageFix" result="effect1_dropShadow_930_8903"/>
<feBlend mode="normal" in="SourceGraphic" in2="effect1_dropShadow_930_8903" result="shape"/>
</filter>
<filter id="filter7_d_930_8903" x="-63.8962" y="33.1736" width="364.322" height="430.897" filterUnits="userSpaceOnUse" color-interpolation-filters="sRGB">
<feFlood flood-opacity="0" result="BackgroundImageFix"/>
<feColorMatrix in="SourceAlpha" type="matrix" values="0 0 0 0 0 0 0 0 0 0 0 0 0 0 0 0 0 0 127 0" result="hardAlpha"/>
<feOffset dx="4.58118" dy="-8"/>
<feGaussianBlur stdDeviation="5.2436"/>
<feComposite in2="hardAlpha" operator="out"/>
<feColorMatrix type="matrix" values="0 0 0 0 0 0 0 0 0 0 0 0 0 0 0 0 0 0 0.6 0"/>
<feBlend mode="normal" in2="BackgroundImageFix" result="effect1_dropShadow_930_8903"/>
<feBlend mode="normal" in="SourceGraphic" in2="effect1_dropShadow_930_8903" result="shape"/>
</filter>
<filter id="filter8_d_930_8903" x="312.104" y="150.174" width="364.322" height="430.897" filterUnits="userSpaceOnUse" color-interpolation-filters="sRGB">
<feFlood flood-opacity="0" result="BackgroundImageFix"/>
<feColorMatrix in="SourceAlpha" type="matrix" values="0 0 0 0 0 0 0 0 0 0 0 0 0 0 0 0 0 0 127 0" result="hardAlpha"/>
<feOffset dx="4.58118" dy="-8"/>
<feGaussianBlur stdDeviation="5.2436"/>
<feComposite in2="hardAlpha" operator="out"/>
<feColorMatrix type="matrix" values="0 0 0 0 0 0 0 0 0 0 0 0 0 0 0 0 0 0 0.6 0"/>
<feBlend mode="normal" in2="BackgroundImageFix" result="effect1_dropShadow_930_8903"/>
<feBlend mode="normal" in="SourceGraphic" in2="effect1_dropShadow_930_8903" result="shape"/>
</filter>
<filter id="filter9_d_930_8903" x="659.367" y="274.626" width="447.959" height="451.807" filterUnits="userSpaceOnUse" color-interpolation-filters="sRGB">
<feFlood flood-opacity="0" result="BackgroundImageFix"/>
<feColorMatrix in="SourceAlpha" type="matrix" values="0 0 0 0 0 0 0 0 0 0 0 0 0 0 0 0 0 0 127 0" result="hardAlpha"/>
<feOffset dx="4.58118" dy="-8"/>
<feGaussianBlur stdDeviation="5.2436"/>
<feComposite in2="hardAlpha" operator="out"/>
<feColorMatrix type="matrix" values="0 0 0 0 0 0 0 0 0 0 0 0 0 0 0 0 0 0 0.6 0"/>
<feBlend mode="normal" in2="BackgroundImageFix" result="effect1_dropShadow_930_8903"/>
<feBlend mode="normal" in="SourceGraphic" in2="effect1_dropShadow_930_8903" result="shape"/>
</filter>
<filter id="filter10_d_930_8903" x="1248.25" y="302.525" width="494.193" height="378.009" filterUnits="userSpaceOnUse" color-interpolation-filters="sRGB">
<feFlood flood-opacity="0" result="BackgroundImageFix"/>
<feColorMatrix in="SourceAlpha" type="matrix" values="0 0 0 0 0 0 0 0 0 0 0 0 0 0 0 0 0 0 127 0" result="hardAlpha"/>
<feOffset dx="4.58118" dy="-8"/>
<feGaussianBlur stdDeviation="5.2436"/>
<feComposite in2="hardAlpha" operator="out"/>
<feColorMatrix type="matrix" values="0 0 0 0 0 0 0 0 0 0 0 0 0 0 0 0 0 0 0.6 0"/>
<feBlend mode="normal" in2="BackgroundImageFix" result="effect1_dropShadow_930_8903"/>
<feBlend mode="normal" in="SourceGraphic" in2="effect1_dropShadow_930_8903" result="shape"/>
</filter>
<filter id="filter11_d_930_8903" x="1538.38" y="22.4237" width="329.603" height="332.75" filterUnits="userSpaceOnUse" color-interpolation-filters="sRGB">
<feFlood flood-opacity="0" result="BackgroundImageFix"/>
<feColorMatrix in="SourceAlpha" type="matrix" values="0 0 0 0 0 0 0 0 0 0 0 0 0 0 0 0 0 0 127 0" result="hardAlpha"/>
<feOffset dx="4.58118" dy="-8"/>
<feGaussianBlur stdDeviation="5.2436"/>
<feComposite in2="hardAlpha" operator="out"/>
<feColorMatrix type="matrix" values="0 0 0 0 0 0 0 0 0 0 0 0 0 0 0 0 0 0 0.6 0"/>
<feBlend mode="normal" in2="BackgroundImageFix" result="effect1_dropShadow_930_8903"/>
<feBlend mode="normal" in="SourceGraphic" in2="effect1_dropShadow_930_8903" result="shape"/>
</filter>
<filter id="filter12_d_930_8903" x="1067.9" y="107.889" width="217.455" height="231.982" filterUnits="userSpaceOnUse" color-interpolation-filters="sRGB">
<feFlood flood-opacity="0" result="BackgroundImageFix"/>
<feColorMatrix in="SourceAlpha" type="matrix" values="0 0 0 0 0 0 0 0 0 0 0 0 0 0 0 0 0 0 127 0" result="hardAlpha"/>
<feOffset dx="4.58118" dy="-8"/>
<feGaussianBlur stdDeviation="5.2436"/>
<feComposite in2="hardAlpha" operator="out"/>
<feColorMatrix type="matrix" values="0 0 0 0 0 0 0 0 0 0 0 0 0 0 0 0 0 0 0.6 0"/>
<feBlend mode="normal" in2="BackgroundImageFix" result="effect1_dropShadow_930_8903"/>
<feBlend mode="normal" in="SourceGraphic" in2="effect1_dropShadow_930_8903" result="shape"/>
</filter>
<filter id="filter13_d_930_8903" x="610.19" y="178.015" width="269.742" height="214.794" filterUnits="userSpaceOnUse" color-interpolation-filters="sRGB">
<feFlood flood-opacity="0" result="BackgroundImageFix"/>
<feColorMatrix in="SourceAlpha" type="matrix" values="0 0 0 0 0 0 0 0 0 0 0 0 0 0 0 0 0 0 127 0" result="hardAlpha"/>
<feOffset dx="4.58118" dy="-8"/>
<feGaussianBlur stdDeviation="5.2436"/>
<feComposite in2="hardAlpha" operator="out"/>
<feColorMatrix type="matrix" values="0 0 0 0 0 0 0 0 0 0 0 0 0 0 0 0 0 0 0.6 0"/>
<feBlend mode="normal" in2="BackgroundImageFix" result="effect1_dropShadow_930_8903"/>
<feBlend mode="normal" in="SourceGraphic" in2="effect1_dropShadow_930_8903" result="shape"/>
</filter>
<linearGradient id="paint0_linear_930_8903" x1="340.372" y1="466.635" x2="839.501" y2="546.356" gradientUnits="userSpaceOnUse">
<stop stop-color="#B8E9FF"/>
<stop offset="1" stop-color="#5CD2FF"/>
</linearGradient>
<linearGradient id="paint1_linear_930_8903" x1="702.372" y1="258.635" x2="1201.5" y2="338.356" gradientUnits="userSpaceOnUse">
<stop stop-color="#B8E9FF"/>
<stop offset="1" stop-color="#5CD2FF"/>
</linearGradient>
<linearGradient id="paint2_linear_930_8903" x1="1156.37" y1="403.635" x2="1655.5" y2="483.356" gradientUnits="userSpaceOnUse">
<stop stop-color="#B8E9FF"/>
<stop offset="1" stop-color="#5CD2FF"/>
</linearGradient>
<linearGradient id="paint3_linear_930_8903" x1="261.526" y1="231.059" x2="441.815" y2="69.4202" gradientUnits="userSpaceOnUse">
<stop stop-color="#B8E9FF"/>
<stop offset="1" stop-color="#5CD2FF"/>
</linearGradient>
<linearGradient id="paint4_linear_930_8903" x1="413.218" y1="468.506" x2="-91.168" y2="435.653" gradientUnits="userSpaceOnUse">
<stop stop-color="#B8E9FF"/>
<stop offset="1" stop-color="#5CD2FF"/>
</linearGradient>
</defs>
</svg>
