<svg width="1785" height="730" viewBox="0 0 1785 730" fill="none" xmlns="http://www.w3.org/2000/svg">
<g filter="url(#filter0_d_1776_680)">
<path d="M1828.2 366.346C1779.08 360.7 1722.49 360.153 1661.9 365.744C1640.41 367.675 1631.79 397.014 1648.79 411.16C1648.99 411.325 1649.2 411.49 1649.41 411.655C1677.35 433.78 1681.43 477.137 1656.77 504.805C1638.27 525.804 1607.47 530.354 1584.1 515.809C1553.38 496.48 1545.87 453.849 1566.75 424.397C1566.75 424.397 1566.9 424.176 1567.06 423.954C1579.77 405.427 1563.6 379.712 1542.49 384.348C1483.09 397.251 1428.95 414.669 1383.59 435.073C1402.64 483.224 1419.24 540.629 1431.4 603.649C1435.77 626.053 1411.38 643.423 1394.07 629.719C1394.07 629.719 1393.86 629.554 1393.65 629.389C1365.89 607.237 1325.71 615.206 1307.49 647.798C1293.6 672.623 1298.04 705.076 1317.86 724.902C1343.94 751.061 1384.78 746.541 1405.66 717.088C1405.82 716.867 1405.97 716.646 1406.13 716.425C1419.46 698.392 1447.11 707.543 1448.93 730.34C1454.2 794.62 1453.87 854.634 1448.36 906.767C1497.48 912.413 1554.07 912.96 1614.66 907.369C1636.15 905.438 1644.77 876.099 1627.78 861.953C1627.57 861.788 1627.36 861.623 1627.15 861.457C1599.21 839.333 1595.13 795.975 1619.79 768.308C1638.29 747.309 1669.09 742.759 1692.46 757.303C1723.18 776.632 1730.69 819.263 1709.81 848.716C1709.81 848.716 1709.66 848.937 1709.5 849.158C1696.79 867.686 1712.96 893.401 1734.07 888.765C1793.47 875.862 1847.61 858.444 1892.97 838.04C1873.92 789.889 1857.32 732.484 1845.16 669.464C1840.79 647.06 1865.18 629.69 1882.49 643.393C1882.49 643.393 1882.7 643.558 1882.91 643.724C1910.67 665.876 1950.85 657.907 1969.07 625.314C1982.96 600.49 1978.52 568.037 1958.7 548.211C1932.62 522.052 1891.78 526.572 1870.9 556.024C1870.75 556.245 1870.59 556.467 1870.43 556.688C1857.1 574.72 1829.45 565.57 1827.63 542.773C1822.36 478.493 1822.69 418.478 1828.2 366.346Z" fill="url(#paint0_linear_1776_680)" stroke="white" stroke-width="10.325" stroke-miterlimit="10"/>
<g filter="url(#filter1_d_1776_680)">
<path d="M1464.18 846.001C1428.48 851.506 1387.18 853.501 1342.82 851.127C1327.09 850.323 1320.06 829.152 1332.11 818.347C1332.26 818.221 1332.4 818.095 1332.55 817.968C1352.39 801.032 1354.28 769.27 1335.59 749.77C1321.56 734.964 1298.97 732.511 1282.27 743.786C1260.33 758.76 1255.92 790.089 1271.9 810.998C1271.9 810.998 1272.02 811.155 1272.14 811.312C1281.88 824.477 1270.72 843.703 1255.19 840.914C1211.51 833.17 1171.56 821.982 1137.94 808.368C1150.64 772.685 1161.32 730.317 1168.62 683.975C1171.25 667.499 1153.01 655.508 1140.72 665.998C1140.72 665.998 1140.57 666.125 1140.42 666.251C1120.71 683.203 1091.18 678.518 1077.07 655.242C1066.31 637.514 1068.74 613.701 1082.71 598.672C1101.09 578.843 1131.01 580.991 1146.99 601.9C1147.11 602.057 1147.23 602.214 1147.35 602.371C1157.53 615.157 1177.49 607.699 1178.24 591.008C1180.48 543.941 1178.73 500.145 1173.41 462.248C1209.12 456.743 1250.41 454.748 1294.77 457.122C1310.51 457.926 1317.54 479.097 1305.49 489.902C1305.34 490.028 1305.19 490.155 1305.04 490.281C1285.2 507.217 1283.31 538.979 1302 558.479C1316.03 573.285 1338.63 575.738 1355.32 564.463C1377.26 549.489 1381.68 518.16 1365.7 497.251C1365.7 497.251 1365.58 497.094 1365.46 496.937C1355.72 483.772 1366.87 464.547 1382.4 467.335C1426.08 475.08 1466.03 486.267 1499.65 499.882C1486.95 535.564 1476.27 577.933 1468.98 624.274C1466.35 640.75 1484.59 652.741 1496.88 642.251C1496.88 642.251 1497.03 642.125 1497.17 641.998C1516.88 625.047 1546.41 629.731 1560.53 653.007C1571.29 670.735 1568.86 694.548 1554.89 709.578C1536.51 729.406 1506.58 727.258 1490.61 706.349C1490.49 706.192 1490.37 706.035 1490.25 705.878C1480.06 693.092 1460.11 700.55 1459.35 717.242C1457.11 764.308 1458.86 808.104 1464.18 846.001Z" fill="url(#paint1_linear_1776_680)"/>
<path d="M1464.18 846.001C1428.48 851.506 1387.18 853.501 1342.82 851.127C1327.09 850.323 1320.06 829.152 1332.11 818.347C1332.26 818.221 1332.4 818.095 1332.55 817.968C1352.39 801.032 1354.28 769.27 1335.59 749.77C1321.56 734.964 1298.97 732.511 1282.27 743.786C1260.33 758.76 1255.92 790.089 1271.9 810.998C1271.9 810.998 1272.02 811.155 1272.14 811.312C1281.88 824.477 1270.72 843.703 1255.19 840.914C1211.51 833.17 1171.56 821.982 1137.94 808.368C1150.64 772.685 1161.32 730.317 1168.62 683.975C1171.25 667.499 1153.01 655.508 1140.72 665.998C1140.72 665.998 1140.57 666.125 1140.42 666.251C1120.71 683.203 1091.18 678.518 1077.07 655.242C1066.31 637.514 1068.74 613.701 1082.71 598.672C1101.09 578.843 1131.01 580.991 1146.99 601.9C1147.11 602.057 1147.23 602.214 1147.35 602.371C1157.53 615.157 1177.49 607.699 1178.24 591.008C1180.48 543.941 1178.73 500.145 1173.41 462.248C1209.12 456.743 1250.41 454.748 1294.77 457.122C1310.51 457.926 1317.54 479.097 1305.49 489.902C1305.34 490.028 1305.19 490.155 1305.04 490.281C1285.2 507.217 1283.31 538.979 1302 558.479C1316.03 573.285 1338.63 575.738 1355.32 564.463C1377.26 549.489 1381.68 518.16 1365.7 497.251C1365.7 497.251 1365.58 497.094 1365.46 496.937C1355.72 483.772 1366.87 464.547 1382.4 467.335C1426.08 475.08 1466.03 486.267 1499.65 499.882C1486.95 535.564 1476.27 577.933 1468.98 624.274C1466.35 640.75 1484.59 652.741 1496.88 642.251C1496.88 642.251 1497.03 642.125 1497.17 641.998C1516.88 625.047 1546.41 629.731 1560.53 653.007C1571.29 670.735 1568.86 694.548 1554.89 709.578C1536.51 729.406 1506.58 727.258 1490.61 706.349C1490.49 706.192 1490.37 706.035 1490.25 705.878C1480.06 693.092 1460.11 700.55 1459.35 717.242C1457.11 764.308 1458.86 808.104 1464.18 846.001Z" stroke="white" stroke-width="10.325" stroke-miterlimit="10"/>
</g>
<g filter="url(#filter2_d_1776_680)">
<path d="M957.448 908.862C934.418 881.025 911.538 846.591 890.835 807.282C883.461 793.361 898.036 776.473 913.491 781.282C913.675 781.345 913.859 781.407 914.044 781.469C938.756 789.824 966.998 775.167 974.16 749.123C979.68 729.484 970.205 708.828 951.966 700.272C927.863 689.11 898.7 701.379 888.937 725.816C888.937 725.816 888.863 725.998 888.789 726.181C882.478 741.292 860.253 741.57 854.687 726.806C838.946 685.332 828.074 645.295 822.532 609.45C859.679 602.063 901.531 589.513 945.063 572.026C960.557 565.837 961.503 544.029 946.196 538.854C946.196 538.854 946.012 538.791 945.827 538.729C921.17 530.496 910.055 502.74 922.806 478.69C932.512 460.363 954.204 450.244 974.27 454.534C1000.72 460.151 1014.21 486.946 1004.45 511.383C1004.37 511.566 1004.3 511.749 1004.23 511.931C998.468 527.23 1015.1 540.541 1029.82 532.636C1071.38 510.43 1108.09 486.481 1137.9 462.485C1160.93 490.321 1183.81 524.755 1204.51 564.064C1211.89 577.984 1197.31 594.874 1181.86 590.064C1181.67 590.002 1181.49 589.939 1181.3 589.877C1156.59 581.522 1128.35 596.18 1121.19 622.223C1115.67 641.862 1125.14 662.518 1143.38 671.074C1167.49 682.236 1196.65 669.968 1206.41 645.531C1206.41 645.531 1206.48 645.348 1206.56 645.165C1212.87 630.053 1235.1 629.776 1240.66 644.54C1256.4 686.015 1267.27 726.051 1272.82 761.896C1235.67 769.283 1193.82 781.832 1150.29 799.32C1134.79 805.509 1133.85 827.317 1149.15 832.493C1149.15 832.493 1149.34 832.555 1149.52 832.618C1174.18 840.85 1185.29 868.605 1172.54 892.656C1162.84 910.983 1141.14 921.102 1121.08 916.811C1094.63 911.194 1081.14 884.4 1090.9 859.963C1090.97 859.78 1091.05 859.597 1091.12 859.414C1096.88 844.116 1080.25 830.804 1065.53 838.71C1023.97 860.916 987.259 884.865 957.448 908.862Z" fill="#6393F2"/>
<path d="M957.448 908.862C934.418 881.025 911.538 846.591 890.835 807.282C883.461 793.361 898.036 776.473 913.491 781.282C913.675 781.345 913.859 781.407 914.044 781.469C938.756 789.824 966.998 775.167 974.16 749.123C979.68 729.484 970.205 708.828 951.966 700.272C927.863 689.11 898.7 701.379 888.937 725.816C888.937 725.816 888.863 725.998 888.789 726.181C882.478 741.292 860.253 741.57 854.687 726.806C838.946 685.332 828.074 645.295 822.532 609.45C859.679 602.063 901.531 589.513 945.063 572.026C960.557 565.837 961.503 544.029 946.196 538.854C946.196 538.854 946.012 538.791 945.827 538.729C921.17 530.496 910.055 502.74 922.806 478.69C932.512 460.363 954.204 450.244 974.27 454.534C1000.72 460.151 1014.21 486.946 1004.45 511.383C1004.37 511.566 1004.3 511.749 1004.23 511.931C998.468 527.23 1015.1 540.541 1029.82 532.636C1071.38 510.43 1108.09 486.481 1137.9 462.485C1160.93 490.321 1183.81 524.755 1204.51 564.064C1211.89 577.984 1197.31 594.874 1181.86 590.064C1181.67 590.002 1181.49 589.939 1181.3 589.877C1156.59 581.522 1128.35 596.18 1121.19 622.223C1115.67 641.862 1125.14 662.518 1143.38 671.074C1167.49 682.236 1196.65 669.968 1206.41 645.531C1206.41 645.531 1206.48 645.348 1206.56 645.165C1212.87 630.053 1235.1 629.776 1240.66 644.54C1256.4 686.015 1267.27 726.051 1272.82 761.896C1235.67 769.283 1193.82 781.832 1150.29 799.32C1134.79 805.509 1133.85 827.317 1149.15 832.493C1149.15 832.493 1149.34 832.555 1149.52 832.618C1174.18 840.85 1185.29 868.605 1172.54 892.656C1162.84 910.983 1141.14 921.102 1121.08 916.811C1094.63 911.194 1081.14 884.4 1090.9 859.963C1090.97 859.78 1091.05 859.597 1091.12 859.414C1096.88 844.116 1080.25 830.804 1065.53 838.71C1023.97 860.916 987.259 884.865 957.448 908.862Z" stroke="white" stroke-width="10.325" stroke-miterlimit="10"/>
</g>
<g filter="url(#filter3_d_1776_680)">
<path d="M901.976 902.22C866.27 907.725 824.975 909.72 780.612 907.347C764.879 906.543 757.849 885.371 769.901 874.567C770.049 874.44 770.196 874.314 770.344 874.187C790.186 857.251 792.077 825.489 773.386 805.989C759.353 791.183 736.76 788.731 720.065 800.005C698.126 814.98 693.711 846.308 709.689 867.217C709.689 867.217 709.808 867.374 709.927 867.531C719.667 880.697 708.513 899.922 692.983 897.133C649.303 889.389 609.354 878.202 575.735 864.587C588.434 828.904 599.111 786.536 606.41 740.194C609.038 723.718 590.798 711.727 578.509 722.217C578.509 722.217 578.36 722.344 578.212 722.47C558.504 739.422 528.975 734.738 514.86 711.461C504.099 693.733 506.53 669.921 520.499 654.891C538.879 635.062 568.803 637.21 584.781 658.119C584.9 658.276 585.019 658.433 585.138 658.59C595.322 671.377 615.278 663.918 616.036 647.227C618.272 600.16 616.525 556.364 611.202 518.467C646.908 512.962 688.203 510.968 732.566 513.341C748.299 514.145 755.33 535.317 743.278 546.121C743.13 546.248 742.982 546.374 742.833 546.5C722.992 563.436 721.102 595.199 739.792 614.698C753.825 629.504 776.418 631.957 793.114 620.682C815.053 605.708 819.467 574.38 803.489 553.471C803.489 553.471 803.37 553.313 803.251 553.156C793.511 539.991 804.665 520.766 820.195 523.554C863.875 531.299 903.825 542.486 937.444 556.101C924.745 591.784 914.067 634.152 906.768 680.493C904.14 696.97 922.38 708.961 934.67 698.47C934.67 698.47 934.818 698.344 934.966 698.218C954.674 681.266 984.203 685.95 998.318 709.226C1009.08 726.954 1006.65 750.767 992.678 765.797C974.299 785.626 944.376 783.478 928.397 762.569C928.278 762.412 928.159 762.254 928.04 762.097C917.855 749.311 897.9 756.769 897.142 773.461C894.906 820.528 896.653 864.323 901.976 902.22Z" fill="#27B9F2"/>
<path d="M901.976 902.22C866.27 907.725 824.975 909.72 780.612 907.347C764.879 906.543 757.849 885.371 769.901 874.567C770.049 874.44 770.196 874.314 770.344 874.187C790.186 857.251 792.077 825.489 773.386 805.989C759.353 791.183 736.76 788.731 720.065 800.005C698.126 814.98 693.711 846.308 709.689 867.217C709.689 867.217 709.808 867.374 709.927 867.531C719.667 880.697 708.513 899.922 692.983 897.133C649.303 889.389 609.354 878.202 575.735 864.587C588.434 828.904 599.111 786.536 606.41 740.194C609.038 723.718 590.798 711.727 578.509 722.217C578.509 722.217 578.36 722.344 578.212 722.47C558.504 739.422 528.975 734.738 514.86 711.461C504.099 693.733 506.53 669.921 520.499 654.891C538.879 635.062 568.803 637.21 584.781 658.119C584.9 658.276 585.019 658.433 585.138 658.59C595.322 671.377 615.278 663.918 616.036 647.227C618.272 600.16 616.525 556.364 611.202 518.467C646.908 512.962 688.203 510.968 732.566 513.341C748.299 514.145 755.33 535.317 743.278 546.121C743.13 546.248 742.982 546.374 742.833 546.5C722.992 563.436 721.102 595.199 739.792 614.698C753.825 629.504 776.418 631.957 793.114 620.682C815.053 605.708 819.467 574.38 803.489 553.471C803.489 553.471 803.37 553.313 803.251 553.156C793.511 539.991 804.665 520.766 820.195 523.554C863.875 531.299 903.825 542.486 937.444 556.101C924.745 591.784 914.067 634.152 906.768 680.493C904.14 696.97 922.38 708.961 934.67 698.47C934.67 698.47 934.818 698.344 934.966 698.218C954.674 681.266 984.203 685.95 998.318 709.226C1009.08 726.954 1006.65 750.767 992.678 765.797C974.299 785.626 944.376 783.478 928.397 762.569C928.278 762.412 928.159 762.254 928.04 762.097C917.855 749.311 897.9 756.769 897.142 773.461C894.906 820.528 896.653 864.323 901.976 902.22Z" stroke="white" stroke-width="10.325" stroke-miterlimit="10"/>
</g>
<path d="M-56.9019 362.913C-7.78996 357.267 48.8044 356.72 109.392 362.311C130.88 364.243 139.505 393.581 122.509 407.727C122.3 407.893 122.092 408.058 121.884 408.223C93.9414 430.347 89.8636 473.705 114.521 501.372C133.026 522.371 163.824 526.921 187.196 512.377C217.916 493.048 225.427 450.417 204.546 420.964C204.546 420.964 204.391 420.743 204.236 420.522C191.527 401.994 207.69 376.279 228.808 380.915C288.208 393.819 342.343 411.236 387.702 431.64C368.652 479.791 352.055 537.196 339.894 600.216C335.525 622.62 359.918 639.99 377.225 626.287C377.225 626.287 377.434 626.122 377.643 625.956C405.403 603.804 445.586 611.773 463.806 644.366C477.697 669.19 473.254 701.643 453.435 721.469C427.357 747.628 386.515 743.108 365.635 713.656C365.479 713.435 365.324 713.213 365.169 712.992C351.834 694.96 324.181 704.11 322.361 726.908C317.092 791.187 317.426 851.202 322.93 903.334C273.819 908.98 217.225 909.528 156.638 903.936C135.149 902.005 126.523 872.666 143.52 858.52C143.728 858.355 143.937 858.19 144.146 858.025C172.088 835.901 176.165 792.543 151.508 764.875C133.002 743.876 102.205 739.326 78.8329 753.871C48.1126 773.2 40.602 815.831 61.4824 845.283C61.4824 845.283 61.6384 845.505 61.794 845.726C74.5026 864.253 58.3386 889.968 37.2208 885.332C-22.1798 872.429 -76.314 855.011 -121.673 834.607C-102.624 786.456 -86.0253 729.052 -73.8641 666.032C-69.4949 643.627 -93.8892 626.257 -111.197 639.961C-111.197 639.961 -111.406 640.126 -111.614 640.291C-139.375 662.443 -179.557 654.474 -197.776 621.882C-211.668 597.057 -207.224 564.604 -187.405 544.779C-161.327 518.619 -120.487 523.139 -99.6062 552.592C-99.4506 552.813 -99.2945 553.034 -99.1388 553.255C-85.8047 571.288 -58.1511 562.137 -56.331 539.34C-51.0622 475.061 -51.3975 415.046 -56.9019 362.913Z" fill="url(#paint2_linear_1776_680)" stroke="white" stroke-width="10.325" stroke-miterlimit="10"/>
<g filter="url(#filter4_d_1776_680)">
<path d="M350.042 849C385.748 854.505 427.043 856.5 471.407 854.127C487.139 853.323 494.169 832.151 482.118 821.347C481.97 821.22 481.822 821.094 481.674 820.967C461.832 804.031 459.942 772.269 478.632 752.769C492.665 737.964 515.258 735.511 531.953 746.785C553.893 761.76 558.307 793.088 542.329 813.997C542.329 813.997 542.21 814.154 542.091 814.311C532.351 827.477 543.505 846.702 559.035 843.913C602.715 836.169 642.664 824.982 676.283 811.367C663.584 775.684 652.907 733.316 645.608 686.975C642.98 670.498 661.22 658.507 673.51 668.997C673.51 668.997 673.658 669.124 673.806 669.25C693.514 686.202 723.044 681.518 737.158 658.242C747.919 640.513 745.489 616.701 731.519 601.671C713.139 581.842 683.215 583.99 667.237 604.899C667.118 605.056 666.999 605.213 666.88 605.37C656.696 618.157 636.74 610.698 635.983 594.007C633.746 546.94 635.493 503.144 640.816 465.247C605.11 459.742 563.816 457.748 519.452 460.121C503.719 460.925 496.689 482.097 508.74 492.901C508.888 493.028 509.037 493.154 509.185 493.28C529.026 510.216 530.916 541.979 512.226 561.478C498.193 576.284 475.6 578.737 458.905 567.463C436.966 552.488 432.551 521.16 448.529 500.251C448.529 500.251 448.648 500.093 448.768 499.936C458.508 486.771 447.353 467.546 431.823 470.334C388.143 478.079 348.194 489.266 314.575 502.881C327.274 538.564 337.952 580.932 345.251 627.273C347.879 643.75 329.638 655.741 317.348 645.25C317.348 645.25 317.2 645.124 317.052 644.998C297.344 628.046 267.815 632.73 253.7 656.006C242.939 673.734 245.37 697.547 259.34 712.577C277.72 732.406 307.643 730.258 323.621 709.349C323.74 709.192 323.86 709.034 323.979 708.877C334.163 696.091 354.118 703.55 354.876 720.241C357.112 767.308 355.365 811.103 350.042 849Z" fill="url(#paint3_linear_1776_680)"/>
<path d="M350.042 849C385.748 854.505 427.043 856.5 471.407 854.127C487.139 853.323 494.169 832.151 482.118 821.347C481.97 821.22 481.822 821.094 481.674 820.967C461.832 804.031 459.942 772.269 478.632 752.769C492.665 737.964 515.258 735.511 531.953 746.785C553.893 761.76 558.307 793.088 542.329 813.997C542.329 813.997 542.21 814.154 542.091 814.311C532.351 827.477 543.505 846.702 559.035 843.913C602.715 836.169 642.664 824.982 676.283 811.367C663.584 775.684 652.907 733.316 645.608 686.975C642.98 670.498 661.22 658.507 673.51 668.997C673.51 668.997 673.658 669.124 673.806 669.25C693.514 686.202 723.044 681.518 737.158 658.242C747.919 640.513 745.489 616.701 731.519 601.671C713.139 581.842 683.215 583.99 667.237 604.899C667.118 605.056 666.999 605.213 666.88 605.37C656.696 618.157 636.74 610.698 635.983 594.007C633.746 546.94 635.493 503.144 640.816 465.247C605.11 459.742 563.816 457.748 519.452 460.121C503.719 460.925 496.689 482.097 508.74 492.901C508.888 493.028 509.037 493.154 509.185 493.28C529.026 510.216 530.916 541.979 512.226 561.478C498.193 576.284 475.6 578.737 458.905 567.463C436.966 552.488 432.551 521.16 448.529 500.251C448.529 500.251 448.648 500.093 448.768 499.936C458.508 486.771 447.353 467.546 431.823 470.334C388.143 478.079 348.194 489.266 314.575 502.881C327.274 538.564 337.952 580.932 345.251 627.273C347.879 643.75 329.638 655.741 317.348 645.25C317.348 645.25 317.2 645.124 317.052 644.998C297.344 628.046 267.815 632.73 253.7 656.006C242.939 673.734 245.37 697.547 259.34 712.577C277.72 732.406 307.643 730.258 323.621 709.349C323.74 709.192 323.86 709.034 323.979 708.877C334.163 696.091 354.118 703.55 354.876 720.241C357.112 767.308 355.365 811.103 350.042 849Z" stroke="white" stroke-width="10.325" stroke-miterlimit="10"/>
</g>
<g filter="url(#filter5_d_1776_680)">
<path d="M38.3347 73.3372C71.0463 81.6734 107.453 95.1001 145.093 113.435C158.454 119.905 157.64 140.816 143.682 145.749C143.513 145.804 143.344 145.86 143.174 145.915C120.473 153.298 108.482 180.107 118.309 203.85C125.634 221.82 144.397 232.234 162.529 228.598C186.407 223.683 200.442 198.177 193.422 174.208C193.422 174.208 193.371 174.029 193.319 173.849C189.177 158.875 205.101 146.321 217.64 154.435C252.937 177.17 283.882 201.516 308.554 225.642C285.926 251.879 262.87 284.647 241.444 322.095C233.797 335.397 245.682 352.473 259.743 347.9C259.743 347.9 259.912 347.845 260.082 347.79C282.672 340.344 306.715 355.236 311.349 380.57C314.888 399.869 305.02 419.596 288.025 427.484C265.647 437.909 240.436 425.068 233.417 401.1C233.365 400.92 233.313 400.74 233.261 400.561C228.611 385.752 208.901 384.887 202.804 399.062C185.524 438.995 172.76 477.558 165.016 512.326C132.304 503.99 95.8979 490.564 58.2579 472.229C44.8974 465.759 45.7109 444.847 59.6683 439.914C59.8377 439.859 60.0074 439.804 60.1768 439.749C82.8781 432.365 94.8684 405.557 85.0413 381.813C77.7167 363.844 58.9533 353.429 40.8218 357.065C16.9438 361.98 2.90876 387.487 9.92818 411.455C9.92818 411.455 9.98035 411.635 10.0323 411.815C14.1744 426.788 -1.751 439.342 -14.2893 431.228C-49.5867 408.494 -80.5312 384.147 -105.203 360.021C-82.5757 333.784 -59.5186 301.017 -38.0924 263.569C-30.4459 250.266 -42.3311 233.19 -56.3924 237.763C-56.3924 237.763 -56.562 237.818 -56.7314 237.874C-79.322 245.319 -103.364 230.428 -107.998 205.094C-111.537 185.794 -101.669 166.067 -84.6739 158.18C-62.2955 147.755 -37.0859 160.595 -30.0664 184.564C-30.0145 184.743 -29.9622 184.923 -29.9103 185.103C-25.26 199.912 -5.54958 200.776 0.54748 186.602C17.8266 146.668 30.5902 108.105 38.3347 73.3372Z" fill="url(#paint4_linear_1776_680)"/>
<path d="M38.3347 73.3372C71.0463 81.6734 107.453 95.1001 145.093 113.435C158.454 119.905 157.64 140.816 143.682 145.749C143.513 145.804 143.344 145.86 143.174 145.915C120.473 153.298 108.482 180.107 118.309 203.85C125.634 221.82 144.397 232.234 162.529 228.598C186.407 223.683 200.442 198.177 193.422 174.208C193.422 174.208 193.371 174.029 193.319 173.849C189.177 158.875 205.101 146.321 217.64 154.435C252.937 177.17 283.882 201.516 308.554 225.642C285.926 251.879 262.87 284.647 241.444 322.095C233.797 335.397 245.682 352.473 259.743 347.9C259.743 347.9 259.912 347.845 260.082 347.79C282.672 340.344 306.715 355.236 311.349 380.57C314.888 399.869 305.02 419.596 288.025 427.484C265.647 437.909 240.436 425.068 233.417 401.1C233.365 400.92 233.313 400.74 233.261 400.561C228.611 385.752 208.901 384.887 202.804 399.062C185.524 438.995 172.76 477.558 165.016 512.326C132.304 503.99 95.8979 490.564 58.2579 472.229C44.8974 465.759 45.7109 444.847 59.6683 439.914C59.8377 439.859 60.0074 439.804 60.1768 439.749C82.8781 432.365 94.8684 405.557 85.0413 381.813C77.7167 363.844 58.9533 353.429 40.8218 357.065C16.9438 361.98 2.90876 387.487 9.92818 411.455C9.92818 411.455 9.98035 411.635 10.0323 411.815C14.1744 426.788 -1.751 439.342 -14.2893 431.228C-49.5867 408.494 -80.5312 384.147 -105.203 360.021C-82.5757 333.784 -59.5186 301.017 -38.0924 263.569C-30.4459 250.266 -42.3311 233.19 -56.3924 237.763C-56.3924 237.763 -56.562 237.818 -56.7314 237.874C-79.322 245.319 -103.364 230.428 -107.998 205.094C-111.537 185.794 -101.669 166.067 -84.6739 158.18C-62.2955 147.755 -37.0859 160.595 -30.0664 184.564C-30.0145 184.743 -29.9622 184.923 -29.9103 185.103C-25.26 199.912 -5.54958 200.776 0.54748 186.602C17.8266 146.668 30.5902 108.105 38.3347 73.3372Z" stroke="white" stroke-width="10.325" stroke-miterlimit="10"/>
</g>
<g filter="url(#filter6_d_1776_680)">
<path d="M1741.22 78.183C1708.51 86.5192 1672.1 99.9459 1634.46 118.281C1621.1 124.75 1621.92 145.662 1635.88 150.595C1636.04 150.65 1636.21 150.705 1636.38 150.761C1659.08 158.144 1671.08 184.952 1661.25 208.696C1653.92 226.665 1635.16 237.08 1617.03 233.444C1593.15 228.529 1579.12 203.022 1586.14 179.054C1586.14 179.054 1586.19 178.875 1586.24 178.695C1590.38 163.721 1574.46 151.167 1561.92 159.281C1526.62 182.015 1495.68 206.362 1471 230.488C1493.63 256.725 1516.69 289.493 1538.11 326.941C1545.76 340.243 1533.88 357.319 1519.81 352.746C1519.81 352.746 1519.65 352.691 1519.48 352.635C1496.89 345.19 1472.84 360.082 1468.21 385.416C1464.67 404.715 1474.54 424.442 1491.53 432.33C1513.91 442.755 1539.12 429.914 1546.14 405.945C1546.19 405.766 1546.24 405.586 1546.3 405.406C1550.95 390.598 1570.66 389.733 1576.75 403.908C1594.03 443.841 1606.8 482.404 1614.54 517.172C1647.25 508.836 1683.66 495.409 1721.3 477.074C1734.66 470.605 1733.85 449.693 1719.89 444.76C1719.72 444.705 1719.55 444.65 1719.38 444.595C1696.68 437.211 1684.69 410.402 1694.52 386.659C1701.84 368.689 1720.6 358.275 1738.74 361.911C1762.61 366.826 1776.65 392.333 1769.63 416.301C1769.63 416.301 1769.58 416.481 1769.53 416.66C1765.38 431.634 1781.31 444.188 1793.85 436.074C1829.14 413.339 1860.09 388.993 1884.76 364.867C1862.13 338.63 1839.08 305.862 1817.65 268.414C1810 255.112 1821.89 238.036 1835.95 242.609C1835.95 242.609 1836.12 242.664 1836.29 242.719C1858.88 250.165 1882.92 235.273 1887.56 209.94C1891.09 190.64 1881.23 170.913 1864.23 163.026C1841.85 152.601 1816.64 165.441 1809.62 189.41C1809.57 189.589 1809.52 189.769 1809.47 189.949C1804.82 204.757 1785.11 205.622 1779.01 191.448C1761.73 151.514 1748.97 112.951 1741.22 78.183Z" fill="url(#paint5_linear_1776_680)"/>
<path d="M1741.22 78.183C1708.51 86.5192 1672.1 99.9459 1634.46 118.281C1621.1 124.75 1621.92 145.662 1635.88 150.595C1636.04 150.65 1636.21 150.705 1636.38 150.761C1659.08 158.144 1671.08 184.952 1661.25 208.696C1653.92 226.665 1635.16 237.08 1617.03 233.444C1593.15 228.529 1579.12 203.022 1586.14 179.054C1586.14 179.054 1586.19 178.875 1586.24 178.695C1590.38 163.721 1574.46 151.167 1561.92 159.281C1526.62 182.015 1495.68 206.362 1471 230.488C1493.63 256.725 1516.69 289.493 1538.11 326.941C1545.76 340.243 1533.88 357.319 1519.81 352.746C1519.81 352.746 1519.65 352.691 1519.48 352.635C1496.89 345.19 1472.84 360.082 1468.21 385.416C1464.67 404.715 1474.54 424.442 1491.53 432.33C1513.91 442.755 1539.12 429.914 1546.14 405.945C1546.19 405.766 1546.24 405.586 1546.3 405.406C1550.95 390.598 1570.66 389.733 1576.75 403.908C1594.03 443.841 1606.8 482.404 1614.54 517.172C1647.25 508.836 1683.66 495.409 1721.3 477.074C1734.66 470.605 1733.85 449.693 1719.89 444.76C1719.72 444.705 1719.55 444.65 1719.38 444.595C1696.68 437.211 1684.69 410.402 1694.52 386.659C1701.84 368.689 1720.6 358.275 1738.74 361.911C1762.61 366.826 1776.65 392.333 1769.63 416.301C1769.63 416.301 1769.58 416.481 1769.53 416.66C1765.38 431.634 1781.31 444.188 1793.85 436.074C1829.14 413.339 1860.09 388.993 1884.76 364.867C1862.13 338.63 1839.08 305.862 1817.65 268.414C1810 255.112 1821.89 238.036 1835.95 242.609C1835.95 242.609 1836.12 242.664 1836.29 242.719C1858.88 250.165 1882.92 235.273 1887.56 209.94C1891.09 190.64 1881.23 170.913 1864.23 163.026C1841.85 152.601 1816.64 165.441 1809.62 189.41C1809.57 189.589 1809.52 189.769 1809.47 189.949C1804.82 204.757 1785.11 205.622 1779.01 191.448C1761.73 151.514 1748.97 112.951 1741.22 78.183Z" stroke="white" stroke-width="10.325" stroke-miterlimit="10"/>
</g>
</g>
<g filter="url(#filter7_dddddd_1776_680)">
<path d="M45.3381 78.1827C78.0498 86.5188 114.457 99.9455 152.097 118.28C165.457 124.75 164.643 145.662 150.686 150.595C150.516 150.65 150.347 150.705 150.178 150.76C127.476 158.144 115.485 184.952 125.313 208.695C132.637 226.665 151.401 237.08 169.532 233.444C193.41 228.529 207.445 203.022 200.426 179.054C200.426 179.054 200.374 178.874 200.322 178.695C196.18 163.721 212.105 151.167 224.643 159.28C259.941 182.015 290.885 206.362 315.557 230.488C292.93 256.725 269.873 289.492 248.447 326.94C240.8 340.243 252.685 357.319 266.746 352.745C266.746 352.745 266.916 352.69 267.085 352.635C289.676 345.189 313.718 360.081 318.352 385.415C321.891 404.715 312.024 424.442 295.028 432.329C272.65 442.754 247.44 429.913 240.42 405.945C240.368 405.765 240.317 405.586 240.265 405.406C235.615 390.597 215.904 389.733 209.807 403.907C192.528 443.841 179.764 482.404 172.019 517.171C139.308 508.835 102.901 495.409 65.2613 477.074C51.9008 470.604 52.7144 449.692 66.6717 444.759C66.8411 444.704 67.0108 444.649 67.1802 444.594C89.8815 437.211 101.872 410.402 92.0447 386.659C84.7201 368.689 65.9568 358.274 47.8252 361.91C23.9472 366.825 9.91218 392.332 16.9316 416.3C16.9316 416.3 16.9838 416.48 17.0357 416.66C21.1778 431.634 5.25241 444.187 -7.28588 436.074C-42.5833 413.339 -73.5277 388.992 -98.1997 364.866C-75.5723 338.629 -52.5152 305.862 -31.089 268.414C-23.4424 255.112 -35.3277 238.035 -49.3889 242.609C-49.3889 242.609 -49.5586 242.664 -49.728 242.719C-72.3185 250.165 -96.3602 235.273 -100.994 209.939C-104.533 190.64 -94.666 170.913 -77.6704 163.025C-55.2921 152.6 -30.0824 165.441 -23.063 189.409C-23.0111 189.589 -22.9588 189.769 -22.9069 189.949C-18.2566 204.757 1.45385 205.622 7.55091 191.447C24.83 151.514 37.5936 112.95 45.3381 78.1827Z" stroke="white" stroke-width="10.325" stroke-miterlimit="10"/>
</g>
<g filter="url(#filter8_dddddd_1776_680)">
<path d="M1748.23 78.1836C1715.51 86.5198 1679.11 99.9465 1641.47 118.281C1628.11 124.751 1628.92 145.663 1642.88 150.596C1643.05 150.651 1643.22 150.706 1643.39 150.761C1666.09 158.145 1678.08 184.953 1668.25 208.696C1660.93 226.666 1642.16 237.081 1624.03 233.445C1600.15 228.53 1586.12 203.023 1593.14 179.055C1593.14 179.055 1593.19 178.875 1593.24 178.695C1597.38 163.722 1581.46 151.168 1568.92 159.281C1533.62 182.016 1502.68 206.363 1478.01 230.489C1500.63 256.726 1523.69 289.493 1545.12 326.941C1552.76 340.244 1540.88 357.32 1526.82 352.746C1526.82 352.746 1526.65 352.691 1526.48 352.636C1503.89 345.19 1479.85 360.082 1475.21 385.416C1471.67 404.716 1481.54 424.443 1498.54 432.33C1520.91 442.755 1546.12 429.914 1553.14 405.946C1553.2 405.766 1553.25 405.587 1553.3 405.407C1557.95 390.598 1577.66 389.734 1583.76 403.908C1601.04 443.842 1613.8 482.405 1621.55 517.172C1654.26 508.836 1690.66 495.41 1728.3 477.075C1741.66 470.605 1740.85 449.693 1726.89 444.76C1726.72 444.705 1726.55 444.65 1726.38 444.595C1703.68 437.212 1691.69 410.403 1701.52 386.66C1708.84 368.69 1727.61 358.275 1745.74 361.911C1769.62 366.826 1783.65 392.333 1776.63 416.301C1776.63 416.301 1776.58 416.481 1776.53 416.661C1772.39 431.635 1788.31 444.188 1800.85 436.075C1836.15 413.34 1867.09 388.993 1891.76 364.867C1869.14 338.63 1846.08 305.863 1824.65 268.415C1817.01 255.113 1828.89 238.036 1842.95 242.61C1842.95 242.61 1843.12 242.665 1843.29 242.72C1865.88 250.166 1889.92 235.274 1894.56 209.94C1898.1 190.641 1888.23 170.914 1871.23 163.026C1848.86 152.601 1823.65 165.442 1816.63 189.41C1816.58 189.59 1816.52 189.77 1816.47 189.95C1811.82 204.758 1792.11 205.623 1786.01 191.448C1768.73 151.515 1755.97 112.951 1748.23 78.1836Z" stroke="white" stroke-width="10.325" stroke-miterlimit="10"/>
</g>
<defs>
<filter id="filter0_d_1776_680" x="-238.489" y="8.4801" width="2248.27" height="914.498" filterUnits="userSpaceOnUse" color-interpolation-filters="sRGB">
<feFlood flood-opacity="0" result="BackgroundImageFix"/>
<feColorMatrix in="SourceAlpha" type="matrix" values="0 0 0 0 0 0 0 0 0 0 0 0 0 0 0 0 0 0 127 0" result="hardAlpha"/>
<feOffset dy="-31"/>
<feGaussianBlur stdDeviation="13.75"/>
<feComposite in2="hardAlpha" operator="out"/>
<feColorMatrix type="matrix" values="0 0 0 0 0 0 0 0 0 0 0 0 0 0 0 0 0 0 0.25 0"/>
<feBlend mode="normal" in2="BackgroundImageFix" result="effect1_dropShadow_1776_680"/>
<feBlend mode="normal" in="SourceGraphic" in2="effect1_dropShadow_1776_680" result="shape"/>
</filter>
<filter id="filter1_d_1776_680" x="1065.21" y="450.967" width="516.02" height="416.64" filterUnits="userSpaceOnUse" color-interpolation-filters="sRGB">
<feFlood flood-opacity="0" result="BackgroundImageFix"/>
<feColorMatrix in="SourceAlpha" type="matrix" values="0 0 0 0 0 0 0 0 0 0 0 0 0 0 0 0 0 0 127 0" result="hardAlpha"/>
<feOffset dx="5.9" dy="7.375"/>
<feGaussianBlur stdDeviation="1.475"/>
<feComposite in2="hardAlpha" operator="out"/>
<feColorMatrix type="matrix" values="0 0 0 0 0 0 0 0 0 0 0 0 0 0 0 0 0 0 0.25 0"/>
<feBlend mode="normal" in2="BackgroundImageFix" result="effect1_dropShadow_1776_680"/>
<feBlend mode="normal" in="SourceGraphic" in2="effect1_dropShadow_1776_680" result="shape"/>
</filter>
<filter id="filter2_d_1776_680" x="816.689" y="448.367" width="470.821" height="484.936" filterUnits="userSpaceOnUse" color-interpolation-filters="sRGB">
<feFlood flood-opacity="0" result="BackgroundImageFix"/>
<feColorMatrix in="SourceAlpha" type="matrix" values="0 0 0 0 0 0 0 0 0 0 0 0 0 0 0 0 0 0 127 0" result="hardAlpha"/>
<feOffset dx="5.9" dy="7.375"/>
<feGaussianBlur stdDeviation="1.475"/>
<feComposite in2="hardAlpha" operator="out"/>
<feColorMatrix type="matrix" values="0 0 0 0 0 0 0 0 0 0 0 0 0 0 0 0 0 0 0.25 0"/>
<feBlend mode="normal" in2="BackgroundImageFix" result="effect1_dropShadow_1776_680"/>
<feBlend mode="normal" in="SourceGraphic" in2="effect1_dropShadow_1776_680" result="shape"/>
</filter>
<filter id="filter3_d_1776_680" x="503.004" y="507.186" width="516.02" height="416.64" filterUnits="userSpaceOnUse" color-interpolation-filters="sRGB">
<feFlood flood-opacity="0" result="BackgroundImageFix"/>
<feColorMatrix in="SourceAlpha" type="matrix" values="0 0 0 0 0 0 0 0 0 0 0 0 0 0 0 0 0 0 127 0" result="hardAlpha"/>
<feOffset dx="5.9" dy="7.375"/>
<feGaussianBlur stdDeviation="1.475"/>
<feComposite in2="hardAlpha" operator="out"/>
<feColorMatrix type="matrix" values="0 0 0 0 0 0 0 0 0 0 0 0 0 0 0 0 0 0 0.25 0"/>
<feBlend mode="normal" in2="BackgroundImageFix" result="effect1_dropShadow_1776_680"/>
<feBlend mode="normal" in="SourceGraphic" in2="effect1_dropShadow_1776_680" result="shape"/>
</filter>
<filter id="filter4_d_1776_680" x="241.844" y="453.966" width="516.02" height="416.64" filterUnits="userSpaceOnUse" color-interpolation-filters="sRGB">
<feFlood flood-opacity="0" result="BackgroundImageFix"/>
<feColorMatrix in="SourceAlpha" type="matrix" values="0 0 0 0 0 0 0 0 0 0 0 0 0 0 0 0 0 0 127 0" result="hardAlpha"/>
<feOffset dx="5.9" dy="7.375"/>
<feGaussianBlur stdDeviation="1.475"/>
<feComposite in2="hardAlpha" operator="out"/>
<feColorMatrix type="matrix" values="0 0 0 0 0 0 0 0 0 0 0 0 0 0 0 0 0 0 0.25 0"/>
<feBlend mode="normal" in2="BackgroundImageFix" result="effect1_dropShadow_1776_680"/>
<feBlend mode="normal" in="SourceGraphic" in2="effect1_dropShadow_1776_680" result="shape"/>
</filter>
<filter id="filter5_d_1776_680" x="-113.771" y="66.9801" width="439.743" height="462.766" filterUnits="userSpaceOnUse" color-interpolation-filters="sRGB">
<feFlood flood-opacity="0" result="BackgroundImageFix"/>
<feColorMatrix in="SourceAlpha" type="matrix" values="0 0 0 0 0 0 0 0 0 0 0 0 0 0 0 0 0 0 127 0" result="hardAlpha"/>
<feOffset dx="5.9" dy="8.1125"/>
<feGaussianBlur stdDeviation="1.475"/>
<feComposite in2="hardAlpha" operator="out"/>
<feColorMatrix type="matrix" values="0 0 0 0 0 0 0 0 0 0 0 0 0 0 0 0 0 0 0.25 0"/>
<feBlend mode="normal" in2="BackgroundImageFix" result="effect1_dropShadow_1776_680"/>
<feBlend mode="normal" in="SourceGraphic" in2="effect1_dropShadow_1776_680" result="shape"/>
</filter>
<filter id="filter6_d_1776_680" x="1462.44" y="71.8259" width="439.743" height="462.766" filterUnits="userSpaceOnUse" color-interpolation-filters="sRGB">
<feFlood flood-opacity="0" result="BackgroundImageFix"/>
<feColorMatrix in="SourceAlpha" type="matrix" values="0 0 0 0 0 0 0 0 0 0 0 0 0 0 0 0 0 0 127 0" result="hardAlpha"/>
<feOffset dx="5.9" dy="8.1125"/>
<feGaussianBlur stdDeviation="1.475"/>
<feComposite in2="hardAlpha" operator="out"/>
<feColorMatrix type="matrix" values="0 0 0 0 0 0 0 0 0 0 0 0 0 0 0 0 0 0 0.25 0"/>
<feBlend mode="normal" in2="BackgroundImageFix" result="effect1_dropShadow_1776_680"/>
<feBlend mode="normal" in="SourceGraphic" in2="effect1_dropShadow_1776_680" result="shape"/>
</filter>
<filter id="filter7_dddddd_1776_680" x="-178.11" y="0.482979" width="573.578" height="594.388" filterUnits="userSpaceOnUse" color-interpolation-filters="sRGB">
<feFlood flood-opacity="0" result="BackgroundImageFix"/>
<feColorMatrix in="SourceAlpha" type="matrix" values="0 0 0 0 0 0 0 0 0 0 0 0 0 0 0 0 0 0 127 0" result="hardAlpha"/>
<feOffset/>
<feGaussianBlur stdDeviation="0.849316"/>
<feColorMatrix type="matrix" values="0 0 0 0 1 0 0 0 0 1 0 0 0 0 1 0 0 0 1 0"/>
<feBlend mode="normal" in2="BackgroundImageFix" result="effect1_dropShadow_1776_680"/>
<feColorMatrix in="SourceAlpha" type="matrix" values="0 0 0 0 0 0 0 0 0 0 0 0 0 0 0 0 0 0 127 0" result="hardAlpha"/>
<feOffset/>
<feGaussianBlur stdDeviation="1.69863"/>
<feColorMatrix type="matrix" values="0 0 0 0 1 0 0 0 0 1 0 0 0 0 1 0 0 0 1 0"/>
<feBlend mode="normal" in2="effect1_dropShadow_1776_680" result="effect2_dropShadow_1776_680"/>
<feColorMatrix in="SourceAlpha" type="matrix" values="0 0 0 0 0 0 0 0 0 0 0 0 0 0 0 0 0 0 127 0" result="hardAlpha"/>
<feOffset/>
<feGaussianBlur stdDeviation="5.94522"/>
<feColorMatrix type="matrix" values="0 0 0 0 1 0 0 0 0 1 0 0 0 0 1 0 0 0 1 0"/>
<feBlend mode="normal" in2="effect2_dropShadow_1776_680" result="effect3_dropShadow_1776_680"/>
<feColorMatrix in="SourceAlpha" type="matrix" values="0 0 0 0 0 0 0 0 0 0 0 0 0 0 0 0 0 0 127 0" result="hardAlpha"/>
<feOffset/>
<feGaussianBlur stdDeviation="11.8904"/>
<feColorMatrix type="matrix" values="0 0 0 0 1 0 0 0 0 1 0 0 0 0 1 0 0 0 1 0"/>
<feBlend mode="normal" in2="effect3_dropShadow_1776_680" result="effect4_dropShadow_1776_680"/>
<feColorMatrix in="SourceAlpha" type="matrix" values="0 0 0 0 0 0 0 0 0 0 0 0 0 0 0 0 0 0 127 0" result="hardAlpha"/>
<feOffset/>
<feGaussianBlur stdDeviation="20.3836"/>
<feColorMatrix type="matrix" values="0 0 0 0 1 0 0 0 0 1 0 0 0 0 1 0 0 0 1 0"/>
<feBlend mode="normal" in2="effect4_dropShadow_1776_680" result="effect5_dropShadow_1776_680"/>
<feColorMatrix in="SourceAlpha" type="matrix" values="0 0 0 0 0 0 0 0 0 0 0 0 0 0 0 0 0 0 127 0" result="hardAlpha"/>
<feOffset/>
<feGaussianBlur stdDeviation="35.6713"/>
<feColorMatrix type="matrix" values="0 0 0 0 1 0 0 0 0 1 0 0 0 0 1 0 0 0 1 0"/>
<feBlend mode="normal" in2="effect5_dropShadow_1776_680" result="effect6_dropShadow_1776_680"/>
<feBlend mode="normal" in="SourceGraphic" in2="effect6_dropShadow_1776_680" result="shape"/>
</filter>
<filter id="filter8_dddddd_1776_680" x="1398.1" y="0.483955" width="573.578" height="594.388" filterUnits="userSpaceOnUse" color-interpolation-filters="sRGB">
<feFlood flood-opacity="0" result="BackgroundImageFix"/>
<feColorMatrix in="SourceAlpha" type="matrix" values="0 0 0 0 0 0 0 0 0 0 0 0 0 0 0 0 0 0 127 0" result="hardAlpha"/>
<feOffset/>
<feGaussianBlur stdDeviation="0.849316"/>
<feColorMatrix type="matrix" values="0 0 0 0 1 0 0 0 0 1 0 0 0 0 1 0 0 0 1 0"/>
<feBlend mode="normal" in2="BackgroundImageFix" result="effect1_dropShadow_1776_680"/>
<feColorMatrix in="SourceAlpha" type="matrix" values="0 0 0 0 0 0 0 0 0 0 0 0 0 0 0 0 0 0 127 0" result="hardAlpha"/>
<feOffset/>
<feGaussianBlur stdDeviation="1.69863"/>
<feColorMatrix type="matrix" values="0 0 0 0 1 0 0 0 0 1 0 0 0 0 1 0 0 0 1 0"/>
<feBlend mode="normal" in2="effect1_dropShadow_1776_680" result="effect2_dropShadow_1776_680"/>
<feColorMatrix in="SourceAlpha" type="matrix" values="0 0 0 0 0 0 0 0 0 0 0 0 0 0 0 0 0 0 127 0" result="hardAlpha"/>
<feOffset/>
<feGaussianBlur stdDeviation="5.94522"/>
<feColorMatrix type="matrix" values="0 0 0 0 1 0 0 0 0 1 0 0 0 0 1 0 0 0 1 0"/>
<feBlend mode="normal" in2="effect2_dropShadow_1776_680" result="effect3_dropShadow_1776_680"/>
<feColorMatrix in="SourceAlpha" type="matrix" values="0 0 0 0 0 0 0 0 0 0 0 0 0 0 0 0 0 0 127 0" result="hardAlpha"/>
<feOffset/>
<feGaussianBlur stdDeviation="11.8904"/>
<feColorMatrix type="matrix" values="0 0 0 0 1 0 0 0 0 1 0 0 0 0 1 0 0 0 1 0"/>
<feBlend mode="normal" in2="effect3_dropShadow_1776_680" result="effect4_dropShadow_1776_680"/>
<feColorMatrix in="SourceAlpha" type="matrix" values="0 0 0 0 0 0 0 0 0 0 0 0 0 0 0 0 0 0 127 0" result="hardAlpha"/>
<feOffset/>
<feGaussianBlur stdDeviation="20.3836"/>
<feColorMatrix type="matrix" values="0 0 0 0 1 0 0 0 0 1 0 0 0 0 1 0 0 0 1 0"/>
<feBlend mode="normal" in2="effect4_dropShadow_1776_680" result="effect5_dropShadow_1776_680"/>
<feColorMatrix in="SourceAlpha" type="matrix" values="0 0 0 0 0 0 0 0 0 0 0 0 0 0 0 0 0 0 127 0" result="hardAlpha"/>
<feOffset/>
<feGaussianBlur stdDeviation="35.6713"/>
<feColorMatrix type="matrix" values="0 0 0 0 1 0 0 0 0 1 0 0 0 0 1 0 0 0 1 0"/>
<feBlend mode="normal" in2="effect5_dropShadow_1776_680" result="effect6_dropShadow_1776_680"/>
<feBlend mode="normal" in="SourceGraphic" in2="effect6_dropShadow_1776_680" result="shape"/>
</filter>
<linearGradient id="paint0_linear_1776_680" x1="1602.45" y1="374.859" x2="1682.91" y2="896.897" gradientUnits="userSpaceOnUse">
<stop offset="0.208576" stop-color="#52A8F2"/>
<stop offset="0.702429" stop-color="#6393F2"/>
</linearGradient>
<linearGradient id="paint1_linear_1776_680" x1="1299.2" y1="846.15" x2="1343.26" y2="462.658" gradientUnits="userSpaceOnUse">
<stop offset="0.467229" stop-color="#44D2F2"/>
<stop offset="0.675824" stop-color="#49C2F2"/>
</linearGradient>
<linearGradient id="paint2_linear_1776_680" x1="168.847" y1="371.426" x2="88.3812" y2="893.465" gradientUnits="userSpaceOnUse">
<stop offset="0.208576" stop-color="#52A8F2"/>
<stop offset="0.702429" stop-color="#6393F2"/>
</linearGradient>
<linearGradient id="paint3_linear_1776_680" x1="515.032" y1="849.149" x2="470.962" y2="465.658" gradientUnits="userSpaceOnUse">
<stop offset="0.467229" stop-color="#44D2F2"/>
<stop offset="0.675824" stop-color="#49C2F2"/>
</linearGradient>
<linearGradient id="paint4_linear_1776_680" x1="181.245" y1="133.754" x2="6.91414" y2="443.356" gradientUnits="userSpaceOnUse">
<stop offset="0.467229" stop-color="#44D2F2"/>
<stop offset="0.675824" stop-color="#49C2F2"/>
</linearGradient>
<linearGradient id="paint5_linear_1776_680" x1="1598.31" y1="138.599" x2="1772.64" y2="448.201" gradientUnits="userSpaceOnUse">
<stop offset="0.467229" stop-color="#44D2F2"/>
<stop offset="0.675824" stop-color="#49C2F2"/>
</linearGradient>
</defs>
</svg>
