<svg width="408" height="439" viewBox="0 0 408 439" fill="none" xmlns="http://www.w3.org/2000/svg">
<g filter="url(#filter0_d_249_272)">
<path d="M135.669 358.749C135.887 356.082 136.105 353.415 136.214 350.693C136.595 344.325 128.756 340.569 124.238 345.087C124.238 345.087 124.184 345.141 124.129 345.196C116.89 352.49 104.806 352 98.1654 343.781C93.1032 337.521 93.1035 328.376 98.1112 322.062C104.697 313.734 116.836 313.244 124.129 320.484C124.184 320.538 124.239 320.593 124.293 320.647C128.92 325.056 136.649 321.355 136.268 314.986C135.233 297.024 132.73 280.476 129.028 266.324C114.876 269.971 98.3289 272.529 80.3664 273.564C73.9979 273.945 70.2963 266.215 74.7053 261.589C74.7597 261.534 74.8143 261.48 74.8687 261.425C82.1626 254.131 81.6184 241.993 73.2903 235.407C67.0306 230.399 57.8314 230.453 51.5717 235.461C43.3525 242.102 42.8629 254.186 50.1568 261.425C50.1568 261.425 50.211 261.48 50.2654 261.534C54.7288 266.106 51.0276 273.89 44.6591 273.509C26.751 272.475 10.2035 269.971 -3.89436 266.27C-3.89436 283.688 -3.89436 380.468 -3.89436 399.138C10.2579 395.491 26.8052 392.933 44.7677 391.898C51.1363 391.517 54.8378 399.247 50.4289 403.873C50.3744 403.928 50.3198 403.982 50.2654 404.037C42.9715 411.331 43.5161 423.469 51.8441 430.055C58.1038 435.063 67.3027 435.008 73.5624 430.001C81.7816 423.36 82.2716 411.276 74.9777 404.037C74.9777 404.037 74.9231 403.982 74.8687 403.928C70.4053 399.356 74.1065 391.572 80.475 391.953C98.3831 392.987 114.931 395.491 129.028 399.192C132.131 387.217 134.417 373.555 135.669 358.695V358.749Z" fill="#49C2F2" stroke="white" stroke-width="3" stroke-miterlimit="10"/>
<path d="M261.579 265.897C247.427 262.25 230.879 259.692 212.917 258.658C206.548 258.277 202.847 266.006 207.256 270.633C207.31 270.687 207.365 270.742 207.419 270.796C214.713 278.09 214.169 290.228 205.841 296.815C199.581 301.822 190.382 301.768 184.123 296.76C175.903 290.119 175.413 278.036 182.707 270.796C182.707 270.796 182.762 270.742 182.816 270.687C187.28 266.115 183.578 258.331 177.21 258.712C159.301 259.747 142.754 262.25 128.656 265.952C125.01 251.854 122.451 235.307 121.417 217.398C121.036 211.03 128.874 207.274 133.392 211.792C133.392 211.792 133.447 211.847 133.501 211.901C140.74 219.195 152.824 218.705 159.465 210.486C164.527 204.226 164.527 195.082 159.519 188.767C152.933 180.439 140.795 179.949 133.501 187.189C133.447 187.243 133.392 187.298 133.338 187.352C128.711 191.761 120.981 188.06 121.362 181.691C122.397 163.729 124.901 147.181 128.602 133.029C142.754 136.676 159.302 139.234 177.264 140.269C183.633 140.65 187.334 132.92 182.925 128.294C182.87 128.239 182.816 128.185 182.762 128.13C175.468 120.836 176.012 108.698 184.34 102.112C190.6 97.1041 199.799 97.1586 206.058 102.166C214.278 108.807 214.768 120.891 207.474 128.13C207.474 128.13 207.419 128.185 207.365 128.239C202.902 132.811 206.603 140.595 212.971 140.214C230.879 139.18 247.427 136.676 261.524 132.975C265.171 147.073 267.73 163.62 268.764 181.528C269.145 187.896 261.307 191.652 256.789 187.134C256.789 187.134 256.735 187.08 256.68 187.026C249.441 179.732 237.357 180.222 230.716 188.441C225.654 194.701 225.654 203.845 230.662 210.159C237.248 218.487 249.386 218.977 256.68 211.738C256.735 211.683 256.789 211.629 256.843 211.574C261.47 207.165 269.199 210.867 268.818 217.235C267.784 235.198 265.28 251.745 261.579 265.897Z" fill="#6393F2" stroke="white" stroke-width="3" stroke-miterlimit="10"/>
<path d="M128.923 132.925C132.57 118.773 135.128 102.226 136.162 84.2633C136.543 77.8947 128.814 74.1933 124.187 78.6023C124.133 78.6567 124.078 78.7112 124.024 78.7656C116.73 86.0595 104.592 85.5153 98.0054 77.1872C92.9977 70.9275 93.0522 61.7284 98.0599 55.4688C104.701 47.2496 116.784 46.7598 124.024 54.0537C124.024 54.0537 124.078 54.108 124.133 54.1625C128.705 58.6259 136.489 54.9245 136.108 48.556C135.074 30.6479 132.57 14.1007 128.868 0.00288391C115.151 0.111755 10.8056 0.819366 -3.99982 0.00288391C-3.99982 18.8907 -3.99982 115.235 -3.99982 132.871C10.098 129.224 26.6452 126.666 44.5533 125.632C50.9218 125.25 54.6778 133.089 50.1599 137.607C50.1599 137.607 50.1054 137.661 50.051 137.715C42.7571 144.955 43.247 157.039 51.4662 163.679C57.7259 168.741 66.8704 168.742 73.1845 163.734C81.5126 157.148 82.0023 145.009 74.7629 137.715C74.7085 137.661 74.6542 137.607 74.5998 137.552C70.1908 132.925 73.8921 125.196 80.2606 125.577C98.2231 126.611 114.77 129.115 128.923 132.817V132.925Z" fill="#52A8F2" stroke="white" stroke-width="3" stroke-miterlimit="10"/>
<path d="M122.272 172.987C122.054 175.654 121.836 178.375 121.673 181.151C121.292 187.52 129.022 191.221 133.648 186.812C133.703 186.758 133.757 186.703 133.812 186.649C141.106 179.355 153.244 179.899 159.83 188.227C164.838 194.487 164.783 203.686 159.775 209.946C153.135 218.165 141.051 218.655 133.812 211.361C133.812 211.361 133.757 211.307 133.703 211.252C129.13 206.789 121.347 210.49 121.728 216.859C122.762 234.767 125.266 251.314 128.967 265.412C114.869 269.059 98.3221 271.617 80.414 272.651C74.0455 273.032 70.2896 265.194 74.8074 260.676C74.8074 260.676 74.8619 260.622 74.9164 260.567C82.2102 253.328 81.7203 241.244 73.5011 234.603C67.2414 229.541 58.0969 229.541 51.7828 234.549C43.4548 241.135 42.9646 253.273 50.2041 260.567C50.2585 260.622 50.3131 260.676 50.3675 260.731C54.7765 265.357 51.0753 273.087 44.7067 272.706C26.7442 271.671 10.1969 269.168 -3.95534 265.466C-3.95534 248.157 -3.95534 149.526 -3.95534 132.598C10.1425 128.951 26.6897 126.393 44.5978 125.359C50.9663 124.978 54.7219 132.816 50.2041 137.334C50.2041 137.334 50.1499 137.388 50.0955 137.443C42.8016 144.682 43.2915 156.766 51.5107 163.406C57.7704 168.469 66.9149 168.469 73.229 163.461C81.5571 156.875 82.0468 144.736 74.8074 137.443C74.753 137.388 74.6987 137.334 74.6443 137.279C70.2353 132.652 73.9365 124.923 80.3051 125.304C98.2676 126.338 114.815 128.842 128.967 132.544C125.865 144.519 123.578 158.181 122.326 173.041L122.272 172.987Z" fill="#44D2F2" stroke="white" stroke-width="3" stroke-miterlimit="10"/>
<path d="M354.007 126.501C351.34 126.283 348.618 126.065 345.842 125.902C339.474 125.521 335.773 133.25 340.182 137.877C340.236 137.932 340.291 137.986 340.345 138.04C347.639 145.334 347.094 157.473 338.766 164.059C332.507 169.067 323.308 169.012 317.048 164.004C308.829 157.364 308.339 145.28 315.633 138.04C315.633 138.04 315.687 137.986 315.742 137.932C320.205 133.359 316.504 125.575 310.135 125.957C292.227 126.991 275.68 129.495 261.582 133.196C257.935 119.098 255.377 102.551 254.342 84.6428C253.961 78.2742 261.8 74.5184 266.318 79.0363C266.318 79.0363 266.372 79.0907 266.427 79.1451C273.666 86.439 285.75 85.9492 292.391 77.73C297.453 71.4703 297.453 62.3256 292.445 56.0116C285.859 47.6835 273.72 47.1937 266.427 54.4331C266.372 54.4876 266.318 54.542 266.263 54.5964C261.636 59.0054 253.907 55.304 254.288 48.9355C255.323 30.973 257.826 14.4257 261.528 0.273392C278.837 0.273392 377.468 0.273392 394.396 0.273392C398.043 14.3712 400.601 30.9184 401.635 48.8265C402.016 55.195 394.178 58.951 389.66 54.4331C389.66 54.4331 389.606 54.3786 389.551 54.3242C382.312 47.0303 370.228 47.5202 363.587 55.7395C358.525 61.9991 358.525 71.1436 363.533 77.4577C370.119 85.7858 382.257 86.2757 389.551 79.0363C389.606 78.9818 389.66 78.9274 389.715 78.873C394.342 74.464 402.071 78.1654 401.69 84.534C400.655 102.496 398.152 119.044 394.45 133.196C382.475 130.093 368.813 127.807 353.953 126.555L354.007 126.501Z" fill="#44D2F2" stroke="white" stroke-width="3" stroke-miterlimit="10"/>
<path d="M128.915 -3.05176e-05C146.334 -3.05176e-05 243.114 -3.05176e-05 261.784 -3.05176e-05C258.137 14.1523 255.578 30.6994 254.544 48.6619C254.163 55.0304 261.893 58.7318 266.519 54.3228C266.574 54.2684 266.628 54.214 266.682 54.1596C273.976 46.8657 286.115 47.41 292.701 55.7381C297.709 61.9978 297.654 71.1967 292.647 77.4564C286.006 85.6756 273.922 86.1655 266.682 78.8717C266.682 78.8717 266.628 78.8171 266.573 78.7627C262.001 74.2993 254.218 78.0008 254.599 84.3693C255.633 102.277 258.137 118.825 261.838 132.922C247.74 136.569 231.193 139.128 213.285 140.162C206.916 140.543 203.161 132.705 207.678 128.187C207.678 128.187 207.733 128.133 207.787 128.078C215.081 120.839 214.591 108.755 206.372 102.114C200.112 97.0518 190.968 97.0519 184.654 102.06C176.326 108.646 175.836 120.784 183.075 128.078C183.13 128.133 183.184 128.187 183.238 128.241C187.647 132.868 183.946 140.597 177.578 140.216C159.615 139.182 143.068 136.678 128.915 132.977C132.562 118.825 135.121 102.277 136.155 84.3148C136.536 77.9463 128.807 74.2449 124.18 78.6539C124.125 78.7083 124.071 78.7627 124.016 78.8172C116.723 86.111 104.584 85.5667 97.9982 77.2386C92.9904 70.9789 93.0449 61.78 98.0527 55.5203C104.693 47.3011 116.777 46.8112 124.016 54.1051C124.016 54.1051 124.071 54.1596 124.125 54.214C128.698 58.6775 136.482 54.9761 136.1 48.6076C135.066 30.6995 132.562 14.1521 128.861 0.0542908" fill="#49C2F2"/>
<path d="M128.915 -2.75042e-05C146.334 -2.75042e-05 243.114 -2.75042e-05 261.784 -2.75042e-05C258.137 14.1523 255.578 30.6994 254.544 48.6619C254.163 55.0304 261.893 58.7318 266.519 54.3228C266.574 54.2684 266.628 54.214 266.682 54.1596C273.976 46.8657 286.115 47.4101 292.701 55.7381C297.709 61.9978 297.654 71.1967 292.647 77.4564C286.006 85.6756 273.922 86.1655 266.682 78.8717C266.682 78.8717 266.628 78.8171 266.573 78.7627C262.001 74.2993 254.218 78.0008 254.599 84.3693C255.633 102.277 258.137 118.825 261.838 132.922C247.74 136.569 231.193 139.128 213.285 140.162C206.916 140.543 203.161 132.705 207.678 128.187C207.678 128.187 207.733 128.133 207.787 128.078C215.081 120.839 214.591 108.755 206.372 102.114C200.112 97.0518 190.968 97.0519 184.654 102.06C176.326 108.646 175.836 120.784 183.075 128.078C183.13 128.133 183.184 128.187 183.238 128.241C187.647 132.868 183.946 140.597 177.578 140.216C159.615 139.182 143.068 136.678 128.915 132.977C132.562 118.825 135.121 102.277 136.155 84.3148C136.536 77.9463 128.807 74.2449 124.18 78.6539C124.125 78.7083 124.071 78.7627 124.016 78.8172C116.723 86.111 104.584 85.5667 97.9982 77.2386C92.9904 70.9789 93.0449 61.78 98.0527 55.5203C104.693 47.3011 116.777 46.8112 124.016 54.1051C124.016 54.1051 124.071 54.1596 124.125 54.214C128.698 58.6774 136.482 54.9761 136.1 48.6076C135.066 30.6995 132.562 14.1521 128.861 0.0542914" stroke="white" stroke-width="3" stroke-miterlimit="10"/>
</g>
<defs>
<filter id="filter0_d_249_272" x="-15.6" y="-12.6822" width="422.903" height="451.066" filterUnits="userSpaceOnUse" color-interpolation-filters="sRGB">
<feFlood flood-opacity="0" result="BackgroundImageFix"/>
<feColorMatrix in="SourceAlpha" type="matrix" values="0 0 0 0 0 0 0 0 0 0 0 0 0 0 0 0 0 0 127 0" result="hardAlpha"/>
<feOffset dx="-3" dy="-4"/>
<feGaussianBlur stdDeviation="3.55"/>
<feComposite in2="hardAlpha" operator="out"/>
<feColorMatrix type="matrix" values="0 0 0 0 0 0 0 0 0 0 0 0 0 0 0 0 0 0 0.25 0"/>
<feBlend mode="normal" in2="BackgroundImageFix" result="effect1_dropShadow_249_272"/>
<feBlend mode="normal" in="SourceGraphic" in2="effect1_dropShadow_249_272" result="shape"/>
</filter>
</defs>
</svg>
