<svg width="418" height="439" viewBox="0 0 418 439" fill="none" xmlns="http://www.w3.org/2000/svg">
<g filter="url(#filter0_d_5_14982)">
<path d="M278.034 358.749C277.816 356.082 277.598 353.415 277.49 350.693C277.109 344.325 284.947 340.569 289.465 345.087C289.465 345.087 289.519 345.141 289.574 345.196C296.813 352.49 308.897 352 315.538 343.781C320.6 337.521 320.6 328.376 315.592 322.062C309.006 313.734 296.868 313.244 289.574 320.484C289.519 320.538 289.465 320.593 289.41 320.647C284.783 325.056 277.054 321.355 277.435 314.986C278.47 297.024 280.973 280.476 284.675 266.324C298.827 269.971 315.374 272.529 333.337 273.564C339.705 273.945 343.407 266.215 338.998 261.589C338.943 261.534 338.889 261.48 338.834 261.425C331.541 254.131 332.085 241.993 340.413 235.407C346.672 230.399 355.872 230.454 362.131 235.461C370.351 242.102 370.84 254.186 363.546 261.425C363.546 261.425 363.492 261.48 363.438 261.534C358.974 266.106 362.676 273.89 369.044 273.509C386.952 272.475 403.5 269.971 417.597 266.27C417.597 283.688 417.597 380.468 417.597 399.138C403.445 395.491 386.898 392.933 368.935 391.898C362.567 391.517 358.865 399.247 363.274 403.873C363.329 403.928 363.383 403.982 363.438 404.037C370.732 411.331 370.187 423.469 361.859 430.055C355.599 435.063 346.4 435.008 340.141 430.001C331.922 423.36 331.432 411.276 338.725 404.037C338.725 404.037 338.78 403.982 338.834 403.928C343.298 399.356 339.597 391.572 333.228 391.953C315.32 392.987 298.772 395.491 284.675 399.192C281.572 387.217 279.286 373.555 278.034 358.695V358.749Z" fill="#49C2F2" stroke="white" stroke-width="3" stroke-miterlimit="10"/>
<path d="M152.124 265.897C166.276 262.25 182.824 259.692 200.786 258.658C207.155 258.277 210.856 266.006 206.447 270.633C206.393 270.687 206.338 270.742 206.284 270.796C198.99 278.09 199.534 290.228 207.862 296.815C214.122 301.822 223.321 301.768 229.581 296.76C237.8 290.12 238.29 278.036 230.996 270.796C230.996 270.796 230.941 270.742 230.887 270.687C226.424 266.115 230.125 258.331 236.494 258.712C254.402 259.747 270.949 262.25 285.047 265.952C288.694 251.854 291.252 235.307 292.286 217.398C292.667 211.03 284.829 207.274 280.311 211.792C280.311 211.792 280.257 211.847 280.202 211.901C272.963 219.195 260.879 218.705 254.238 210.486C249.176 204.226 249.176 195.082 254.184 188.767C260.77 180.439 272.908 179.949 280.202 187.189C280.257 187.243 280.311 187.298 280.366 187.352C284.992 191.761 292.722 188.06 292.341 181.691C291.306 163.729 288.803 147.181 285.101 133.029C270.949 136.676 254.402 139.234 236.439 140.269C230.071 140.65 226.369 132.92 230.778 128.294C230.833 128.239 230.887 128.185 230.941 128.13C238.235 120.836 237.691 108.698 229.363 102.112C223.103 97.1041 213.904 97.1586 207.645 102.166C199.426 108.807 198.936 120.891 206.229 128.13C206.229 128.13 206.284 128.185 206.338 128.239C210.802 132.812 207.1 140.595 200.732 140.214C182.824 139.18 166.277 136.676 152.179 132.975C148.532 147.073 145.973 163.62 144.939 181.528C144.558 187.896 152.396 191.652 156.914 187.134C156.914 187.134 156.968 187.08 157.023 187.026C164.262 179.732 176.346 180.222 182.987 188.441C188.049 194.701 188.049 203.845 183.041 210.159C176.455 218.487 164.317 218.977 157.023 211.738C156.968 211.683 156.914 211.629 156.86 211.574C152.233 207.165 144.504 210.867 144.885 217.235C145.919 235.198 148.423 251.745 152.124 265.897Z" fill="#6393F2" stroke="white" stroke-width="3" stroke-miterlimit="10"/>
<path d="M284.78 132.925C281.134 118.773 278.575 102.226 277.541 84.2633C277.16 77.8948 284.889 74.1934 289.516 78.6023C289.57 78.6568 289.625 78.7112 289.679 78.7656C296.973 86.0595 309.111 85.5153 315.698 77.1872C320.705 70.9276 320.651 61.7285 315.643 55.4688C309.003 47.2496 296.919 46.7598 289.679 54.0537C289.679 54.0537 289.625 54.1081 289.57 54.1625C284.998 58.6259 277.214 54.9246 277.595 48.556C278.63 30.6479 281.134 14.1008 284.835 0.00291443C298.552 0.111786 402.897 0.819397 417.703 0.00291443C417.703 18.8908 417.703 115.235 417.703 132.871C403.605 129.224 387.058 126.666 369.15 125.632C362.781 125.251 359.025 133.089 363.543 137.607C363.543 137.607 363.598 137.661 363.652 137.715C370.946 144.955 370.456 157.039 362.237 163.679C355.977 168.742 346.833 168.742 340.519 163.734C332.191 157.148 331.701 145.009 338.94 137.715C338.995 137.661 339.049 137.607 339.103 137.552C343.512 132.925 339.811 125.196 333.443 125.577C315.48 126.611 298.933 129.115 284.78 132.817V132.925Z" fill="#52A8F2" stroke="white" stroke-width="3" stroke-miterlimit="10"/>
<path d="M291.431 172.987C291.649 175.654 291.867 178.375 292.03 181.151C292.411 187.52 284.682 191.221 280.055 186.812C280 186.758 279.946 186.703 279.891 186.649C272.598 179.355 260.459 179.899 253.873 188.227C248.865 194.487 248.92 203.686 253.928 209.946C260.568 218.165 272.652 218.655 279.891 211.361C279.891 211.361 279.946 211.307 280 211.252C284.573 206.789 292.357 210.49 291.975 216.859C290.941 234.767 288.437 251.314 284.736 265.412C298.834 269.059 315.381 271.617 333.289 272.651C339.658 273.032 343.414 265.194 338.896 260.676C338.896 260.676 338.841 260.622 338.787 260.567C331.493 253.328 331.983 241.244 340.202 234.603C346.462 229.541 355.606 229.541 361.92 234.549C370.248 241.135 370.738 253.274 363.499 260.567C363.445 260.622 363.39 260.676 363.336 260.731C358.927 265.357 362.628 273.087 368.996 272.706C386.959 271.671 403.506 269.168 417.658 265.466C417.658 248.157 417.658 149.526 417.658 132.598C403.561 128.951 387.013 126.393 369.105 125.359C362.737 124.978 358.981 132.816 363.499 137.334C363.499 137.334 363.553 137.388 363.608 137.443C370.902 144.682 370.412 156.766 362.192 163.407C355.933 168.469 346.788 168.469 340.474 163.461C332.146 156.875 331.656 144.736 338.896 137.443C338.95 137.388 339.004 137.334 339.059 137.279C343.468 132.652 339.767 124.923 333.398 125.304C315.436 126.338 298.888 128.842 284.736 132.544C287.839 144.519 290.125 158.181 291.377 173.041L291.431 172.987Z" fill="#44D2F2" stroke="white" stroke-width="3" stroke-miterlimit="10"/>
<path d="M59.6959 126.501C62.3631 126.283 65.0847 126.065 67.8607 125.902C74.2292 125.521 77.9305 133.25 73.5215 137.877C73.4671 137.932 73.4125 137.986 73.358 138.04C66.0642 145.334 66.6087 157.473 74.9368 164.059C81.1964 169.067 90.3954 169.012 96.655 164.004C104.874 157.364 105.364 145.28 98.0703 138.04C98.0703 138.04 98.0158 137.986 97.9613 137.932C93.4979 133.359 97.1995 125.576 103.568 125.957C121.476 126.991 138.023 129.495 152.121 133.196C155.768 119.098 158.326 102.551 159.361 84.6428C159.742 78.2743 151.903 74.5185 147.386 79.0363C147.386 79.0363 147.331 79.0907 147.277 79.1451C140.037 86.439 127.953 85.9492 121.312 77.73C116.25 71.4703 116.251 62.3257 121.258 56.0116C127.845 47.6835 139.983 47.1937 147.277 54.4332C147.331 54.4876 147.386 54.542 147.44 54.5965C152.067 59.0054 159.796 55.304 159.415 48.9355C158.381 30.973 155.877 14.4257 152.176 0.273422C134.866 0.273422 36.2356 0.273422 19.3073 0.273422C15.6603 14.3713 13.1023 30.9185 12.0681 48.8265C11.687 55.1951 19.525 58.951 24.0428 54.4332C24.0428 54.4332 24.0973 54.3786 24.1518 54.3242C31.3912 47.0303 43.4752 47.5203 50.1159 55.7395C55.178 61.9992 55.1781 71.1437 50.1704 77.4577C43.5841 85.7858 31.4456 86.2757 24.1518 79.0363C24.0973 78.9819 24.0427 78.9275 23.9883 78.873C19.3616 74.4641 11.6326 78.1655 12.0136 84.534C13.0478 102.496 15.5514 119.044 19.2528 133.196C31.2278 130.093 44.8902 127.807 59.7501 126.555L59.6959 126.501Z" fill="#44D2F2" stroke="white" stroke-width="3" stroke-miterlimit="10"/>
<path d="M284.788 0C267.369 0 170.589 0 151.919 0C155.566 14.1523 158.125 30.6994 159.159 48.6619C159.54 55.0304 151.811 58.7318 147.184 54.3229C147.129 54.2684 147.075 54.214 147.021 54.1596C139.727 46.8657 127.588 47.4101 121.002 55.7382C115.994 61.9978 116.049 71.1967 121.057 77.4564C127.697 85.6756 139.781 86.1656 147.021 78.8717C147.021 78.8717 147.075 78.8171 147.13 78.7627C151.702 74.2993 159.485 78.0008 159.104 84.3694C158.07 102.277 155.567 118.825 151.865 132.922C165.963 136.569 182.51 139.128 200.418 140.162C206.787 140.543 210.542 132.705 206.025 128.187C206.025 128.187 205.97 128.133 205.916 128.078C198.622 120.839 199.112 108.755 207.331 102.114C213.591 97.0519 222.735 97.052 229.05 102.06C237.378 108.646 237.867 120.784 230.628 128.078C230.574 128.133 230.519 128.187 230.465 128.241C226.056 132.868 229.757 140.597 236.126 140.216C254.088 139.182 270.635 136.678 284.788 132.977C281.141 118.825 278.582 102.277 277.548 84.3149C277.167 77.9463 284.897 74.2449 289.523 78.6539C289.578 78.7083 289.632 78.7628 289.687 78.8172C296.981 86.1111 309.119 85.5667 315.705 77.2386C320.713 70.979 320.658 61.78 315.65 55.5204C309.01 47.3012 296.926 46.8112 289.687 54.1051C289.687 54.1051 289.632 54.1596 289.578 54.2141C285.005 58.6775 277.222 54.9761 277.603 48.6076C278.637 30.6995 281.141 14.1522 284.842 0.0543213" fill="#49C2F2"/>
<path d="M284.788 3.01336e-06C267.369 3.01336e-06 170.589 3.01336e-06 151.919 3.01336e-06C155.566 14.1523 158.125 30.6994 159.159 48.6619C159.54 55.0304 151.811 58.7319 147.184 54.3229C147.129 54.2684 147.075 54.214 147.021 54.1596C139.727 46.8657 127.588 47.4101 121.002 55.7382C115.994 61.9978 116.049 71.1967 121.057 77.4564C127.697 85.6756 139.781 86.1656 147.021 78.8717C147.021 78.8717 147.075 78.8171 147.13 78.7627C151.702 74.2993 159.485 78.0008 159.104 84.3694C158.07 102.277 155.567 118.825 151.865 132.922C165.963 136.569 182.51 139.128 200.418 140.162C206.787 140.543 210.542 132.705 206.025 128.187C206.025 128.187 205.97 128.133 205.916 128.078C198.622 120.839 199.112 108.755 207.331 102.114C213.591 97.0519 222.735 97.052 229.05 102.06C237.378 108.646 237.867 120.784 230.628 128.078C230.574 128.133 230.519 128.187 230.465 128.241C226.056 132.868 229.757 140.597 236.126 140.216C254.088 139.182 270.635 136.678 284.788 132.977C281.141 118.825 278.582 102.277 277.548 84.3149C277.167 77.9463 284.897 74.2449 289.523 78.6539C289.578 78.7083 289.632 78.7628 289.687 78.8172C296.981 86.1111 309.119 85.5667 315.705 77.2386C320.713 70.979 320.658 61.78 315.65 55.5204C309.01 47.3012 296.926 46.8112 289.687 54.1051C289.687 54.1051 289.632 54.1596 289.578 54.2141C285.005 58.6775 277.222 54.9761 277.603 48.6076C278.637 30.6995 281.141 14.1522 284.842 0.0543219" stroke="white" stroke-width="3" stroke-miterlimit="10"/>
</g>
<defs>
<filter id="filter0_d_5_14982" x="0.4" y="-12.6821" width="422.903" height="451.066" filterUnits="userSpaceOnUse" color-interpolation-filters="sRGB">
<feFlood flood-opacity="0" result="BackgroundImageFix"/>
<feColorMatrix in="SourceAlpha" type="matrix" values="0 0 0 0 0 0 0 0 0 0 0 0 0 0 0 0 0 0 127 0" result="hardAlpha"/>
<feOffset dx="-3" dy="-4"/>
<feGaussianBlur stdDeviation="3.55"/>
<feComposite in2="hardAlpha" operator="out"/>
<feColorMatrix type="matrix" values="0 0 0 0 0 0 0 0 0 0 0 0 0 0 0 0 0 0 0.25 0"/>
<feBlend mode="normal" in2="BackgroundImageFix" result="effect1_dropShadow_5_14982"/>
<feBlend mode="normal" in="SourceGraphic" in2="effect1_dropShadow_5_14982" result="shape"/>
</filter>
</defs>
</svg>
