<svg width="1785" height="516" viewBox="0 0 1785 516" fill="none" xmlns="http://www.w3.org/2000/svg">
<g filter="url(#filter0_d_1780_95)">
<path d="M1978.99 302.347C1965.17 282.636 1947.36 261.734 1926.36 241.237C1918.93 233.952 1906.97 239.716 1907.92 250.246C1907.94 250.372 1907.95 250.499 1907.97 250.626C1909.89 267.593 1897.56 282.275 1881.03 281.657C1868.55 281.265 1857.34 271.365 1854.49 258.378C1850.81 241.243 1861.82 225.524 1877.71 224.215C1877.71 224.215 1877.83 224.205 1877.95 224.195C1887.8 223.215 1890.75 209.471 1882.59 203.144C1859.67 185.306 1837 170.77 1816.18 160.358C1807.1 181.984 1794.33 205.527 1778.38 229.152C1772.73 237.568 1759.52 233.914 1758.33 223.405C1758.33 223.405 1758.32 223.278 1758.3 223.151C1756.45 206.242 1741.18 193.944 1725.15 197.183C1712.94 199.645 1704.15 211.144 1704.21 224.436C1704.27 241.948 1718.67 255.536 1734.55 254.228C1734.67 254.217 1734.79 254.207 1734.91 254.197C1744.81 253.597 1750.72 266.512 1744.13 274.113C1725.61 295.596 1706.64 313.729 1688.5 327.57C1702.33 347.281 1720.13 368.183 1741.13 388.68C1748.57 395.965 1760.53 390.201 1759.57 379.671C1759.56 379.544 1759.55 379.418 1759.53 379.291C1757.61 362.324 1769.94 347.641 1786.47 348.259C1798.95 348.652 1810.16 358.551 1813.01 371.538C1816.69 388.673 1805.68 404.393 1789.79 405.701C1789.79 405.701 1789.67 405.712 1789.55 405.722C1779.69 406.702 1776.75 420.446 1784.91 426.773C1807.83 444.611 1830.5 459.146 1851.32 469.558C1860.4 447.932 1873.17 424.39 1889.12 400.765C1894.77 392.349 1907.98 396.002 1909.17 406.512C1909.17 406.512 1909.18 406.639 1909.2 406.765C1911.05 423.675 1926.32 435.973 1942.35 432.734C1954.56 430.272 1963.35 418.773 1963.29 405.481C1963.22 387.969 1948.83 374.381 1932.94 375.689C1932.82 375.7 1932.71 375.71 1932.59 375.72C1922.68 376.32 1916.78 363.405 1923.36 355.803C1941.89 334.32 1960.86 316.188 1978.99 302.347Z" fill="url(#paint0_linear_1780_95)"/>
<path d="M1978.99 302.347C1965.17 282.636 1947.36 261.734 1926.36 241.237C1918.93 233.952 1906.97 239.716 1907.92 250.246C1907.94 250.372 1907.95 250.499 1907.97 250.626C1909.89 267.593 1897.56 282.275 1881.03 281.657C1868.55 281.265 1857.34 271.365 1854.49 258.378C1850.81 241.243 1861.82 225.524 1877.71 224.215C1877.71 224.215 1877.83 224.205 1877.95 224.195C1887.8 223.215 1890.75 209.471 1882.59 203.144C1859.67 185.306 1837 170.77 1816.18 160.358C1807.1 181.984 1794.33 205.527 1778.38 229.152C1772.73 237.568 1759.52 233.914 1758.33 223.405C1758.33 223.405 1758.32 223.278 1758.3 223.151C1756.45 206.242 1741.18 193.944 1725.15 197.183C1712.94 199.645 1704.15 211.144 1704.21 224.436C1704.27 241.948 1718.67 255.536 1734.55 254.228C1734.67 254.217 1734.79 254.207 1734.91 254.197C1744.81 253.597 1750.72 266.512 1744.13 274.113C1725.61 295.596 1706.64 313.729 1688.5 327.57C1702.33 347.281 1720.13 368.183 1741.13 388.68C1748.57 395.965 1760.53 390.201 1759.57 379.671C1759.56 379.544 1759.55 379.418 1759.53 379.291C1757.61 362.324 1769.94 347.641 1786.47 348.259C1798.95 348.652 1810.16 358.551 1813.01 371.538C1816.69 388.673 1805.68 404.393 1789.79 405.701C1789.79 405.701 1789.67 405.712 1789.55 405.722C1779.69 406.702 1776.75 420.446 1784.91 426.773C1807.83 444.611 1830.5 459.146 1851.32 469.558C1860.4 447.932 1873.17 424.39 1889.12 400.765C1894.77 392.349 1907.98 396.002 1909.17 406.512C1909.17 406.512 1909.18 406.639 1909.2 406.765C1911.05 423.675 1926.32 435.973 1942.35 432.734C1954.56 430.272 1963.35 418.773 1963.29 405.481C1963.22 387.969 1948.83 374.381 1932.94 375.689C1932.82 375.7 1932.71 375.71 1932.59 375.72C1922.68 376.32 1916.78 363.405 1923.36 355.803C1941.89 334.32 1960.86 316.188 1978.99 302.347Z" stroke="white" stroke-width="4.66798" stroke-miterlimit="10"/>
</g>
<g filter="url(#filter1_d_1780_95)">
<path d="M1276.82 -23.6322C1294.26 -9.40714 1312.54 8.60821 1330.23 29.5772C1336.51 37.0001 1330.33 47.7599 1320.58 46.158C1320.46 46.1361 1320.34 46.1141 1320.22 46.0922C1304.54 43.1501 1290.01 53.6514 1289.47 69.1016C1288.99 80.7609 1297.46 91.8847 1309.37 95.4246C1325.1 100.02 1340.5 90.8181 1342.8 76.094C1342.8 76.094 1342.81 75.9837 1342.83 75.8734C1344.41 66.7479 1357.43 64.9313 1362.77 72.9719C1377.85 95.5518 1389.86 117.671 1398.16 137.787C1377.38 144.789 1354.57 155.097 1331.46 168.36C1323.23 173.06 1325.74 185.621 1335.46 187.443C1335.46 187.443 1335.58 187.465 1335.69 187.487C1351.33 190.363 1361.76 205.431 1357.66 220.156C1354.53 231.377 1343.22 238.79 1330.83 237.829C1314.51 236.585 1302.81 222.245 1305.11 207.521C1305.13 207.411 1305.15 207.301 1305.16 207.19C1306.39 197.999 1294.75 191.616 1287.22 197.242C1265.93 213.059 1247.74 229.514 1233.61 245.481C1216.17 231.255 1197.89 213.24 1180.21 192.271C1173.92 184.848 1180.1 174.089 1189.85 175.691C1189.97 175.712 1190.09 175.734 1190.21 175.756C1205.89 178.698 1220.42 168.197 1220.96 152.747C1221.44 141.088 1212.97 129.964 1201.06 126.424C1185.33 121.829 1169.93 131.03 1167.64 145.754C1167.64 145.754 1167.62 145.865 1167.6 145.975C1166.02 155.1 1153 156.917 1147.66 148.876C1132.58 126.297 1120.57 104.177 1112.27 84.0612C1133.05 77.0598 1155.87 66.7508 1178.97 53.4885C1187.2 48.7881 1184.69 36.2275 1174.97 34.4052C1174.97 34.4052 1174.86 34.3831 1174.74 34.3611C1159.1 31.4852 1148.67 16.4176 1152.78 1.69221C1155.9 -9.52819 1167.22 -16.9417 1179.6 -15.9808C1195.93 -14.7363 1207.62 -0.396848 1205.32 14.3273C1205.3 14.4375 1205.29 14.5477 1205.27 14.6579C1204.04 23.8493 1215.68 30.2325 1223.21 24.607C1244.5 8.7893 1262.69 -7.66542 1276.82 -23.6322Z" fill="#6393F2"/>
<path d="M1276.82 -23.6322C1294.26 -9.40714 1312.54 8.60821 1330.23 29.5772C1336.51 37.0001 1330.33 47.7599 1320.58 46.158C1320.46 46.1361 1320.34 46.1141 1320.22 46.0922C1304.54 43.1501 1290.01 53.6514 1289.47 69.1016C1288.99 80.7609 1297.46 91.8847 1309.37 95.4246C1325.1 100.02 1340.5 90.8181 1342.8 76.094C1342.8 76.094 1342.81 75.9837 1342.83 75.8734C1344.41 66.7479 1357.43 64.9313 1362.77 72.9719C1377.85 95.5518 1389.86 117.671 1398.16 137.787C1377.38 144.789 1354.57 155.097 1331.46 168.36C1323.23 173.06 1325.74 185.621 1335.46 187.443C1335.46 187.443 1335.58 187.465 1335.69 187.487C1351.33 190.363 1361.76 205.431 1357.66 220.156C1354.53 231.377 1343.22 238.79 1330.83 237.829C1314.51 236.585 1302.81 222.245 1305.11 207.521C1305.13 207.411 1305.15 207.301 1305.16 207.19C1306.39 197.999 1294.75 191.616 1287.22 197.242C1265.93 213.059 1247.74 229.514 1233.61 245.481C1216.17 231.255 1197.89 213.24 1180.21 192.271C1173.92 184.848 1180.1 174.089 1189.85 175.691C1189.97 175.712 1190.09 175.734 1190.21 175.756C1205.89 178.698 1220.42 168.197 1220.96 152.747C1221.44 141.088 1212.97 129.964 1201.06 126.424C1185.33 121.829 1169.93 131.03 1167.64 145.754C1167.64 145.754 1167.62 145.865 1167.6 145.975C1166.02 155.1 1153 156.917 1147.66 148.876C1132.58 126.297 1120.57 104.177 1112.27 84.0612C1133.05 77.0598 1155.87 66.7508 1178.97 53.4885C1187.2 48.7881 1184.69 36.2275 1174.97 34.4052C1174.97 34.4052 1174.86 34.3831 1174.74 34.3611C1159.1 31.4852 1148.67 16.4176 1152.78 1.69221C1155.9 -9.52819 1167.22 -16.9417 1179.6 -15.9808C1195.93 -14.7363 1207.62 -0.396848 1205.32 14.3273C1205.3 14.4375 1205.29 14.5477 1205.27 14.6579C1204.04 23.8493 1215.68 30.2325 1223.21 24.607C1244.5 8.7893 1262.69 -7.66542 1276.82 -23.6322Z" stroke="white" stroke-width="4.66798" stroke-miterlimit="10"/>
</g>
<g filter="url(#filter2_d_1780_95)">
<path d="M1193.39 28.3021C1191.78 8.19686 1192.1 -14.8025 1194.7 -39.2496C1195.61 -47.9215 1206.4 -50.5923 1211.42 -43.2886C1211.47 -43.1992 1211.53 -43.1099 1211.59 -43.0205C1219.42 -31.0452 1235.22 -28.1596 1245.55 -37.3887C1253.39 -44.3085 1255.34 -56.6867 1250.24 -66.5909C1243.46 -79.6151 1227.96 -83.8744 1217.01 -76.2298C1217.01 -76.2298 1216.92 -76.1728 1216.84 -76.1158C1209.96 -71.4802 1200.71 -78.7737 1202.6 -87.2185C1207.86 -110.976 1214.72 -132.467 1222.59 -150.309C1240.01 -141.207 1260.82 -132.838 1283.74 -126.112C1291.88 -123.702 1298.45 -133.117 1293.6 -140.534C1293.6 -140.534 1293.54 -140.624 1293.49 -140.713C1285.65 -152.615 1288.93 -168.708 1301 -175.183C1310.2 -180.12 1322.02 -177.395 1329.08 -168.784C1338.39 -157.452 1336.37 -140.994 1325.41 -133.349C1325.33 -133.292 1325.25 -133.235 1325.17 -133.178C1318.46 -128.274 1321.55 -116.785 1329.86 -115.399C1353.29 -111.436 1375.22 -109.87 1394.31 -110.627C1395.93 -90.5214 1395.6 -67.522 1393 -43.075C1392.1 -34.4031 1381.3 -31.7325 1376.29 -39.0362C1376.23 -39.1255 1376.18 -39.2149 1376.12 -39.3043C1368.29 -51.2796 1352.49 -54.1652 1342.16 -44.9361C1334.31 -38.0164 1332.37 -25.6382 1337.47 -15.7339C1344.25 -2.70968 1359.75 1.54959 1370.7 -6.09498C1370.7 -6.09498 1370.78 -6.15182 1370.87 -6.20875C1377.75 -10.8444 1387 -3.55089 1385.11 4.89389C1379.85 28.6514 1372.99 50.1422 1365.12 67.9846C1347.7 58.8827 1326.88 50.5139 1303.97 43.7877C1295.83 41.3779 1289.26 50.7919 1294.11 58.2094C1294.11 58.2094 1294.16 58.299 1294.22 58.3884C1302.06 70.2905 1298.78 86.3834 1286.71 92.8582C1277.51 97.7956 1265.69 95.0708 1258.63 86.4596C1249.32 75.127 1251.34 58.669 1262.29 51.0244C1262.38 50.9675 1262.46 50.9105 1262.54 50.8536C1269.25 45.9499 1266.16 34.4598 1257.85 33.0741C1234.42 29.1112 1212.49 27.5453 1193.39 28.3021Z" fill="#9AE2FF"/>
<path d="M1193.39 28.3021C1191.78 8.19686 1192.1 -14.8025 1194.7 -39.2496C1195.61 -47.9215 1206.4 -50.5923 1211.42 -43.2886C1211.47 -43.1992 1211.53 -43.1099 1211.59 -43.0205C1219.42 -31.0452 1235.22 -28.1596 1245.55 -37.3887C1253.39 -44.3085 1255.34 -56.6867 1250.24 -66.5909C1243.46 -79.6151 1227.96 -83.8744 1217.01 -76.2298C1217.01 -76.2298 1216.92 -76.1728 1216.84 -76.1158C1209.96 -71.4802 1200.71 -78.7737 1202.6 -87.2185C1207.86 -110.976 1214.72 -132.467 1222.59 -150.309C1240.01 -141.207 1260.82 -132.838 1283.74 -126.112C1291.88 -123.702 1298.45 -133.117 1293.6 -140.534C1293.6 -140.534 1293.54 -140.624 1293.49 -140.713C1285.65 -152.615 1288.93 -168.708 1301 -175.183C1310.2 -180.12 1322.02 -177.395 1329.08 -168.784C1338.39 -157.452 1336.37 -140.994 1325.41 -133.349C1325.33 -133.292 1325.25 -133.235 1325.17 -133.178C1318.46 -128.274 1321.55 -116.785 1329.86 -115.399C1353.29 -111.436 1375.22 -109.87 1394.31 -110.627C1395.93 -90.5214 1395.6 -67.522 1393 -43.075C1392.1 -34.4031 1381.3 -31.7325 1376.29 -39.0362C1376.23 -39.1255 1376.18 -39.2149 1376.12 -39.3043C1368.29 -51.2796 1352.49 -54.1652 1342.16 -44.9361C1334.31 -38.0164 1332.37 -25.6382 1337.47 -15.7339C1344.25 -2.70968 1359.75 1.54959 1370.7 -6.09498C1370.7 -6.09498 1370.78 -6.15182 1370.87 -6.20875C1377.75 -10.8444 1387 -3.55089 1385.11 4.89389C1379.85 28.6514 1372.99 50.1422 1365.12 67.9846C1347.7 58.8827 1326.88 50.5139 1303.97 43.7877C1295.83 41.3779 1289.26 50.7919 1294.11 58.2094C1294.11 58.2094 1294.16 58.299 1294.22 58.3884C1302.06 70.2905 1298.78 86.3834 1286.71 92.8582C1277.51 97.7956 1265.69 95.0708 1258.63 86.4596C1249.32 75.127 1251.34 58.669 1262.29 51.0244C1262.38 50.9675 1262.46 50.9105 1262.54 50.8536C1269.25 45.9499 1266.16 34.4598 1257.85 33.0741C1234.42 29.1112 1212.49 27.5453 1193.39 28.3021Z" stroke="white" stroke-width="4.66798" stroke-miterlimit="10"/>
</g>
<g filter="url(#filter3_d_1780_95)">
<path d="M1763.59 -0.170224C1777.8 11.4136 1792.68 26.084 1807.08 43.1596C1812.2 49.2042 1807.17 57.9662 1799.23 56.6617C1799.13 56.6438 1799.03 56.6259 1798.94 56.608C1786.16 54.2123 1774.34 62.7638 1773.89 75.3452C1773.5 84.8396 1780.4 93.8981 1790.1 96.7806C1802.91 100.522 1815.45 93.0295 1817.32 81.0393C1817.32 81.0393 1817.33 80.9494 1817.35 80.8597C1818.64 73.4285 1829.23 71.9492 1833.59 78.4969C1845.86 96.8842 1855.65 114.896 1862.4 131.278C1845.48 136.979 1826.9 145.374 1808.09 156.174C1801.39 160.001 1803.43 170.23 1811.34 171.714C1811.34 171.714 1811.44 171.732 1811.53 171.749C1824.27 174.091 1832.76 186.361 1829.42 198.353C1826.88 207.49 1817.66 213.527 1807.57 212.744C1794.28 211.731 1784.76 200.054 1786.63 188.064C1786.65 187.974 1786.66 187.884 1786.67 187.794C1787.68 180.31 1778.2 175.112 1772.06 179.693C1754.73 192.573 1739.92 205.973 1728.41 218.975C1714.21 207.391 1699.32 192.721 1684.92 175.645C1679.8 169.601 1684.83 160.839 1692.78 162.143C1692.87 162.161 1692.97 162.179 1693.06 162.197C1705.84 164.593 1717.67 156.041 1718.11 143.46C1718.5 133.965 1711.6 124.907 1701.9 122.024C1689.09 118.282 1676.55 125.775 1674.68 137.766C1674.68 137.766 1674.67 137.855 1674.65 137.945C1673.37 145.376 1662.77 146.855 1658.42 140.308C1646.14 121.92 1636.35 103.908 1629.6 87.5272C1646.52 81.8258 1665.1 73.4309 1683.91 62.6311C1690.61 58.8035 1688.57 48.575 1680.66 47.0911C1680.66 47.0911 1680.56 47.0731 1680.47 47.0552C1667.73 44.7132 1659.24 32.4434 1662.58 20.4521C1665.12 11.3151 1674.34 5.27804 1684.43 6.0605C1697.72 7.07396 1707.24 18.7509 1705.37 30.7411C1705.36 30.8309 1705.34 30.9206 1705.33 31.0104C1704.33 38.4952 1713.8 43.6931 1719.94 39.1121C1737.27 26.2314 1752.09 12.8319 1763.59 -0.170224Z" fill="#9AE2FF"/>
<path d="M1763.59 -0.170224C1777.8 11.4136 1792.68 26.084 1807.08 43.1596C1812.2 49.2042 1807.17 57.9662 1799.23 56.6617C1799.13 56.6438 1799.03 56.6259 1798.94 56.608C1786.16 54.2123 1774.34 62.7638 1773.89 75.3452C1773.5 84.8396 1780.4 93.8981 1790.1 96.7806C1802.91 100.522 1815.45 93.0295 1817.32 81.0393C1817.32 81.0393 1817.33 80.9494 1817.35 80.8597C1818.64 73.4285 1829.23 71.9492 1833.59 78.4969C1845.86 96.8842 1855.65 114.896 1862.4 131.278C1845.48 136.979 1826.9 145.374 1808.09 156.174C1801.39 160.001 1803.43 170.23 1811.34 171.714C1811.34 171.714 1811.44 171.732 1811.53 171.749C1824.27 174.091 1832.76 186.361 1829.42 198.353C1826.88 207.49 1817.66 213.527 1807.57 212.744C1794.28 211.731 1784.76 200.054 1786.63 188.064C1786.65 187.974 1786.66 187.884 1786.67 187.794C1787.68 180.31 1778.2 175.112 1772.06 179.693C1754.73 192.573 1739.92 205.973 1728.41 218.975C1714.21 207.391 1699.32 192.721 1684.92 175.645C1679.8 169.601 1684.83 160.839 1692.78 162.143C1692.87 162.161 1692.97 162.179 1693.06 162.197C1705.84 164.593 1717.67 156.041 1718.11 143.46C1718.5 133.965 1711.6 124.907 1701.9 122.024C1689.09 118.282 1676.55 125.775 1674.68 137.766C1674.68 137.766 1674.67 137.855 1674.65 137.945C1673.37 145.376 1662.77 146.855 1658.42 140.308C1646.14 121.92 1636.35 103.908 1629.6 87.5272C1646.52 81.8258 1665.1 73.4309 1683.91 62.6311C1690.61 58.8035 1688.57 48.575 1680.66 47.0911C1680.66 47.0911 1680.56 47.0731 1680.47 47.0552C1667.73 44.7132 1659.24 32.4434 1662.58 20.4521C1665.12 11.3151 1674.34 5.27804 1684.43 6.0605C1697.72 7.07396 1707.24 18.7509 1705.37 30.7411C1705.36 30.8309 1705.34 30.9206 1705.33 31.0104C1704.33 38.4952 1713.8 43.6931 1719.94 39.1121C1737.27 26.2314 1752.09 12.8319 1763.59 -0.170224Z" stroke="white" stroke-width="4.66798" stroke-miterlimit="10"/>
</g>
<g filter="url(#filter4_d_1780_95)">
<path d="M1542.5 32.8559C1526.19 41.2167 1506.78 48.9659 1485.36 55.3074C1477.77 57.5728 1471.76 49.4441 1476.14 42.6928C1476.2 42.6126 1476.25 42.5325 1476.31 42.4523C1483.63 31.7113 1480.54 17.4464 1469.19 11.9927C1460.65 7.82548 1449.59 10.5086 1443.06 18.2394C1434.49 28.4678 1436.32 42.9624 1446.55 49.4865C1446.55 49.4865 1446.63 49.5356 1446.71 49.5848C1453 53.746 1450.1 64.0464 1442.36 65.4065C1420.59 69.2753 1400.16 71.0109 1382.45 70.6266C1384.02 52.8408 1383.78 32.455 1381.44 10.8865C1380.62 3.21247 1370.43 0.981821 1365.89 7.63483C1365.89 7.63483 1365.84 7.715 1365.79 7.79515C1358.53 18.5207 1343.88 21.3783 1334.24 13.5044C1326.89 7.50901 1325.06 -3.35436 1329.82 -12.2807C1336.09 -24.0489 1350.6 -28.086 1360.83 -21.5619C1360.91 -21.5128 1360.99 -21.4636 1361.06 -21.4144C1367.52 -17.4937 1376.08 -24.0908 1374.35 -31.5479C1369.5 -52.5924 1363.17 -71.5373 1355.88 -87.2961C1372.19 -95.6569 1391.6 -103.406 1413.02 -109.748C1420.61 -112.013 1426.61 -103.884 1422.23 -97.1331C1422.18 -97.0529 1422.12 -96.9727 1422.07 -96.8925C1414.75 -86.1515 1417.83 -71.8866 1429.18 -66.4329C1437.72 -62.2657 1448.79 -64.9488 1455.32 -72.6796C1463.88 -82.908 1462.05 -97.4026 1451.82 -103.927C1451.82 -103.927 1451.74 -103.976 1451.67 -104.025C1445.38 -108.186 1448.27 -118.487 1456.02 -119.847C1477.79 -123.716 1498.21 -125.451 1515.93 -125.067C1514.36 -107.281 1514.6 -86.8953 1516.94 -65.3267C1517.76 -57.6527 1527.95 -55.422 1532.48 -62.075C1532.48 -62.075 1532.53 -62.1552 1532.59 -62.2354C1539.84 -72.9609 1554.49 -75.8185 1564.13 -67.9446C1571.48 -61.9493 1573.31 -51.0859 1568.55 -42.1595C1562.29 -30.3914 1547.77 -26.3543 1537.54 -32.8784C1537.46 -32.9276 1537.39 -32.9767 1537.31 -33.0259C1530.86 -36.9466 1522.29 -30.3494 1524.03 -22.8923C1528.87 -1.84781 1535.2 17.097 1542.5 32.8559Z" fill="#44D2F2"/>
<path d="M1542.5 32.8559C1526.19 41.2167 1506.78 48.9659 1485.36 55.3074C1477.77 57.5728 1471.76 49.4441 1476.14 42.6928C1476.2 42.6126 1476.25 42.5325 1476.31 42.4523C1483.63 31.7113 1480.54 17.4464 1469.19 11.9927C1460.65 7.82548 1449.59 10.5086 1443.06 18.2394C1434.49 28.4678 1436.32 42.9624 1446.55 49.4865C1446.55 49.4865 1446.63 49.5356 1446.71 49.5848C1453 53.746 1450.1 64.0464 1442.36 65.4065C1420.59 69.2753 1400.16 71.0109 1382.45 70.6266C1384.02 52.8408 1383.78 32.455 1381.44 10.8865C1380.62 3.21247 1370.43 0.981821 1365.89 7.63483C1365.89 7.63483 1365.84 7.715 1365.79 7.79515C1358.53 18.5207 1343.88 21.3783 1334.24 13.5044C1326.89 7.50901 1325.06 -3.35436 1329.82 -12.2807C1336.09 -24.0489 1350.6 -28.086 1360.83 -21.5619C1360.91 -21.5128 1360.99 -21.4636 1361.06 -21.4144C1367.52 -17.4937 1376.08 -24.0908 1374.35 -31.5479C1369.5 -52.5924 1363.17 -71.5373 1355.88 -87.2961C1372.19 -95.6569 1391.6 -103.406 1413.02 -109.748C1420.61 -112.013 1426.61 -103.884 1422.23 -97.1331C1422.18 -97.0529 1422.12 -96.9727 1422.07 -96.8925C1414.75 -86.1515 1417.83 -71.8866 1429.18 -66.4329C1437.72 -62.2657 1448.79 -64.9488 1455.32 -72.6796C1463.88 -82.908 1462.05 -97.4026 1451.82 -103.927C1451.82 -103.927 1451.74 -103.976 1451.67 -104.025C1445.38 -108.186 1448.27 -118.487 1456.02 -119.847C1477.79 -123.716 1498.21 -125.451 1515.93 -125.067C1514.36 -107.281 1514.6 -86.8953 1516.94 -65.3267C1517.76 -57.6527 1527.95 -55.422 1532.48 -62.075C1532.48 -62.075 1532.53 -62.1552 1532.59 -62.2354C1539.84 -72.9609 1554.49 -75.8185 1564.13 -67.9446C1571.48 -61.9493 1573.31 -51.0859 1568.55 -42.1595C1562.29 -30.3914 1547.77 -26.3543 1537.54 -32.8784C1537.46 -32.9276 1537.39 -32.9767 1537.31 -33.0259C1530.86 -36.9466 1522.29 -30.3494 1524.03 -22.8923C1528.87 -1.84781 1535.2 17.097 1542.5 32.8559Z" stroke="white" stroke-width="4.66798" stroke-miterlimit="10"/>
</g>
<g filter="url(#filter5_d_1780_95)">
<path d="M1531.26 310.976C1548.59 316.955 1568.89 321.891 1590.99 325.151C1598.83 326.324 1603.63 317.43 1598.34 311.363C1598.27 311.292 1598.21 311.22 1598.14 311.148C1589.38 301.546 1590.43 286.988 1600.89 279.99C1608.76 274.661 1620.09 275.758 1627.65 282.491C1637.57 291.41 1637.8 306.018 1628.59 313.919C1628.59 313.919 1628.52 313.979 1628.45 314.038C1622.81 319.044 1627.13 328.834 1634.99 329.089C1657.09 329.851 1677.55 328.691 1695.04 325.814C1690.98 308.426 1688.34 288.211 1687.62 266.527C1687.35 258.815 1697.12 255.17 1702.55 261.118C1702.55 261.118 1702.61 261.19 1702.68 261.261C1711.37 270.857 1726.27 271.622 1734.71 262.468C1741.14 255.497 1741.43 244.483 1735.45 236.318C1727.59 225.549 1712.65 223.598 1703.44 231.499C1703.37 231.559 1703.31 231.618 1703.24 231.678C1697.4 236.469 1687.99 231.144 1688.66 223.517C1690.49 202 1694.09 182.352 1699.08 165.723C1681.76 159.744 1661.45 154.807 1639.35 151.548C1631.52 150.375 1626.72 159.269 1632.01 165.335C1632.07 165.407 1632.14 165.478 1632.2 165.55C1640.97 175.152 1639.92 189.71 1629.45 196.708C1621.59 202.038 1610.25 200.941 1602.7 194.208C1592.78 185.288 1592.55 170.68 1601.76 162.779C1601.76 162.779 1601.83 162.72 1601.89 162.66C1607.54 157.654 1603.22 147.865 1595.36 147.61C1573.26 146.847 1552.8 148.007 1535.31 150.884C1539.37 168.272 1542.01 188.488 1542.73 210.171C1543 217.884 1533.23 221.528 1527.8 215.581C1527.8 215.581 1527.74 215.509 1527.67 215.437C1518.98 205.841 1504.07 205.076 1495.64 214.23C1489.21 221.202 1488.92 232.215 1494.9 240.381C1502.75 251.149 1517.69 253.1 1526.9 245.199C1526.97 245.14 1527.04 245.08 1527.11 245.021C1532.95 240.23 1542.36 245.554 1541.69 253.181C1539.86 274.698 1536.26 294.346 1531.26 310.976Z" fill="#49C2F2"/>
<path d="M1531.26 310.976C1548.59 316.955 1568.89 321.891 1590.99 325.151C1598.83 326.324 1603.63 317.43 1598.34 311.363C1598.27 311.292 1598.21 311.22 1598.14 311.148C1589.38 301.546 1590.43 286.988 1600.89 279.99C1608.76 274.661 1620.09 275.758 1627.65 282.491C1637.57 291.41 1637.8 306.018 1628.59 313.919C1628.59 313.919 1628.52 313.979 1628.45 314.038C1622.81 319.044 1627.13 328.834 1634.99 329.089C1657.09 329.851 1677.55 328.691 1695.04 325.814C1690.98 308.426 1688.34 288.211 1687.62 266.527C1687.35 258.815 1697.12 255.17 1702.55 261.118C1702.55 261.118 1702.61 261.19 1702.68 261.261C1711.37 270.857 1726.27 271.622 1734.71 262.468C1741.14 255.497 1741.43 244.483 1735.45 236.318C1727.59 225.549 1712.65 223.598 1703.44 231.499C1703.37 231.559 1703.31 231.618 1703.24 231.678C1697.4 236.469 1687.99 231.144 1688.66 223.517C1690.49 202 1694.09 182.352 1699.08 165.723C1681.76 159.744 1661.45 154.807 1639.35 151.548C1631.52 150.375 1626.72 159.269 1632.01 165.335C1632.07 165.407 1632.14 165.478 1632.2 165.55C1640.97 175.152 1639.92 189.71 1629.45 196.708C1621.59 202.038 1610.25 200.941 1602.7 194.208C1592.78 185.288 1592.55 170.68 1601.76 162.779C1601.76 162.779 1601.83 162.72 1601.89 162.66C1607.54 157.654 1603.22 147.865 1595.36 147.61C1573.26 146.847 1552.8 148.007 1535.31 150.884C1539.37 168.272 1542.01 188.488 1542.73 210.171C1543 217.884 1533.23 221.528 1527.8 215.581C1527.8 215.581 1527.74 215.509 1527.67 215.437C1518.98 205.841 1504.07 205.076 1495.64 214.23C1489.21 221.202 1488.92 232.215 1494.9 240.381C1502.75 251.149 1517.69 253.1 1526.9 245.199C1526.97 245.14 1527.04 245.08 1527.11 245.021C1532.95 240.23 1542.36 245.554 1541.69 253.181C1539.86 274.698 1536.26 294.346 1531.26 310.976Z" stroke="white" stroke-width="4.66798" stroke-miterlimit="10"/>
</g>
<g filter="url(#filter6_d_1780_95)">
<path d="M1399.67 79.2242C1411.46 63.0211 1426.57 45.8844 1444.34 29.1299C1450.63 23.1745 1460.5 28.1426 1459.56 36.8912C1459.54 36.9963 1459.53 37.1015 1459.51 37.2066C1457.67 51.2977 1467.72 63.6922 1481.48 63.4154C1491.87 63.268 1501.34 55.1915 1503.9 44.4257C1507.21 30.2204 1498.28 16.9821 1485.07 15.6649C1485.07 15.6649 1484.97 15.6547 1484.88 15.6445C1476.69 14.6877 1474.43 3.20888 1481.31 -1.93864C1500.64 -16.4528 1519.72 -28.2226 1537.19 -36.5876C1544.44 -18.462 1554.72 1.31167 1567.65 21.1994C1572.23 28.2835 1583.28 25.4327 1584.42 16.7046C1584.42 16.7046 1584.43 16.5995 1584.45 16.4943C1586.23 2.4507 1599.11 -7.56354 1612.41 -4.63825C1622.53 -2.41446 1629.68 7.28066 1629.44 18.3402C1629.13 32.9109 1616.96 44.0113 1603.76 42.6942C1603.66 42.6839 1603.56 42.6737 1603.46 42.6634C1595.23 42.0221 1590.13 52.6839 1595.5 59.1037C1610.61 77.2461 1626.14 92.607 1641.03 104.385C1629.24 120.588 1614.12 137.725 1596.36 154.479C1590.07 160.435 1580.2 155.466 1581.14 146.718C1581.15 146.613 1581.17 146.507 1581.18 146.402C1583.02 132.311 1572.97 119.917 1559.21 120.193C1548.82 120.341 1539.35 128.417 1536.79 139.183C1533.48 153.388 1542.42 166.627 1555.62 167.944C1555.62 167.944 1555.72 167.954 1555.82 167.964C1564.01 168.921 1566.27 180.4 1559.38 185.548C1540.05 200.062 1520.98 211.831 1503.51 220.196C1496.26 202.071 1485.97 182.297 1473.04 162.41C1468.46 155.325 1457.42 158.176 1456.28 166.904C1456.28 166.904 1456.26 167.009 1456.25 167.115C1454.46 181.158 1441.58 191.172 1428.29 188.247C1418.16 186.023 1411.01 176.328 1411.26 165.269C1411.56 150.698 1423.73 139.598 1436.93 140.915C1437.03 140.925 1437.13 140.935 1437.23 140.946C1445.46 141.587 1450.56 130.925 1445.19 124.505C1430.08 106.363 1414.56 91.002 1399.67 79.2242Z" fill="#52A8F2"/>
<path d="M1399.67 79.2242C1411.46 63.0211 1426.57 45.8844 1444.34 29.1299C1450.63 23.1745 1460.5 28.1426 1459.56 36.8912C1459.54 36.9963 1459.53 37.1015 1459.51 37.2066C1457.67 51.2977 1467.72 63.6922 1481.48 63.4154C1491.87 63.268 1501.34 55.1915 1503.9 44.4257C1507.21 30.2204 1498.28 16.9821 1485.07 15.6649C1485.07 15.6649 1484.97 15.6547 1484.88 15.6445C1476.69 14.6877 1474.43 3.20888 1481.31 -1.93864C1500.64 -16.4528 1519.72 -28.2226 1537.19 -36.5876C1544.44 -18.462 1554.72 1.31167 1567.65 21.1994C1572.23 28.2835 1583.28 25.4327 1584.42 16.7046C1584.42 16.7046 1584.43 16.5995 1584.45 16.4943C1586.23 2.4507 1599.11 -7.56354 1612.41 -4.63825C1622.53 -2.41446 1629.68 7.28066 1629.44 18.3402C1629.13 32.9109 1616.96 44.0113 1603.76 42.6942C1603.66 42.6839 1603.56 42.6737 1603.46 42.6634C1595.23 42.0221 1590.13 52.6839 1595.5 59.1037C1610.61 77.2461 1626.14 92.607 1641.03 104.385C1629.24 120.588 1614.12 137.725 1596.36 154.479C1590.07 160.435 1580.2 155.466 1581.14 146.718C1581.15 146.613 1581.17 146.507 1581.18 146.402C1583.02 132.311 1572.97 119.917 1559.21 120.193C1548.82 120.341 1539.35 128.417 1536.79 139.183C1533.48 153.388 1542.42 166.627 1555.62 167.944C1555.62 167.944 1555.72 167.954 1555.82 167.964C1564.01 168.921 1566.27 180.4 1559.38 185.548C1540.05 200.062 1520.98 211.831 1503.51 220.196C1496.26 202.071 1485.97 182.297 1473.04 162.41C1468.46 155.325 1457.42 158.176 1456.28 166.904C1456.28 166.904 1456.26 167.009 1456.25 167.115C1454.46 181.158 1441.58 191.172 1428.29 188.247C1418.16 186.023 1411.01 176.328 1411.26 165.269C1411.56 150.698 1423.73 139.598 1436.93 140.915C1437.03 140.925 1437.13 140.935 1437.23 140.946C1445.46 141.587 1450.56 130.925 1445.19 124.505C1430.08 106.363 1414.56 91.002 1399.67 79.2242Z" stroke="white" stroke-width="4.66798" stroke-miterlimit="10"/>
</g>
<g filter="url(#filter7_d_1780_95)">
<path d="M923.524 -60.8422C934.701 -75.3653 948.945 -90.6595 965.607 -105.539C971.504 -110.828 980.405 -106.041 979.326 -98.0658C979.31 -97.9699 979.295 -97.8742 979.28 -97.7783C977.246 -84.9403 986.129 -73.3591 998.718 -73.2716C1008.22 -73.1493 1017.08 -80.2993 1019.69 -90.0793C1023.06 -102.985 1015.22 -115.311 1003.18 -116.842C1003.18 -116.842 1003.09 -116.853 1003 -116.865C995.537 -117.943 993.759 -128.494 1000.18 -133.03C1018.21 -145.822 1035.94 -156.111 1052.13 -163.327C1058.3 -146.575 1067.22 -128.241 1078.55 -109.738C1082.56 -103.147 1092.73 -105.48 1093.99 -113.432C1093.99 -113.432 1094 -113.528 1094.02 -113.624C1096 -126.42 1108.03 -135.257 1120.11 -132.254C1129.31 -129.97 1135.61 -120.928 1135.11 -110.823C1134.47 -97.508 1123.07 -87.6599 1111.03 -89.1909C1110.94 -89.2028 1110.85 -89.2146 1110.76 -89.2264C1103.25 -90.0165 1098.32 -80.3945 1103.08 -74.3919C1116.44 -57.4301 1130.25 -43.0012 1143.58 -31.8641C1132.4 -17.3411 1118.15 -2.04687 1101.49 12.8322C1095.6 18.1217 1086.69 13.3349 1087.77 5.35932C1087.79 5.26352 1087.8 5.16764 1087.82 5.07184C1089.85 -7.76623 1080.97 -19.3475 1068.38 -19.4349C1058.88 -19.5572 1050.02 -12.4072 1047.41 -2.62722C1044.04 10.2789 1051.88 22.6041 1063.92 24.1351C1063.92 24.1351 1064.01 24.147 1064.1 24.1588C1071.56 25.2363 1073.34 35.7874 1066.92 40.3235C1048.89 53.1155 1031.16 63.4047 1014.97 70.6204C1008.8 53.8686 999.88 35.5348 988.552 17.0312C984.537 10.4407 974.37 12.7738 973.111 20.7257C973.111 20.7257 973.095 20.8217 973.08 20.9175C971.099 33.7135 959.074 42.5509 946.993 39.5472C937.788 37.2633 931.493 28.2221 931.99 18.1163C932.627 4.80159 944.03 -5.0464 956.069 -3.51536C956.159 -3.50353 956.249 -3.4917 956.339 -3.47988C963.849 -2.68983 968.777 -12.312 964.025 -18.3146C950.659 -35.2764 936.846 -49.7051 923.524 -60.8422Z" fill="#49C2F2"/>
<path d="M923.524 -60.8422C934.701 -75.3653 948.945 -90.6595 965.607 -105.539C971.504 -110.828 980.405 -106.041 979.326 -98.0658C979.31 -97.9699 979.295 -97.8742 979.28 -97.7783C977.246 -84.9403 986.129 -73.3591 998.718 -73.2716C1008.22 -73.1493 1017.08 -80.2993 1019.69 -90.0793C1023.06 -102.985 1015.22 -115.311 1003.18 -116.842C1003.18 -116.842 1003.09 -116.853 1003 -116.865C995.537 -117.943 993.759 -128.494 1000.18 -133.03C1018.21 -145.822 1035.94 -156.111 1052.13 -163.327C1058.3 -146.575 1067.22 -128.241 1078.55 -109.738C1082.56 -103.147 1092.73 -105.48 1093.99 -113.432C1093.99 -113.432 1094 -113.528 1094.02 -113.624C1096 -126.42 1108.03 -135.257 1120.11 -132.254C1129.31 -129.97 1135.61 -120.928 1135.11 -110.823C1134.47 -97.508 1123.07 -87.6599 1111.03 -89.1909C1110.94 -89.2028 1110.85 -89.2146 1110.76 -89.2264C1103.25 -90.0165 1098.32 -80.3945 1103.08 -74.3919C1116.44 -57.4301 1130.25 -43.0012 1143.58 -31.8641C1132.4 -17.3411 1118.15 -2.04687 1101.49 12.8322C1095.6 18.1217 1086.69 13.3349 1087.77 5.35932C1087.79 5.26352 1087.8 5.16764 1087.82 5.07184C1089.85 -7.76623 1080.97 -19.3475 1068.38 -19.4349C1058.88 -19.5572 1050.02 -12.4072 1047.41 -2.62722C1044.04 10.2789 1051.88 22.6041 1063.92 24.1351C1063.92 24.1351 1064.01 24.147 1064.1 24.1588C1071.56 25.2363 1073.34 35.7874 1066.92 40.3235C1048.89 53.1155 1031.16 63.4047 1014.97 70.6204C1008.8 53.8686 999.88 35.5348 988.552 17.0312C984.537 10.4407 974.37 12.7738 973.111 20.7257C973.111 20.7257 973.095 20.8217 973.08 20.9175C971.099 33.7135 959.074 42.5509 946.993 39.5472C937.788 37.2633 931.493 28.2221 931.99 18.1163C932.627 4.80159 944.03 -5.0464 956.069 -3.51536C956.159 -3.50353 956.249 -3.4917 956.339 -3.47988C963.849 -2.68983 968.777 -12.312 964.025 -18.3146C950.659 -35.2764 936.846 -49.7051 923.524 -60.8422Z" stroke="white" stroke-width="4.66798" stroke-miterlimit="10"/>
</g>
<g filter="url(#filter8_d_1780_95)">
<path d="M-193.581 302.347C-179.756 282.636 -161.953 261.734 -140.952 241.237C-133.52 233.952 -121.559 239.716 -122.512 250.246C-122.526 250.372 -122.54 250.499 -122.555 250.626C-124.477 267.593 -112.145 282.275 -95.6179 281.657C-83.1405 281.265 -71.9288 271.365 -69.0764 258.378C-65.3938 241.243 -76.4065 225.524 -92.2949 224.215C-92.2949 224.215 -92.414 224.205 -92.533 224.195C-102.392 223.215 -105.34 209.471 -97.176 203.144C-74.2538 185.306 -51.5854 170.77 -30.7657 160.358C-21.6832 181.984 -8.91385 205.527 7.02958 229.152C12.6832 237.568 25.8905 233.914 27.0808 223.405C27.0808 223.405 27.0951 223.278 27.1094 223.151C28.9646 206.242 44.2322 193.944 60.2624 197.183C72.4765 199.645 81.2643 211.144 81.2003 224.436C81.1388 241.948 66.7464 255.536 50.858 254.228C50.739 254.217 50.62 254.207 50.5011 254.197C40.5987 253.597 34.6913 266.512 41.278 274.113C59.8065 295.596 78.7745 313.729 96.9072 327.57C83.0826 347.281 65.2791 368.183 44.278 388.68C36.846 395.965 24.8859 390.201 25.8384 379.671C25.8527 379.544 25.867 379.418 25.8813 379.291C27.8031 362.324 15.4716 347.641 -1.05553 348.259C-13.5329 348.652 -24.7446 358.551 -27.597 371.538C-31.2796 388.673 -20.2669 404.393 -4.37848 405.701C-4.37848 405.701 -4.25958 405.712 -4.14062 405.722C5.71878 406.702 8.66675 420.446 0.502367 426.773C-22.4198 444.611 -45.088 459.146 -65.9077 469.558C-74.9902 447.932 -87.7598 424.39 -103.703 400.765C-109.357 392.349 -122.564 396.002 -123.754 406.512C-123.754 406.512 -123.769 406.639 -123.783 406.765C-125.638 423.675 -140.906 435.973 -156.936 432.734C-169.15 430.272 -177.938 418.773 -177.874 405.481C-177.812 387.969 -163.42 374.381 -147.531 375.689C-147.413 375.7 -147.294 375.71 -147.175 375.72C-137.272 376.32 -131.365 363.405 -137.951 355.803C-156.48 334.32 -175.448 316.188 -193.581 302.347Z" fill="url(#paint1_linear_1780_95)"/>
<path d="M-193.581 302.347C-179.756 282.636 -161.953 261.734 -140.952 241.237C-133.52 233.952 -121.559 239.716 -122.512 250.246C-122.526 250.372 -122.54 250.499 -122.555 250.626C-124.477 267.593 -112.145 282.275 -95.6179 281.657C-83.1405 281.265 -71.9288 271.365 -69.0764 258.378C-65.3938 241.243 -76.4065 225.524 -92.2949 224.215C-92.2949 224.215 -92.414 224.205 -92.533 224.195C-102.392 223.215 -105.34 209.471 -97.176 203.144C-74.2538 185.306 -51.5854 170.77 -30.7657 160.358C-21.6832 181.984 -8.91385 205.527 7.02958 229.152C12.6832 237.568 25.8905 233.914 27.0808 223.405C27.0808 223.405 27.0951 223.278 27.1094 223.151C28.9646 206.242 44.2322 193.944 60.2624 197.183C72.4765 199.645 81.2643 211.144 81.2003 224.436C81.1388 241.948 66.7464 255.536 50.858 254.228C50.739 254.217 50.62 254.207 50.5011 254.197C40.5987 253.597 34.6913 266.512 41.278 274.113C59.8065 295.596 78.7745 313.729 96.9072 327.57C83.0826 347.281 65.2791 368.183 44.278 388.68C36.846 395.965 24.8859 390.201 25.8384 379.671C25.8527 379.544 25.867 379.418 25.8813 379.291C27.8031 362.324 15.4716 347.641 -1.05553 348.259C-13.5329 348.652 -24.7446 358.551 -27.597 371.538C-31.2796 388.673 -20.2669 404.393 -4.37848 405.701C-4.37848 405.701 -4.25958 405.712 -4.14062 405.722C5.71878 406.702 8.66675 420.446 0.502367 426.773C-22.4198 444.611 -45.088 459.146 -65.9077 469.558C-74.9902 447.932 -87.7598 424.39 -103.703 400.765C-109.357 392.349 -122.564 396.002 -123.754 406.512C-123.754 406.512 -123.769 406.639 -123.783 406.765C-125.638 423.675 -140.906 435.973 -156.936 432.734C-169.15 430.272 -177.938 418.773 -177.874 405.481C-177.812 387.969 -163.42 374.381 -147.531 375.689C-147.413 375.7 -147.294 375.71 -147.175 375.72C-137.272 376.32 -131.365 363.405 -137.951 355.803C-156.48 334.32 -175.448 316.188 -193.581 302.347Z" stroke="white" stroke-width="4.66798" stroke-miterlimit="10"/>
</g>
<g filter="url(#filter9_d_1780_95)">
<path d="M508.591 -23.6322C491.152 -9.40714 472.873 8.60821 455.187 29.5772C448.898 37.0001 455.083 47.7599 464.836 46.158C464.953 46.1361 465.07 46.1141 465.187 46.0922C480.876 43.1501 495.4 53.6514 495.945 69.1016C496.425 80.7609 487.955 91.8847 476.041 95.4246C460.315 100.02 444.914 90.8181 442.616 76.094C442.616 76.094 442.599 75.9837 442.581 75.8734C440.999 66.7479 427.986 64.9313 422.641 72.9719C407.564 95.5518 395.549 117.671 387.254 137.787C408.032 144.789 430.846 155.097 453.953 168.36C462.182 173.06 459.671 185.621 449.954 187.443C449.954 187.443 449.837 187.465 449.72 187.487C434.081 190.363 423.65 205.431 427.757 220.156C430.88 231.377 442.197 238.79 454.585 237.829C470.907 236.585 482.6 222.245 480.302 207.521C480.285 207.411 480.267 207.301 480.249 207.19C479.019 197.999 490.659 191.616 498.192 197.242C519.477 213.059 537.668 229.514 551.802 245.481C569.241 231.255 587.521 213.24 605.207 192.271C611.495 184.848 605.31 174.089 595.557 175.691C595.44 175.712 595.323 175.734 595.206 175.756C579.518 178.698 564.993 168.197 564.449 152.747C563.969 141.088 572.438 129.964 584.352 126.424C600.078 121.829 615.48 131.03 617.777 145.754C617.777 145.754 617.795 145.865 617.812 145.975C619.394 155.1 632.407 156.917 637.753 148.876C652.829 126.297 664.844 104.177 673.139 84.0612C652.362 77.0598 629.547 66.7508 606.44 53.4885C598.211 48.7881 600.722 36.2275 610.439 34.4052C610.439 34.4052 610.557 34.3831 610.674 34.3611C626.312 31.4852 636.743 16.4176 632.636 1.69221C629.513 -9.52819 618.196 -16.9417 605.809 -15.9808C589.487 -14.7363 577.794 -0.396848 580.091 14.3273C580.109 14.4375 580.126 14.5477 580.144 14.6579C581.375 23.8493 569.734 30.2325 562.201 24.607C540.916 8.7893 522.725 -7.66542 508.591 -23.6322Z" fill="#6393F2"/>
<path d="M508.591 -23.6322C491.152 -9.40714 472.873 8.60821 455.187 29.5772C448.898 37.0001 455.083 47.7599 464.836 46.158C464.953 46.1361 465.07 46.1141 465.187 46.0922C480.876 43.1501 495.4 53.6514 495.945 69.1016C496.425 80.7609 487.955 91.8847 476.041 95.4246C460.315 100.02 444.914 90.8181 442.616 76.094C442.616 76.094 442.599 75.9837 442.581 75.8734C440.999 66.7479 427.986 64.9313 422.641 72.9719C407.564 95.5518 395.549 117.671 387.254 137.787C408.032 144.789 430.846 155.097 453.953 168.36C462.182 173.06 459.671 185.621 449.954 187.443C449.954 187.443 449.837 187.465 449.72 187.487C434.081 190.363 423.65 205.431 427.757 220.156C430.88 231.377 442.197 238.79 454.585 237.829C470.907 236.585 482.6 222.245 480.302 207.521C480.285 207.411 480.267 207.301 480.249 207.19C479.019 197.999 490.659 191.616 498.192 197.242C519.477 213.059 537.668 229.514 551.802 245.481C569.241 231.255 587.521 213.24 605.207 192.271C611.495 184.848 605.31 174.089 595.557 175.691C595.44 175.712 595.323 175.734 595.206 175.756C579.518 178.698 564.993 168.197 564.449 152.747C563.969 141.088 572.438 129.964 584.352 126.424C600.078 121.829 615.48 131.03 617.777 145.754C617.777 145.754 617.795 145.865 617.812 145.975C619.394 155.1 632.407 156.917 637.753 148.876C652.829 126.297 664.844 104.177 673.139 84.0612C652.362 77.0598 629.547 66.7508 606.44 53.4885C598.211 48.7881 600.722 36.2275 610.439 34.4052C610.439 34.4052 610.557 34.3831 610.674 34.3611C626.312 31.4852 636.743 16.4176 632.636 1.69221C629.513 -9.52819 618.196 -16.9417 605.809 -15.9808C589.487 -14.7363 577.794 -0.396848 580.091 14.3273C580.109 14.4375 580.126 14.5477 580.144 14.6579C581.375 23.8493 569.734 30.2325 562.201 24.607C540.916 8.7893 522.725 -7.66542 508.591 -23.6322Z" stroke="white" stroke-width="4.66798" stroke-miterlimit="10"/>
</g>
<g filter="url(#filter10_d_1780_95)">
<path d="M592.018 28.3021C593.629 8.19686 593.308 -14.8025 590.708 -39.2496C589.805 -47.9215 579.007 -50.5923 573.996 -43.2886C573.938 -43.1992 573.879 -43.1099 573.821 -43.0205C565.995 -31.0452 550.193 -28.1596 539.859 -37.3887C532.018 -44.3085 530.072 -56.6867 535.171 -66.5909C541.949 -79.6151 557.454 -83.8744 568.406 -76.2298C568.406 -76.2298 568.488 -76.1728 568.57 -76.1158C575.456 -71.4802 584.701 -78.7737 582.813 -87.2185C577.553 -110.976 570.692 -132.467 562.821 -150.309C545.406 -141.207 524.587 -132.838 501.677 -126.112C493.532 -123.702 486.962 -133.117 491.809 -140.534C491.809 -140.534 491.868 -140.624 491.926 -140.713C499.763 -152.615 496.482 -168.708 484.408 -175.183C475.211 -180.12 463.397 -177.395 456.336 -168.784C447.02 -157.452 449.046 -140.994 459.998 -133.349C460.08 -133.292 460.163 -133.235 460.245 -133.178C466.955 -128.274 463.867 -116.785 455.555 -115.399C432.121 -111.436 410.193 -109.87 391.097 -110.627C389.487 -90.5214 389.807 -67.522 392.407 -43.075C393.31 -34.4031 404.108 -31.7325 409.119 -39.0362C409.178 -39.1255 409.236 -39.2149 409.295 -39.3043C417.12 -51.2796 432.922 -54.1652 443.256 -44.9361C451.098 -38.0164 453.043 -25.6382 447.945 -15.7339C441.166 -2.70968 425.661 1.54959 414.71 -6.09498C414.71 -6.09498 414.627 -6.15182 414.545 -6.20875C407.66 -10.8444 398.414 -3.55089 400.302 4.89389C405.562 28.6514 412.423 50.1422 420.294 67.9846C437.71 58.8827 458.528 50.5139 481.439 43.7877C489.583 41.3779 496.153 50.7919 491.306 58.2094C491.306 58.2094 491.248 58.299 491.189 58.3884C483.352 70.2905 486.633 86.3834 498.707 92.8582C507.904 97.7956 519.719 95.0708 526.779 86.4596C536.096 75.127 534.069 58.669 523.117 51.0244C523.035 50.9675 522.953 50.9105 522.87 50.8536C516.16 45.9499 519.249 34.4598 527.56 33.0741C550.994 29.1112 572.922 27.5453 592.018 28.3021Z" fill="#9AE2FF"/>
<path d="M592.018 28.3021C593.629 8.19686 593.308 -14.8025 590.708 -39.2496C589.805 -47.9215 579.007 -50.5923 573.996 -43.2886C573.938 -43.1992 573.879 -43.1099 573.821 -43.0205C565.995 -31.0452 550.193 -28.1596 539.859 -37.3887C532.018 -44.3085 530.072 -56.6867 535.171 -66.5909C541.949 -79.6151 557.454 -83.8744 568.406 -76.2298C568.406 -76.2298 568.488 -76.1728 568.57 -76.1158C575.456 -71.4802 584.701 -78.7737 582.813 -87.2185C577.553 -110.976 570.692 -132.467 562.821 -150.309C545.406 -141.207 524.587 -132.838 501.677 -126.112C493.532 -123.702 486.962 -133.117 491.809 -140.534C491.809 -140.534 491.868 -140.624 491.926 -140.713C499.763 -152.615 496.482 -168.708 484.408 -175.183C475.211 -180.12 463.397 -177.395 456.336 -168.784C447.02 -157.452 449.046 -140.994 459.998 -133.349C460.08 -133.292 460.163 -133.235 460.245 -133.178C466.955 -128.274 463.867 -116.785 455.555 -115.399C432.121 -111.436 410.193 -109.87 391.097 -110.627C389.487 -90.5214 389.807 -67.522 392.407 -43.075C393.31 -34.4031 404.108 -31.7325 409.119 -39.0362C409.178 -39.1255 409.236 -39.2149 409.295 -39.3043C417.12 -51.2796 432.922 -54.1652 443.256 -44.9361C451.098 -38.0164 453.043 -25.6382 447.945 -15.7339C441.166 -2.70968 425.661 1.54959 414.71 -6.09498C414.71 -6.09498 414.627 -6.15182 414.545 -6.20875C407.66 -10.8444 398.414 -3.55089 400.302 4.89389C405.562 28.6514 412.423 50.1422 420.294 67.9846C437.71 58.8827 458.528 50.5139 481.439 43.7877C489.583 41.3779 496.153 50.7919 491.306 58.2094C491.306 58.2094 491.248 58.299 491.189 58.3884C483.352 70.2905 486.633 86.3834 498.707 92.8582C507.904 97.7956 519.719 95.0708 526.779 86.4596C536.096 75.127 534.069 58.669 523.117 51.0244C523.035 50.9675 522.953 50.9105 522.87 50.8536C516.16 45.9499 519.249 34.4598 527.56 33.0741C550.994 29.1112 572.922 27.5453 592.018 28.3021Z" stroke="white" stroke-width="4.66798" stroke-miterlimit="10"/>
</g>
<g filter="url(#filter11_d_1780_95)">
<path d="M21.8178 -0.170224C7.61658 11.4136 -7.26884 26.084 -21.671 43.1596C-26.7916 49.2042 -21.7552 57.9662 -13.8133 56.6617C-13.718 56.6438 -13.6227 56.6259 -13.5273 56.608C-0.751869 54.2123 11.0758 62.7638 11.5191 75.3452C11.91 84.8396 5.01329 93.8981 -4.68905 96.7806C-17.4945 100.522 -30.0365 93.0295 -31.9073 81.0393C-31.9073 81.0393 -31.9216 80.9494 -31.936 80.8597C-33.224 73.4285 -43.8212 71.9492 -48.1739 78.4969C-60.451 96.8842 -70.235 114.896 -76.9904 131.278C-60.0706 136.979 -41.4919 145.374 -22.6755 156.174C-15.9742 160.001 -18.019 170.23 -25.9322 171.714C-25.9322 171.714 -26.0275 171.732 -26.1228 171.749C-38.8578 174.091 -47.3517 186.361 -44.0077 198.353C-41.4645 207.49 -32.2489 213.527 -22.1612 212.744C-8.86977 211.731 0.65199 200.054 -1.21876 188.064C-1.23313 187.974 -1.24749 187.884 -1.26186 187.794C-2.26391 180.31 7.21489 175.112 13.3495 179.693C30.6823 192.573 45.4959 205.973 57.0052 218.975C71.2064 207.391 86.0919 192.721 100.494 175.645C105.615 169.601 100.578 160.839 92.6363 162.143C92.5409 162.161 92.4455 162.179 92.3502 162.197C79.5747 164.593 67.747 156.041 67.3037 143.46C66.9128 133.965 73.8096 124.907 83.5119 122.024C96.3173 118.282 108.859 125.775 110.73 137.766C110.73 137.766 110.745 137.855 110.759 137.945C112.047 145.376 122.644 146.855 126.997 140.308C139.274 121.92 149.058 103.908 155.813 87.5272C138.893 81.8258 120.315 73.4309 101.499 62.6311C94.7971 58.8035 96.8419 48.575 104.755 47.0911C104.755 47.0911 104.85 47.0731 104.946 47.0552C117.681 44.7132 126.175 32.4434 122.831 20.4521C120.287 11.3151 111.072 5.27804 100.984 6.0605C87.6928 7.07396 78.1711 18.7509 80.0418 30.7411C80.0562 30.8309 80.0706 30.9206 80.0849 31.0104C81.087 38.4952 71.608 43.6931 65.4734 39.1121C48.1405 26.2314 33.3271 12.8319 21.8178 -0.170224Z" fill="#9AE2FF"/>
<path d="M21.8178 -0.170224C7.61658 11.4136 -7.26884 26.084 -21.671 43.1596C-26.7916 49.2042 -21.7552 57.9662 -13.8133 56.6617C-13.718 56.6438 -13.6227 56.6259 -13.5273 56.608C-0.751869 54.2123 11.0758 62.7638 11.5191 75.3452C11.91 84.8396 5.01329 93.8981 -4.68905 96.7806C-17.4945 100.522 -30.0365 93.0295 -31.9073 81.0393C-31.9073 81.0393 -31.9216 80.9494 -31.936 80.8597C-33.224 73.4285 -43.8212 71.9492 -48.1739 78.4969C-60.451 96.8842 -70.235 114.896 -76.9904 131.278C-60.0706 136.979 -41.4919 145.374 -22.6755 156.174C-15.9742 160.001 -18.019 170.23 -25.9322 171.714C-25.9322 171.714 -26.0275 171.732 -26.1228 171.749C-38.8578 174.091 -47.3517 186.361 -44.0077 198.353C-41.4645 207.49 -32.2489 213.527 -22.1612 212.744C-8.86977 211.731 0.65199 200.054 -1.21876 188.064C-1.23313 187.974 -1.24749 187.884 -1.26186 187.794C-2.26391 180.31 7.21489 175.112 13.3495 179.693C30.6823 192.573 45.4959 205.973 57.0052 218.975C71.2064 207.391 86.0919 192.721 100.494 175.645C105.615 169.601 100.578 160.839 92.6363 162.143C92.5409 162.161 92.4455 162.179 92.3502 162.197C79.5747 164.593 67.747 156.041 67.3037 143.46C66.9128 133.965 73.8096 124.907 83.5119 122.024C96.3173 118.282 108.859 125.775 110.73 137.766C110.73 137.766 110.745 137.855 110.759 137.945C112.047 145.376 122.644 146.855 126.997 140.308C139.274 121.92 149.058 103.908 155.813 87.5272C138.893 81.8258 120.315 73.4309 101.499 62.6311C94.7971 58.8035 96.8419 48.575 104.755 47.0911C104.755 47.0911 104.85 47.0731 104.946 47.0552C117.681 44.7132 126.175 32.4434 122.831 20.4521C120.287 11.3151 111.072 5.27804 100.984 6.0605C87.6928 7.07396 78.1711 18.7509 80.0418 30.7411C80.0562 30.8309 80.0706 30.9206 80.0849 31.0104C81.087 38.4952 71.608 43.6931 65.4734 39.1121C48.1405 26.2314 33.3271 12.8319 21.8178 -0.170224Z" stroke="white" stroke-width="4.66798" stroke-miterlimit="10"/>
</g>
<g filter="url(#filter12_d_1780_95)">
<path d="M242.916 32.8559C259.224 41.2167 278.634 48.9659 300.053 55.3074C307.644 57.5728 313.65 49.4441 309.268 42.6928C309.214 42.6126 309.159 42.5325 309.105 42.4523C301.784 31.7113 304.872 17.4464 316.219 11.9927C324.759 7.82548 335.823 10.5086 342.356 18.2394C350.921 28.4678 349.09 42.9624 338.857 49.4865C338.857 49.4865 338.781 49.5356 338.704 49.5848C332.414 53.746 335.311 64.0464 343.055 65.4065C364.823 69.2753 385.247 71.0109 402.962 70.6266C401.397 52.8408 401.632 32.455 403.976 10.8865C404.793 3.21247 414.983 0.981821 419.517 7.63483C419.517 7.63483 419.572 7.715 419.626 7.79515C426.881 18.5207 441.528 21.3783 451.17 13.5044C458.519 7.50901 460.352 -3.35436 455.588 -12.2807C449.327 -24.0489 434.811 -28.086 424.578 -21.5619C424.502 -21.5128 424.426 -21.4636 424.349 -21.4144C417.895 -17.4937 409.331 -24.0908 411.066 -31.5479C415.911 -52.5924 422.241 -71.5373 429.534 -87.2961C413.225 -95.6569 393.815 -103.406 372.396 -109.748C364.805 -112.013 358.8 -103.884 363.181 -97.1331C363.236 -97.0529 363.29 -96.9727 363.345 -96.8925C370.665 -86.1515 367.577 -71.8866 356.23 -66.4329C347.69 -62.2657 336.626 -64.9488 330.093 -72.6796C321.528 -82.908 323.36 -97.4026 333.592 -103.927C333.592 -103.927 333.669 -103.976 333.745 -104.025C340.035 -108.186 337.139 -118.487 329.395 -119.847C307.626 -123.716 287.202 -125.451 269.487 -125.067C271.053 -107.281 270.817 -86.8953 268.473 -65.3267C267.656 -57.6527 257.466 -55.422 252.932 -62.075C252.932 -62.075 252.878 -62.1552 252.823 -62.2354C245.568 -72.9609 230.922 -75.8185 221.279 -67.9446C213.93 -61.9493 212.098 -51.0859 216.862 -42.1595C223.122 -30.3914 237.638 -26.3543 247.871 -32.8784C247.947 -32.9276 248.024 -32.9767 248.1 -33.0259C254.554 -36.9466 263.118 -30.3494 261.383 -22.8923C256.539 -1.84781 250.208 17.097 242.916 32.8559Z" fill="#44D2F2"/>
<path d="M242.916 32.8559C259.224 41.2167 278.634 48.9659 300.053 55.3074C307.644 57.5728 313.65 49.4441 309.268 42.6928C309.214 42.6126 309.159 42.5325 309.105 42.4523C301.784 31.7113 304.872 17.4464 316.219 11.9927C324.759 7.82548 335.823 10.5086 342.356 18.2394C350.921 28.4678 349.09 42.9624 338.857 49.4865C338.857 49.4865 338.781 49.5356 338.704 49.5848C332.414 53.746 335.311 64.0464 343.055 65.4065C364.823 69.2753 385.247 71.0109 402.962 70.6266C401.397 52.8408 401.632 32.455 403.976 10.8865C404.793 3.21247 414.983 0.981821 419.517 7.63483C419.517 7.63483 419.572 7.715 419.626 7.79515C426.881 18.5207 441.528 21.3783 451.17 13.5044C458.519 7.50901 460.352 -3.35436 455.588 -12.2807C449.327 -24.0489 434.811 -28.086 424.578 -21.5619C424.502 -21.5128 424.426 -21.4636 424.349 -21.4144C417.895 -17.4937 409.331 -24.0908 411.066 -31.5479C415.911 -52.5924 422.241 -71.5373 429.534 -87.2961C413.225 -95.6569 393.815 -103.406 372.396 -109.748C364.805 -112.013 358.8 -103.884 363.181 -97.1331C363.236 -97.0529 363.29 -96.9727 363.345 -96.8925C370.665 -86.1515 367.577 -71.8866 356.23 -66.4329C347.69 -62.2657 336.626 -64.9488 330.093 -72.6796C321.528 -82.908 323.36 -97.4026 333.592 -103.927C333.592 -103.927 333.669 -103.976 333.745 -104.025C340.035 -108.186 337.139 -118.487 329.395 -119.847C307.626 -123.716 287.202 -125.451 269.487 -125.067C271.053 -107.281 270.817 -86.8953 268.473 -65.3267C267.656 -57.6527 257.466 -55.422 252.932 -62.075C252.932 -62.075 252.878 -62.1552 252.823 -62.2354C245.568 -72.9609 230.922 -75.8185 221.279 -67.9446C213.93 -61.9493 212.098 -51.0859 216.862 -42.1595C223.122 -30.3914 237.638 -26.3543 247.871 -32.8784C247.947 -32.9276 248.024 -32.9767 248.1 -33.0259C254.554 -36.9466 263.118 -30.3494 261.383 -22.8923C256.539 -1.84781 250.208 17.097 242.916 32.8559Z" stroke="white" stroke-width="4.66798" stroke-miterlimit="10"/>
</g>
<g filter="url(#filter13_d_1780_95)">
<path d="M254.149 310.976C236.826 316.955 216.517 321.891 194.418 325.151C186.584 326.324 181.784 317.43 187.073 311.363C187.138 311.292 187.203 311.22 187.269 311.148C196.03 301.546 194.983 286.988 184.518 279.99C176.651 274.661 165.319 275.758 157.761 282.491C147.84 291.41 147.611 306.018 156.822 313.919C156.822 313.919 156.891 313.979 156.959 314.038C162.6 319.044 158.281 328.834 150.423 329.089C128.326 329.851 107.861 328.691 90.3771 325.814C94.4337 308.426 97.0733 288.211 97.7929 266.527C98.0651 258.815 88.2915 255.17 82.8651 261.118C82.8651 261.118 82.7998 261.19 82.7344 261.261C74.0408 270.857 59.1372 271.622 50.7008 262.468C44.27 255.497 43.9869 244.483 49.9612 236.318C57.818 225.549 72.7582 223.598 81.969 231.499C82.0377 231.559 82.1065 231.618 82.1752 231.678C88.0122 236.469 97.4206 231.144 96.7539 223.517C94.9233 202 91.326 182.352 86.3273 165.723C103.651 159.744 123.959 154.807 146.058 151.548C153.893 150.375 158.693 159.269 153.404 165.335C153.338 165.407 153.273 165.478 153.208 165.55C144.447 175.152 145.494 189.71 155.958 196.708C163.826 202.038 175.158 200.941 182.715 194.208C192.636 185.288 192.866 170.68 183.655 162.779C183.655 162.779 183.586 162.72 183.517 162.66C177.877 157.654 182.196 147.865 190.054 147.61C212.15 146.847 232.615 148.007 250.099 150.884C246.043 168.272 243.403 188.488 242.684 210.171C242.412 217.884 252.185 221.528 257.611 215.581C257.611 215.581 257.677 215.509 257.742 215.437C266.436 205.841 281.339 205.076 289.776 214.23C296.207 221.202 296.49 232.215 290.516 240.381C282.659 251.149 267.719 253.1 258.508 245.199C258.439 245.14 258.37 245.08 258.302 245.021C252.465 240.23 243.056 245.554 243.723 253.181C245.553 274.698 249.151 294.346 254.149 310.976Z" fill="#49C2F2"/>
<path d="M254.149 310.976C236.826 316.955 216.517 321.891 194.418 325.151C186.584 326.324 181.784 317.43 187.073 311.363C187.138 311.292 187.203 311.22 187.269 311.148C196.03 301.546 194.983 286.988 184.518 279.99C176.651 274.661 165.319 275.758 157.761 282.491C147.84 291.41 147.611 306.018 156.822 313.919C156.822 313.919 156.891 313.979 156.959 314.038C162.6 319.044 158.281 328.834 150.423 329.089C128.326 329.851 107.861 328.691 90.3771 325.814C94.4337 308.426 97.0733 288.211 97.7929 266.527C98.0651 258.815 88.2915 255.17 82.8651 261.118C82.8651 261.118 82.7998 261.19 82.7344 261.261C74.0408 270.857 59.1372 271.622 50.7008 262.468C44.27 255.497 43.9869 244.483 49.9612 236.318C57.818 225.549 72.7582 223.598 81.969 231.499C82.0377 231.559 82.1065 231.618 82.1752 231.678C88.0122 236.469 97.4206 231.144 96.7539 223.517C94.9233 202 91.326 182.352 86.3273 165.723C103.651 159.744 123.959 154.807 146.058 151.548C153.893 150.375 158.693 159.269 153.404 165.335C153.338 165.407 153.273 165.478 153.208 165.55C144.447 175.152 145.494 189.71 155.958 196.708C163.826 202.038 175.158 200.941 182.715 194.208C192.636 185.288 192.866 170.68 183.655 162.779C183.655 162.779 183.586 162.72 183.517 162.66C177.877 157.654 182.196 147.865 190.054 147.61C212.15 146.847 232.615 148.007 250.099 150.884C246.043 168.272 243.403 188.488 242.684 210.171C242.412 217.884 252.185 221.528 257.611 215.581C257.611 215.581 257.677 215.509 257.742 215.437C266.436 205.841 281.339 205.076 289.776 214.23C296.207 221.202 296.49 232.215 290.516 240.381C282.659 251.149 267.719 253.1 258.508 245.199C258.439 245.14 258.37 245.08 258.302 245.021C252.465 240.23 243.056 245.554 243.723 253.181C245.553 274.698 249.151 294.346 254.149 310.976Z" stroke="white" stroke-width="4.66798" stroke-miterlimit="10"/>
</g>
<g filter="url(#filter14_d_1780_95)">
<path d="M385.742 79.2242C373.955 63.0211 358.841 45.8844 341.071 29.1299C334.782 23.1745 324.913 28.1426 325.857 36.8912C325.87 36.9963 325.884 37.1015 325.898 37.2066C327.741 51.2977 317.69 63.6922 303.929 63.4154C293.541 63.268 284.069 55.1915 281.509 44.4257C278.199 30.2204 287.137 16.9821 300.339 15.6649C300.339 15.6649 300.438 15.6547 300.537 15.6445C308.727 14.6877 310.983 3.20888 304.098 -1.93864C284.768 -16.4528 265.697 -28.2226 248.223 -36.5876C240.976 -18.462 230.688 1.31167 217.761 21.1994C213.177 28.2835 202.135 25.4327 200.994 16.7046C200.994 16.7046 200.98 16.5995 200.966 16.4943C199.18 2.4507 186.299 -7.56354 173.006 -4.63825C162.878 -2.41446 155.731 7.28066 155.975 18.3402C156.278 32.9109 168.449 44.0113 181.651 42.6942C181.75 42.6839 181.849 42.6737 181.948 42.6634C190.179 42.0221 195.28 52.6839 189.908 59.1037C174.799 77.2461 159.276 92.607 144.386 104.385C156.173 120.588 171.288 137.725 189.057 154.479C195.346 160.435 205.215 155.466 204.272 146.718C204.258 146.613 204.244 146.507 204.23 146.402C202.388 132.311 212.438 119.917 226.199 120.193C236.587 120.341 246.059 128.417 248.619 139.183C251.929 153.388 242.991 166.627 229.789 167.944C229.789 167.944 229.69 167.954 229.591 167.964C221.401 168.921 219.146 180.4 226.03 185.548C245.36 200.062 264.431 211.831 281.905 220.196C289.152 202.071 299.44 182.297 312.367 162.41C316.951 155.325 327.993 158.176 329.135 166.904C329.135 166.904 329.148 167.009 329.162 167.115C330.949 181.158 343.829 191.172 357.122 188.247C367.25 186.023 374.397 176.328 374.153 165.269C373.851 150.698 361.679 139.598 348.477 140.915C348.378 140.925 348.28 140.935 348.181 140.946C339.949 141.587 334.848 130.925 340.22 124.505C355.329 106.363 370.852 91.002 385.742 79.2242Z" fill="#52A8F2"/>
<path d="M385.742 79.2242C373.955 63.0211 358.841 45.8844 341.071 29.1299C334.782 23.1745 324.913 28.1426 325.857 36.8912C325.87 36.9963 325.884 37.1015 325.898 37.2066C327.741 51.2977 317.69 63.6922 303.929 63.4154C293.541 63.268 284.069 55.1915 281.509 44.4257C278.199 30.2204 287.137 16.9821 300.339 15.6649C300.339 15.6649 300.438 15.6547 300.537 15.6445C308.727 14.6877 310.983 3.20888 304.098 -1.93864C284.768 -16.4528 265.697 -28.2226 248.223 -36.5876C240.976 -18.462 230.688 1.31167 217.761 21.1994C213.177 28.2835 202.135 25.4327 200.994 16.7046C200.994 16.7046 200.98 16.5995 200.966 16.4943C199.18 2.4507 186.299 -7.56354 173.006 -4.63825C162.878 -2.41446 155.731 7.28066 155.975 18.3402C156.278 32.9109 168.449 44.0113 181.651 42.6942C181.75 42.6839 181.849 42.6737 181.948 42.6634C190.179 42.0221 195.28 52.6839 189.908 59.1037C174.799 77.2461 159.276 92.607 144.386 104.385C156.173 120.588 171.288 137.725 189.057 154.479C195.346 160.435 205.215 155.466 204.272 146.718C204.258 146.613 204.244 146.507 204.23 146.402C202.388 132.311 212.438 119.917 226.199 120.193C236.587 120.341 246.059 128.417 248.619 139.183C251.929 153.388 242.991 166.627 229.789 167.944C229.789 167.944 229.69 167.954 229.591 167.964C221.401 168.921 219.146 180.4 226.03 185.548C245.36 200.062 264.431 211.831 281.905 220.196C289.152 202.071 299.44 182.297 312.367 162.41C316.951 155.325 327.993 158.176 329.135 166.904C329.135 166.904 329.148 167.009 329.162 167.115C330.949 181.158 343.829 191.172 357.122 188.247C367.25 186.023 374.397 176.328 374.153 165.269C373.851 150.698 361.679 139.598 348.477 140.915C348.378 140.925 348.28 140.935 348.181 140.946C339.949 141.587 334.848 130.925 340.22 124.505C355.329 106.363 370.852 91.002 385.742 79.2242Z" stroke="white" stroke-width="4.66798" stroke-miterlimit="10"/>
</g>
<g filter="url(#filter15_d_1780_95)">
<path d="M861.888 -60.8422C850.711 -75.3653 836.467 -90.6595 819.805 -105.539C813.908 -110.828 805.007 -106.041 806.087 -98.0658C806.102 -97.9699 806.117 -97.8742 806.132 -97.7783C808.166 -84.9403 799.283 -73.3591 786.694 -73.2716C777.193 -73.1493 768.333 -80.2993 765.726 -90.0793C762.347 -102.985 770.192 -115.311 782.23 -116.842C782.23 -116.842 782.32 -116.853 782.411 -116.865C789.875 -117.943 791.653 -128.494 785.231 -133.03C767.199 -145.822 749.47 -156.111 733.286 -163.327C727.109 -146.575 718.192 -128.241 706.865 -109.738C702.849 -103.147 692.683 -105.48 691.423 -113.432C691.423 -113.432 691.408 -113.528 691.393 -113.624C689.412 -126.42 677.387 -135.257 665.306 -132.254C656.1 -129.97 649.805 -120.928 650.302 -110.823C650.94 -97.508 662.343 -87.6599 674.381 -89.1909C674.471 -89.2028 674.561 -89.2146 674.651 -89.2264C682.162 -90.0165 687.089 -80.3945 682.337 -74.3919C668.971 -57.4301 655.159 -43.0012 641.836 -31.8641C653.014 -17.3411 667.258 -2.04687 683.919 12.8322C689.817 18.1217 698.717 13.3349 697.638 5.35932C697.623 5.26352 697.608 5.16764 697.592 5.07184C695.559 -7.76623 704.441 -19.3475 717.03 -19.4349C726.532 -19.5572 735.392 -12.4072 737.999 -2.62722C741.377 10.2789 733.533 22.6041 721.494 24.1351C721.494 24.1351 721.404 24.147 721.314 24.1588C713.849 25.2363 712.071 35.7874 718.493 40.3235C736.526 53.1155 754.254 63.4047 770.438 70.6204C776.615 53.8686 785.532 35.5348 796.86 17.0312C800.875 10.4407 811.042 12.7738 812.301 20.7257C812.301 20.7257 812.317 20.8217 812.332 20.9175C814.313 33.7135 826.338 42.5509 838.419 39.5472C847.624 37.2633 853.919 28.2221 853.422 18.1163C852.785 4.80159 841.382 -5.0464 829.343 -3.51536C829.253 -3.50353 829.163 -3.4917 829.073 -3.47988C821.563 -2.68983 816.635 -12.312 821.388 -18.3146C834.753 -35.2764 848.566 -49.7051 861.888 -60.8422Z" fill="#49C2F2"/>
<path d="M861.888 -60.8422C850.711 -75.3653 836.467 -90.6595 819.805 -105.539C813.908 -110.828 805.007 -106.041 806.087 -98.0658C806.102 -97.9699 806.117 -97.8742 806.132 -97.7783C808.166 -84.9403 799.283 -73.3591 786.694 -73.2716C777.193 -73.1493 768.333 -80.2993 765.726 -90.0793C762.347 -102.985 770.192 -115.311 782.23 -116.842C782.23 -116.842 782.32 -116.853 782.411 -116.865C789.875 -117.943 791.653 -128.494 785.231 -133.03C767.199 -145.822 749.47 -156.111 733.286 -163.327C727.109 -146.575 718.192 -128.241 706.865 -109.738C702.849 -103.147 692.683 -105.48 691.423 -113.432C691.423 -113.432 691.408 -113.528 691.393 -113.624C689.412 -126.42 677.387 -135.257 665.306 -132.254C656.1 -129.97 649.805 -120.928 650.302 -110.823C650.94 -97.508 662.343 -87.6599 674.381 -89.1909C674.471 -89.2028 674.561 -89.2146 674.651 -89.2264C682.162 -90.0165 687.089 -80.3945 682.337 -74.3919C668.971 -57.4301 655.159 -43.0012 641.836 -31.8641C653.014 -17.3411 667.258 -2.04687 683.919 12.8322C689.817 18.1217 698.717 13.3349 697.638 5.35932C697.623 5.26352 697.608 5.16764 697.592 5.07184C695.559 -7.76623 704.441 -19.3475 717.03 -19.4349C726.532 -19.5572 735.392 -12.4072 737.999 -2.62722C741.377 10.2789 733.533 22.6041 721.494 24.1351C721.494 24.1351 721.404 24.147 721.314 24.1588C713.849 25.2363 712.071 35.7874 718.493 40.3235C736.526 53.1155 754.254 63.4047 770.438 70.6204C776.615 53.8686 785.532 35.5348 796.86 17.0312C800.875 10.4407 811.042 12.7738 812.301 20.7257C812.301 20.7257 812.317 20.8217 812.332 20.9175C814.313 33.7135 826.338 42.5509 838.419 39.5472C847.624 37.2633 853.919 28.2221 853.422 18.1163C852.785 4.80159 841.382 -5.0464 829.343 -3.51536C829.253 -3.50353 829.163 -3.4917 829.073 -3.47988C821.563 -2.68983 816.635 -12.312 821.388 -18.3146C834.753 -35.2764 848.566 -49.7051 861.888 -60.8422Z" stroke="white" stroke-width="4.66798" stroke-miterlimit="10"/>
</g>
<defs>
<filter id="filter0_d_1780_95" x="1681.49" y="155.803" width="310.469" height="329.236" filterUnits="userSpaceOnUse" color-interpolation-filters="sRGB">
<feFlood flood-opacity="0" result="BackgroundImageFix"/>
<feColorMatrix in="SourceAlpha" type="matrix" values="0 0 0 0 0 0 0 0 0 0 0 0 0 0 0 0 0 0 127 0" result="hardAlpha"/>
<feOffset dx="2.97226" dy="5.46254"/>
<feGaussianBlur stdDeviation="3.40204"/>
<feComposite in2="hardAlpha" operator="out"/>
<feColorMatrix type="matrix" values="0 0 0 0 0 0 0 0 0 0 0 0 0 0 0 0 0 0 0.6 0"/>
<feBlend mode="normal" in2="BackgroundImageFix" result="effect1_dropShadow_1780_95"/>
<feBlend mode="normal" in="SourceGraphic" in2="effect1_dropShadow_1780_95" result="shape"/>
</filter>
<filter id="filter1_d_1780_95" x="1105.32" y="-28.1909" width="305.739" height="289.155" filterUnits="userSpaceOnUse" color-interpolation-filters="sRGB">
<feFlood flood-opacity="0" result="BackgroundImageFix"/>
<feColorMatrix in="SourceAlpha" type="matrix" values="0 0 0 0 0 0 0 0 0 0 0 0 0 0 0 0 0 0 127 0" result="hardAlpha"/>
<feOffset dx="2.97226" dy="5.46254"/>
<feGaussianBlur stdDeviation="3.40204"/>
<feComposite in2="hardAlpha" operator="out"/>
<feColorMatrix type="matrix" values="0 0 0 0 0 0 0 0 0 0 0 0 0 0 0 0 0 0 0.6 0"/>
<feBlend mode="normal" in2="BackgroundImageFix" result="effect1_dropShadow_1780_95"/>
<feBlend mode="normal" in="SourceGraphic" in2="effect1_dropShadow_1780_95" result="shape"/>
</filter>
<filter id="filter2_d_1780_95" x="1186.27" y="-181.337" width="221.106" height="291.274" filterUnits="userSpaceOnUse" color-interpolation-filters="sRGB">
<feFlood flood-opacity="0" result="BackgroundImageFix"/>
<feColorMatrix in="SourceAlpha" type="matrix" values="0 0 0 0 0 0 0 0 0 0 0 0 0 0 0 0 0 0 127 0" result="hardAlpha"/>
<feOffset dx="2.97226" dy="5.46254"/>
<feGaussianBlur stdDeviation="3.40204"/>
<feComposite in2="hardAlpha" operator="out"/>
<feColorMatrix type="matrix" values="0 0 0 0 0 0 0 0 0 0 0 0 0 0 0 0 0 0 0.6 0"/>
<feBlend mode="normal" in2="BackgroundImageFix" result="effect1_dropShadow_1780_95"/>
<feBlend mode="normal" in="SourceGraphic" in2="effect1_dropShadow_1780_95" result="shape"/>
</filter>
<filter id="filter3_d_1780_95" x="1622.64" y="-4.72889" width="252.657" height="239.188" filterUnits="userSpaceOnUse" color-interpolation-filters="sRGB">
<feFlood flood-opacity="0" result="BackgroundImageFix"/>
<feColorMatrix in="SourceAlpha" type="matrix" values="0 0 0 0 0 0 0 0 0 0 0 0 0 0 0 0 0 0 127 0" result="hardAlpha"/>
<feOffset dx="2.97226" dy="5.46254"/>
<feGaussianBlur stdDeviation="3.40204"/>
<feComposite in2="hardAlpha" operator="out"/>
<feColorMatrix type="matrix" values="0 0 0 0 0 0 0 0 0 0 0 0 0 0 0 0 0 0 0.6 0"/>
<feBlend mode="normal" in2="BackgroundImageFix" result="effect1_dropShadow_1780_95"/>
<feBlend mode="normal" in="SourceGraphic" in2="effect1_dropShadow_1780_95" result="shape"/>
</filter>
<filter id="filter4_d_1780_95" x="1321.05" y="-128.824" width="262.21" height="214.133" filterUnits="userSpaceOnUse" color-interpolation-filters="sRGB">
<feFlood flood-opacity="0" result="BackgroundImageFix"/>
<feColorMatrix in="SourceAlpha" type="matrix" values="0 0 0 0 0 0 0 0 0 0 0 0 0 0 0 0 0 0 127 0" result="hardAlpha"/>
<feOffset dx="2.97226" dy="5.46254"/>
<feGaussianBlur stdDeviation="3.40204"/>
<feComposite in2="hardAlpha" operator="out"/>
<feColorMatrix type="matrix" values="0 0 0 0 0 0 0 0 0 0 0 0 0 0 0 0 0 0 0.6 0"/>
<feBlend mode="normal" in2="BackgroundImageFix" result="effect1_dropShadow_1780_95"/>
<feBlend mode="normal" in="SourceGraphic" in2="effect1_dropShadow_1780_95" result="shape"/>
</filter>
<filter id="filter5_d_1780_95" x="1484.45" y="143.697" width="267.393" height="200.23" filterUnits="userSpaceOnUse" color-interpolation-filters="sRGB">
<feFlood flood-opacity="0" result="BackgroundImageFix"/>
<feColorMatrix in="SourceAlpha" type="matrix" values="0 0 0 0 0 0 0 0 0 0 0 0 0 0 0 0 0 0 127 0" result="hardAlpha"/>
<feOffset dx="2.97226" dy="5.46254"/>
<feGaussianBlur stdDeviation="3.40204"/>
<feComposite in2="hardAlpha" operator="out"/>
<feColorMatrix type="matrix" values="0 0 0 0 0 0 0 0 0 0 0 0 0 0 0 0 0 0 0.6 0"/>
<feBlend mode="normal" in2="BackgroundImageFix" result="effect1_dropShadow_1780_95"/>
<feBlend mode="normal" in="SourceGraphic" in2="effect1_dropShadow_1780_95" result="shape"/>
</filter>
<filter id="filter6_d_1780_95" x="1392.64" y="-41.1231" width="261.354" height="276.78" filterUnits="userSpaceOnUse" color-interpolation-filters="sRGB">
<feFlood flood-opacity="0" result="BackgroundImageFix"/>
<feColorMatrix in="SourceAlpha" type="matrix" values="0 0 0 0 0 0 0 0 0 0 0 0 0 0 0 0 0 0 127 0" result="hardAlpha"/>
<feOffset dx="2.97226" dy="5.46254"/>
<feGaussianBlur stdDeviation="3.40204"/>
<feComposite in2="hardAlpha" operator="out"/>
<feColorMatrix type="matrix" values="0 0 0 0 0 0 0 0 0 0 0 0 0 0 0 0 0 0 0.6 0"/>
<feBlend mode="normal" in2="BackgroundImageFix" result="effect1_dropShadow_1780_95"/>
<feBlend mode="normal" in="SourceGraphic" in2="effect1_dropShadow_1780_95" result="shape"/>
</filter>
<filter id="filter7_d_1780_95" x="916.485" y="-167.829" width="240.075" height="253.877" filterUnits="userSpaceOnUse" color-interpolation-filters="sRGB">
<feFlood flood-opacity="0" result="BackgroundImageFix"/>
<feColorMatrix in="SourceAlpha" type="matrix" values="0 0 0 0 0 0 0 0 0 0 0 0 0 0 0 0 0 0 127 0" result="hardAlpha"/>
<feOffset dx="2.97226" dy="5.46254"/>
<feGaussianBlur stdDeviation="3.40204"/>
<feComposite in2="hardAlpha" operator="out"/>
<feColorMatrix type="matrix" values="0 0 0 0 0 0 0 0 0 0 0 0 0 0 0 0 0 0 0.6 0"/>
<feBlend mode="normal" in2="BackgroundImageFix" result="effect1_dropShadow_1780_95"/>
<feBlend mode="normal" in="SourceGraphic" in2="effect1_dropShadow_1780_95" result="shape"/>
</filter>
<filter id="filter8_d_1780_95" x="-200.599" y="155.803" width="310.469" height="329.236" filterUnits="userSpaceOnUse" color-interpolation-filters="sRGB">
<feFlood flood-opacity="0" result="BackgroundImageFix"/>
<feColorMatrix in="SourceAlpha" type="matrix" values="0 0 0 0 0 0 0 0 0 0 0 0 0 0 0 0 0 0 127 0" result="hardAlpha"/>
<feOffset dx="2.97226" dy="5.46254"/>
<feGaussianBlur stdDeviation="3.40204"/>
<feComposite in2="hardAlpha" operator="out"/>
<feColorMatrix type="matrix" values="0 0 0 0 0 0 0 0 0 0 0 0 0 0 0 0 0 0 0.6 0"/>
<feBlend mode="normal" in2="BackgroundImageFix" result="effect1_dropShadow_1780_95"/>
<feBlend mode="normal" in="SourceGraphic" in2="effect1_dropShadow_1780_95" result="shape"/>
</filter>
<filter id="filter9_d_1780_95" x="380.299" y="-28.1909" width="305.739" height="289.155" filterUnits="userSpaceOnUse" color-interpolation-filters="sRGB">
<feFlood flood-opacity="0" result="BackgroundImageFix"/>
<feColorMatrix in="SourceAlpha" type="matrix" values="0 0 0 0 0 0 0 0 0 0 0 0 0 0 0 0 0 0 127 0" result="hardAlpha"/>
<feOffset dx="2.97226" dy="5.46254"/>
<feGaussianBlur stdDeviation="3.40204"/>
<feComposite in2="hardAlpha" operator="out"/>
<feColorMatrix type="matrix" values="0 0 0 0 0 0 0 0 0 0 0 0 0 0 0 0 0 0 0.6 0"/>
<feBlend mode="normal" in2="BackgroundImageFix" result="effect1_dropShadow_1780_95"/>
<feBlend mode="normal" in="SourceGraphic" in2="effect1_dropShadow_1780_95" result="shape"/>
</filter>
<filter id="filter10_d_1780_95" x="383.977" y="-181.337" width="221.106" height="291.274" filterUnits="userSpaceOnUse" color-interpolation-filters="sRGB">
<feFlood flood-opacity="0" result="BackgroundImageFix"/>
<feColorMatrix in="SourceAlpha" type="matrix" values="0 0 0 0 0 0 0 0 0 0 0 0 0 0 0 0 0 0 127 0" result="hardAlpha"/>
<feOffset dx="2.97226" dy="5.46254"/>
<feGaussianBlur stdDeviation="3.40204"/>
<feComposite in2="hardAlpha" operator="out"/>
<feColorMatrix type="matrix" values="0 0 0 0 0 0 0 0 0 0 0 0 0 0 0 0 0 0 0.6 0"/>
<feBlend mode="normal" in2="BackgroundImageFix" result="effect1_dropShadow_1780_95"/>
<feBlend mode="normal" in="SourceGraphic" in2="effect1_dropShadow_1780_95" result="shape"/>
</filter>
<filter id="filter11_d_1780_95" x="-83.9451" y="-4.72889" width="252.657" height="239.188" filterUnits="userSpaceOnUse" color-interpolation-filters="sRGB">
<feFlood flood-opacity="0" result="BackgroundImageFix"/>
<feColorMatrix in="SourceAlpha" type="matrix" values="0 0 0 0 0 0 0 0 0 0 0 0 0 0 0 0 0 0 127 0" result="hardAlpha"/>
<feOffset dx="2.97226" dy="5.46254"/>
<feGaussianBlur stdDeviation="3.40204"/>
<feComposite in2="hardAlpha" operator="out"/>
<feColorMatrix type="matrix" values="0 0 0 0 0 0 0 0 0 0 0 0 0 0 0 0 0 0 0.6 0"/>
<feBlend mode="normal" in2="BackgroundImageFix" result="effect1_dropShadow_1780_95"/>
<feBlend mode="normal" in="SourceGraphic" in2="effect1_dropShadow_1780_95" result="shape"/>
</filter>
<filter id="filter12_d_1780_95" x="208.092" y="-128.824" width="262.21" height="214.133" filterUnits="userSpaceOnUse" color-interpolation-filters="sRGB">
<feFlood flood-opacity="0" result="BackgroundImageFix"/>
<feColorMatrix in="SourceAlpha" type="matrix" values="0 0 0 0 0 0 0 0 0 0 0 0 0 0 0 0 0 0 127 0" result="hardAlpha"/>
<feOffset dx="2.97226" dy="5.46254"/>
<feGaussianBlur stdDeviation="3.40204"/>
<feComposite in2="hardAlpha" operator="out"/>
<feColorMatrix type="matrix" values="0 0 0 0 0 0 0 0 0 0 0 0 0 0 0 0 0 0 0.6 0"/>
<feBlend mode="normal" in2="BackgroundImageFix" result="effect1_dropShadow_1780_95"/>
<feBlend mode="normal" in="SourceGraphic" in2="effect1_dropShadow_1780_95" result="shape"/>
</filter>
<filter id="filter13_d_1780_95" x="39.5139" y="143.697" width="267.393" height="200.23" filterUnits="userSpaceOnUse" color-interpolation-filters="sRGB">
<feFlood flood-opacity="0" result="BackgroundImageFix"/>
<feColorMatrix in="SourceAlpha" type="matrix" values="0 0 0 0 0 0 0 0 0 0 0 0 0 0 0 0 0 0 127 0" result="hardAlpha"/>
<feOffset dx="2.97226" dy="5.46254"/>
<feGaussianBlur stdDeviation="3.40204"/>
<feComposite in2="hardAlpha" operator="out"/>
<feColorMatrix type="matrix" values="0 0 0 0 0 0 0 0 0 0 0 0 0 0 0 0 0 0 0.6 0"/>
<feBlend mode="normal" in2="BackgroundImageFix" result="effect1_dropShadow_1780_95"/>
<feBlend mode="normal" in="SourceGraphic" in2="effect1_dropShadow_1780_95" result="shape"/>
</filter>
<filter id="filter14_d_1780_95" x="137.36" y="-41.1231" width="261.354" height="276.78" filterUnits="userSpaceOnUse" color-interpolation-filters="sRGB">
<feFlood flood-opacity="0" result="BackgroundImageFix"/>
<feColorMatrix in="SourceAlpha" type="matrix" values="0 0 0 0 0 0 0 0 0 0 0 0 0 0 0 0 0 0 127 0" result="hardAlpha"/>
<feOffset dx="2.97226" dy="5.46254"/>
<feGaussianBlur stdDeviation="3.40204"/>
<feComposite in2="hardAlpha" operator="out"/>
<feColorMatrix type="matrix" values="0 0 0 0 0 0 0 0 0 0 0 0 0 0 0 0 0 0 0.6 0"/>
<feBlend mode="normal" in2="BackgroundImageFix" result="effect1_dropShadow_1780_95"/>
<feBlend mode="normal" in="SourceGraphic" in2="effect1_dropShadow_1780_95" result="shape"/>
</filter>
<filter id="filter15_d_1780_95" x="634.797" y="-167.829" width="240.075" height="253.877" filterUnits="userSpaceOnUse" color-interpolation-filters="sRGB">
<feFlood flood-opacity="0" result="BackgroundImageFix"/>
<feColorMatrix in="SourceAlpha" type="matrix" values="0 0 0 0 0 0 0 0 0 0 0 0 0 0 0 0 0 0 127 0" result="hardAlpha"/>
<feOffset dx="2.97226" dy="5.46254"/>
<feGaussianBlur stdDeviation="3.40204"/>
<feComposite in2="hardAlpha" operator="out"/>
<feColorMatrix type="matrix" values="0 0 0 0 0 0 0 0 0 0 0 0 0 0 0 0 0 0 0.6 0"/>
<feBlend mode="normal" in2="BackgroundImageFix" result="effect1_dropShadow_1780_95"/>
<feBlend mode="normal" in="SourceGraphic" in2="effect1_dropShadow_1780_95" result="shape"/>
</filter>
<linearGradient id="paint0_linear_1780_95" x1="1709.95" y1="206.911" x2="1970.52" y2="406.034" gradientUnits="userSpaceOnUse">
<stop stop-color="#B8E9FF"/>
<stop offset="1" stop-color="#5CD2FF"/>
</linearGradient>
<linearGradient id="paint1_linear_1780_95" x1="75.4599" y1="206.911" x2="-185.103" y2="406.034" gradientUnits="userSpaceOnUse">
<stop stop-color="#B8E9FF"/>
<stop offset="1" stop-color="#5CD2FF"/>
</linearGradient>
</defs>
</svg>
